<?xml version="1.0" standalone="no"?>
<!DOCTYPE svg PUBLIC "-//W3C//DTD SVG 1.1//EN" "http://www.w3.org/Graphics/SVG/1.1/DTD/svg11.dtd" >
<svg xmlns="http://www.w3.org/2000/svg" xmlns:xlink="http://www.w3.org/1999/xlink" version="1.1">
<metadata>
Created by FontForge 20170731 at Tue Dec 22 11:58:59 2020
 By Aleksey,,,
(c) 1992, 1994, 1997, 2000, 2004, 2011 Adobe Systems Incorporated. All rights reserved.
</metadata>
<defs>
<font id="MyriadHebrew-Bold" horiz-adv-x="0" >
  <font-face 
    font-family="Myriad Hebrew"
    font-weight="700"
    font-stretch="normal"
    units-per-em="2048"
    panose-1="1 1 1 1 1 1 1 1 1 1"
    ascent="1536"
    descent="-512"
    x-height="1001"
    cap-height="1380"
    bbox="-369 -696 2572 1839"
    underline-thickness="102"
    underline-position="-307"
    unicode-range="U+0020-FB4F"
  />
<missing-glyph horiz-adv-x="1024" 
d="M0 0v1434h1024v-1434h-1024zM512 809l348 522h-696zM573 717l349 -522v1044zM164 102h696l-348 523zM102 1239v-1044l349 522z" />
    <glyph glyph-name=".notdef" horiz-adv-x="1024" 
d="M0 0v1434h1024v-1434h-1024zM512 809l348 522h-696zM573 717l349 -522v1044zM164 102h696l-348 523zM102 1239v-1044l349 522z" />
    <glyph glyph-name=".null" 
 />
    <glyph glyph-name="nonmarkingreturn" horiz-adv-x="682" 
 />
    <glyph glyph-name="space" unicode=" " horiz-adv-x="413" 
 />
    <glyph glyph-name="exclam" unicode="!" horiz-adv-x="618" 
d="M217 465q-1 10 -10.5 81.5t-17.5 141.5t-15.5 159t-7.5 148v150h350v-141q0 -112 -20 -282t-35 -257h-244zM152 166q0 85 52.5 135.5t133.5 50.5q83 0 134.5 -52t51.5 -134q0 -84 -49.5 -135t-136.5 -51q-81 0 -133.5 50.5t-52.5 135.5z" />
    <glyph glyph-name="quotedbl" unicode="&#x22;" horiz-adv-x="1040" 
d="M618 700l-12 541l285 31l-37 -541zM164 700l-17 541l287 31l-39 -541z" />
    <glyph glyph-name="numbersign" unicode="#" horiz-adv-x="1130" 
d="M1053 711h-193l-41 -181h127v-251h-184l-66 -283h-192l65 283h-170l-65 -283h-195l66 283h-125v251h184l43 181h-131v245h189l61 261h192l-61 -261h168l59 261h193l-59 -261h135v-245zM627 530l41 181h-168l-41 -181h168z" />
    <glyph glyph-name="dollar" unicode="$" horiz-adv-x="1130" 
d="M659 -182h-200v184q-173 5 -342 94l63 254q177 -102 355 -102q97 0 143.5 20.5t46.5 73.5q0 48 -50 78.5t-171 64.5q-198 58 -286.5 147t-88.5 228q0 132 86.5 223t253.5 119v184h201v-169q173 -8 299 -74l-76 -246q-4 2 -25.5 12t-33 15t-36 14.5t-44.5 15t-47 11.5
t-56 9t-59 3q-170 0 -170 -84q0 -43 53 -71.5t195 -69.5q103 -30 173 -69.5t108 -88.5t53.5 -101.5t15.5 -119.5q0 -135 -94.5 -233t-266.5 -126v-196z" />
    <glyph glyph-name="percent" unicode="%" horiz-adv-x="1835" 
d="M416 483q-162 0 -250 104t-88 261q0 90 28.5 164.5t76 121.5t108 73t127.5 26q162 0 251 -106t89 -271q0 -93 -37.5 -176.5t-117.5 -140t-187 -56.5zM422 707q53 0 88 40.5t35 108.5q0 72 -35 113t-92 41q-52 0 -87.5 -40t-35.5 -112q0 -66 34 -108.5t93 -42.5zM1079 346
q0 118 49.5 206t125.5 130.5t165 42.5q162 0 250 -102.5t88 -268.5q0 -68 -22 -133.5t-63 -119t-107 -86.5t-146 -33q-163 0 -251.5 103t-88.5 261zM1292 354q0 -63 36.5 -107t94.5 -44q52 0 87.5 43t35.5 108q0 70 -35 113t-92 43q-55 0 -91 -44t-36 -112zM434 -20
l731 1243h226l-727 -1246z" />
    <glyph glyph-name="ampersand" unicode="&#x26;" horiz-adv-x="1392" 
d="M90 348q0 102 62.5 175t183.5 134q-103 115 -103 248q0 58 20 113t61 104.5t116 80t174 30.5q93 0 165 -27t114 -72.5t63 -99t21 -112.5q0 -190 -242 -295q97 -105 195 -199q39 48 68.5 126.5t43.5 152.5h273q-59 -290 -222 -447q23 -25 252 -260h-383q-14 13 -41.5 39.5
t-42.5 40.5q-58 -45 -144 -72.5t-185 -27.5q-114 0 -203 31t-141 83.5t-78.5 117t-26.5 136.5zM387 391q0 -68 52 -117t139 -49q86 0 131 29q-71 65 -254 260q-68 -53 -68 -123zM592 764q113 58 113 151q0 44 -28.5 77.5t-76.5 33.5q-47 0 -71.5 -31.5t-24.5 -79.5
q0 -72 88 -151z" />
    <glyph glyph-name="quotesingle" unicode="'" horiz-adv-x="583" 
d="M152 688l-7 531l291 30l-45 -530z" />
    <glyph glyph-name="parenleft" unicode="(" horiz-adv-x="813" 
d="M399 -252q-107 115 -184.5 329.5t-77.5 457.5q0 170 43 333.5t99.5 271t119.5 179.5h295q-130 -158 -206 -357t-76 -417q0 -230 79.5 -443.5t200.5 -353.5h-293z" />
    <glyph glyph-name="parenright" unicode=")" horiz-adv-x="813" 
d="M119 -254q129 156 205.5 361.5t76.5 422.5q0 230 -78.5 437.5t-199.5 351.5h293q109 -115 184.5 -324t75.5 -454q0 -249 -79.5 -465.5t-180.5 -329.5h-297z" />
    <glyph glyph-name="asterisk" unicode="*" horiz-adv-x="739" 
d="M184 539l-123 129l197 157l-223 74l86 172l190 -133l4 248l207 -25l-78 -241l224 75l34 -188l-235 -8l166 -193l-158 -104l-127 229z" />
    <glyph glyph-name="plus" unicode="+" horiz-adv-x="1220" 
d="M510 1090h201v-447h428v-192h-428v-451h-201v451h-428v192h428v447z" />
    <glyph glyph-name="comma" unicode="," horiz-adv-x="571" 
d="M244 -225l-207 -19q102 296 147 582l318 20q-112 -345 -258 -583z" />
    <glyph glyph-name="hyphen" unicode="-" horiz-adv-x="708" 
d="M80 696h549v-260h-549v260z" />
    <glyph glyph-name="period" unicode="." horiz-adv-x="571" 
d="M285 -23q-79 0 -131 53.5t-52 135.5q0 83 51.5 136.5t133.5 53.5t132 -52.5t50 -137.5q0 -83 -51 -136t-133 -53z" />
    <glyph glyph-name="slash" unicode="/" horiz-adv-x="933" 
d="M123 -76l444 1286h242l-442 -1286h-244z" />
    <glyph glyph-name="zero" unicode="0" horiz-adv-x="1103" 
d="M358 614q0 -175 51.5 -279t147.5 -104q91 0 139.5 104t48.5 279q0 172 -51.5 268.5t-142.5 96.5t-142 -94.5t-51 -270.5zM63 614q0 152 38.5 271.5t106 194.5t156 114t191.5 39q231 0 358 -168.5t127 -450.5q0 -291 -129.5 -462.5t-355.5 -171.5q-227 0 -359.5 167.5
t-132.5 466.5z" />
    <glyph glyph-name="one" unicode="1" horiz-adv-x="1103" 
d="M711 250h235v-250h-786v250h264v661q-117 -46 -219 -59l-15 238q73 15 172.5 54t155.5 75h193v-969z" />
    <glyph glyph-name="two" unicode="2" horiz-adv-x="1103" 
d="M98 0v174l176 129q375 272 375 479q0 79 -46.5 130t-143.5 51q-146 0 -289 -97l-86 238q186 129 414 129q117 0 206.5 -33.5t142.5 -92t79 -131.5t26 -159q0 -83 -31 -166t-85.5 -155t-117 -132.5t-136.5 -113.5q126 12 227 12h201v-262h-912z" />
    <glyph glyph-name="three" unicode="3" horiz-adv-x="1103" 
d="M86 96l80 266q164 -120 348 -120q195 0 195 118q0 50 -49.5 87.5t-161.5 37.5h-185l-2 265h172q201 0 201 110q0 47 -42 81t-136 34q-98 0 -174.5 -25.5t-153.5 -72.5l-69 247q62 32 109.5 51.5t131 37.5t176.5 18q215 0 327 -90.5t112 -241.5q0 -95 -52.5 -162
t-140.5 -94v-8q236 -66 236 -285q0 -165 -131 -267.5t-351 -102.5q-269 0 -440 116z" />
    <glyph glyph-name="four" unicode="4" horiz-adv-x="1103" 
d="M70 295v194q83 123 274 391t252 339h295v-678h151v-246h-151v-295h-266v295h-555zM362 541h263v51q0 212 8 344h-2q-23 -33 -135 -199t-134 -196z" />
    <glyph glyph-name="five" unicode="5" horiz-adv-x="1103" 
d="M88 96l78 264q180 -118 354 -118q105 0 149 38t44 97q0 25 -7.5 47t-29 46.5t-55.5 42t-92 29t-134 11.5q-132 0 -250 -27v62l113 624h694l-32 -262h-476l-26 -155q40 4 84 4q134 0 234 -31t158.5 -86.5t87 -126t28.5 -156.5q0 -88 -32 -163t-93.5 -132.5t-161 -90.5
t-225.5 -33q-236 0 -410 116z" />
    <glyph glyph-name="six" unicode="6" horiz-adv-x="1103" 
d="M373 457q8 -92 60 -154t136 -65q91 0 136 45.5t45 113.5q0 62 -46.5 114t-136.5 52q-66 0 -119 -30t-75 -76zM80 543q0 315 200 501.5t527 186.5q73 0 111 -10l-9 -252q-44 10 -116 10q-159 0 -274 -67t-150 -207q47 50 120.5 76t151.5 26q178 0 284.5 -107t106.5 -282
q0 -84 -30 -161.5t-86.5 -139.5t-147 -99.5t-201.5 -37.5q-118 0 -211.5 44t-153 121t-91 178.5t-31.5 219.5z" />
    <glyph glyph-name="seven" unicode="7" horiz-adv-x="1103" 
d="M199 0q105 201 285.5 556t201.5 394h-586v262h891v-202q-77 -168 -237 -504t-246 -506h-309z" />
    <glyph glyph-name="eight" unicode="8" horiz-adv-x="1103" 
d="M557 743q78 0 114 35.5t36 83.5q0 52 -38 90.5t-118 38.5q-84 0 -123 -38.5t-39 -86.5q0 -50 43.5 -86.5t124.5 -36.5zM373 367q0 -57 45.5 -100.5t138.5 -43.5q89 0 131.5 41t42.5 96q0 58 -44.5 100t-135.5 42q-89 0 -133.5 -41t-44.5 -94zM80 344q0 195 199 272
q-82 41 -124 110.5t-42 150.5q0 156 114.5 256t333.5 100q94 0 168.5 -21.5t120.5 -55.5t76.5 -80.5t42.5 -92t12 -94.5q0 -184 -158 -258q96 -32 148.5 -104t52.5 -171q0 -169 -123 -272.5t-362 -103.5q-220 0 -339.5 104t-119.5 260z" />
    <glyph glyph-name="nine" unicode="9" horiz-adv-x="1103" 
d="M543 645q120 0 188 100q-4 46 -16.5 85.5t-35 74t-62 54.5t-91.5 20q-82 0 -126 -49t-44 -115q0 -70 45.5 -120t141.5 -50zM186 -12v254q23 -4 72 -4q372 0 475 264q-54 -55 -112 -82t-138 -27q-186 0 -299.5 106.5t-113.5 305.5q0 84 31.5 160.5t90 136.5t152 95.5
t207.5 35.5q217 0 345 -151t128 -410q0 -312 -200 -502t-527 -190q-66 0 -111 8z" />
    <glyph glyph-name="colon" unicode=":" horiz-adv-x="684" 
d="M342 639q-79 0 -130.5 53t-51.5 133q0 83 51 136t133 53q81 0 130.5 -52t51.5 -137q0 -81 -51 -133.5t-133 -52.5zM342 -23q-79 0 -130.5 53.5t-51.5 133.5q0 83 51 135.5t133 52.5q81 0 130.5 -51.5t51.5 -136.5q0 -81 -51 -134t-133 -53z" />
    <glyph glyph-name="semicolon" unicode=";" horiz-adv-x="684" 
d="M254 -225l-205 -19q102 295 150 582l313 20q-112 -345 -258 -583zM342 639q-81 0 -132.5 53t-49.5 133q0 84 50.5 136.5t131.5 52.5t130.5 -52t51.5 -137q0 -81 -50 -133.5t-132 -52.5z" />
    <glyph glyph-name="less" unicode="&#x3c;" horiz-adv-x="1220" 
d="M119 457v176l983 457v-218l-744 -325v-4l744 -326v-217z" />
    <glyph glyph-name="equal" unicode="=" horiz-adv-x="1220" 
d="M1139 242h-1057v190h1057v-190zM1139 666h-1057v190h1057v-190z" />
    <glyph glyph-name="greater" unicode="&#x3e;" horiz-adv-x="1220" 
d="M1102 639v-188l-983 -451v217l760 326v4l-760 325v218z" />
    <glyph glyph-name="question" unicode="?" horiz-adv-x="1024" 
d="M330 428q-33 46 -33 111q0 42 24.5 80t60 65t71 50.5t60 46t24.5 42.5q0 33 -34.5 52.5t-96.5 19.5q-120 0 -254 -66l-52 258q142 78 346 78q197 0 297.5 -84t100.5 -223q0 -64 -26.5 -117t-64 -86.5t-75 -60.5t-64 -52t-26.5 -48q0 -26 16 -66h-274zM279 166
q0 85 51.5 135.5t132.5 50.5q84 0 136 -52t52 -134q0 -83 -50 -134.5t-138 -51.5q-80 0 -132 50.5t-52 135.5z" />
    <glyph glyph-name="at" unicode="@" horiz-adv-x="1689" 
d="M688 369q0 -47 22.5 -74t65.5 -27q65 0 120 55t73 156l20 113q-28 12 -84 12q-89 0 -153 -69t-64 -166zM96 354q0 177 60 335.5t166 276.5t263 187.5t341 69.5q194 0 346.5 -78.5t239.5 -225t87 -337.5q0 -132 -36.5 -240.5t-98 -176.5t-138.5 -105t-161 -37
q-159 0 -194 131q-103 -131 -266 -131q-106 0 -173 79t-67 215q0 102 34.5 195.5t97.5 165.5t158.5 115t209.5 43q69 0 143 -17.5t113 -40.5l-62 -405q-10 -61 3.5 -83t49.5 -24q18 -1 38.5 7t43.5 29.5t41.5 54t30.5 88.5t12 126q0 192 -126.5 300t-356.5 108
q-92 0 -176.5 -24.5t-157 -75t-126.5 -122t-85 -170.5t-31 -214q0 -126 40 -224t109.5 -157t158 -89t190.5 -30q187 0 311 59l62 -229q-93 -44 -185.5 -61t-218.5 -17q-138 0 -262.5 50.5t-220 142t-151.5 230.5t-56 306z" />
    <glyph glyph-name="A" unicode="A" horiz-adv-x="1343" 
d="M852 354h-395l-99 -354h-323l422 1380h409l428 -1380h-336zM502 588h305l-86 293q-26 84 -70 266h-4q-5 -19 -27.5 -119t-35.5 -147z" />
    <glyph glyph-name="B" unicode="B" horiz-adv-x="1236" 
d="M135 6v1356q149 29 404 29q146 0 240 -17.5t167 -60.5q75 -40 120.5 -110.5t45.5 -160.5q0 -96 -57 -174.5t-170 -119.5v-5q123 -34 198.5 -122.5t75.5 -217.5q0 -176 -143 -292q-156 -125 -543 -125q-198 0 -338 20zM444 1155v-321h103q121 0 186.5 46t65.5 124
t-57.5 118.5t-163.5 40.5q-80 0 -134 -8zM444 610v-389q31 -4 121 -4q74 0 132 19t96 65.5t38 114.5q0 99 -77 146.5t-203 47.5h-107z" />
    <glyph glyph-name="C" unicode="C" horiz-adv-x="1218" 
d="M1102 283l47 -244q-49 -25 -143.5 -43.5t-210.5 -18.5q-175 0 -313.5 53t-227.5 146.5t-135.5 219t-46.5 274.5q0 138 38 256.5t106.5 205t162.5 147.5t207 91.5t239 30.5q113 0 203.5 -18t136.5 -42l-63 -247q-119 51 -262 51q-127 0 -224.5 -49t-157 -154t-59.5 -254
q0 -208 117.5 -329t325.5 -121q150 0 260 45z" />
    <glyph glyph-name="D" unicode="D" horiz-adv-x="1425" 
d="M135 6v1356q185 29 422 29q194 0 329 -36t236 -112q234 -173 234 -520q0 -189 -62 -329t-168 -230q-213 -178 -637 -178q-198 0 -354 20zM449 1139v-903q31 -7 108 -7q219 -2 343 120.5t124 363.5q1 212 -114.5 325t-319.5 113q-87 0 -141 -12z" />
    <glyph glyph-name="E" unicode="E" horiz-adv-x="1093" 
d="M956 838v-254h-507v-328h567v-256h-881v1380h852v-256h-538v-286h507z" />
    <glyph glyph-name="F" unicode="F" horiz-adv-x="1079" 
d="M135 0v1380h844v-256h-530v-315h495v-254h-495v-555h-314z" />
    <glyph glyph-name="G" unicode="G" horiz-adv-x="1396" 
d="M1288 791v-728q-87 -30 -212 -53.5t-249 -23.5q-369 0 -561 186q-95 89 -145.5 219t-48.5 283q1 224 104 389t279.5 248.5t404.5 83.5q124 0 224.5 -20t158.5 -48l-65 -250q-138 60 -322 60q-204 0 -330.5 -115.5t-126.5 -331.5q0 -210 120 -331t315 -121q111 0 153 20
v289h-213v244h514z" />
    <glyph glyph-name="H" unicode="H" horiz-adv-x="1411" 
d="M135 1380h314v-530h514v530h311v-1380h-311v578h-514v-578h-314v1380z" />
    <glyph glyph-name="I" unicode="I" horiz-adv-x="583" 
d="M135 1380h314v-1380h-314v1380z" />
    <glyph glyph-name="J" unicode="J" horiz-adv-x="841" 
d="M406 512v868h311v-872q0 -145 -33.5 -248.5t-99.5 -165t-154 -89.5t-205 -28q-126 0 -227 33l35 252q74 -24 160 -24q106 0 159.5 60.5t53.5 213.5z" />
    <glyph glyph-name="K" unicode="K" horiz-adv-x="1257" 
d="M135 0v1380h309v-610h7q27 45 94 152l313 458h383l-457 -587l482 -793h-365l-338 596l-119 -145v-451h-309z" />
    <glyph glyph-name="L" unicode="L" horiz-adv-x="1046" 
d="M135 0v1380h314v-1118h548v-262h-862z" />
    <glyph glyph-name="M" unicode="M" horiz-adv-x="1732" 
d="M1323 0l-20 528q-13 360 -13 568h-6q-56 -231 -154 -537l-167 -536h-246l-146 532q-78 284 -125 541h-4q-1 -28 -9.5 -249t-14.5 -323l-25 -524h-289l89 1380h415l135 -460q65 -228 117 -500h6q88 361 131 502l148 458h407l76 -1380h-305z" />
    <glyph glyph-name="N" unicode="N" horiz-adv-x="1413" 
d="M422 0h-287v1380h365l286 -506q133 -235 226 -473h6q-27 246 -27 578v401h287v-1380h-328l-295 532q-138 247 -239 488l-6 -2q12 -273 12 -602v-416z" />
    <glyph glyph-name="O" unicode="O" horiz-adv-x="1468" 
d="M750 1403q204 0 352.5 -94.5t222.5 -253.5t74 -363q0 -169 -53.5 -306t-146 -225.5t-214.5 -136t-262 -47.5q-295 0 -473 195t-178 508q0 212 84.5 376.5t239 255.5t354.5 91zM737 1155q-106 0 -183.5 -64t-115 -168.5t-37.5 -234.5q0 -201 89 -332t245 -131
q107 0 184 64.5t113.5 167.5t36.5 231q0 90 -20 171.5t-59.5 148.5t-104.5 107t-148 40z" />
    <glyph glyph-name="P" unicode="P" horiz-adv-x="1189" 
d="M135 0v1362q174 29 422 29q284 0 422 -111q68 -54 107.5 -137t39.5 -182q0 -210 -127 -328q-157 -148 -446 -148q-7 0 -109 7v-492h-309zM444 1145v-412q35 -6 105 -6q125 0 196.5 59.5t71.5 163.5q0 98 -64 151.5t-184 53.5q-67 0 -125 -10z" />
    <glyph glyph-name="Q" unicode="Q" horiz-adv-x="1468" 
d="M1405 4l-90 -242q-101 29 -210 67.5t-159 58t-176 69.5q-37 14 -98 20q-94 7 -180 37t-163 88t-134 138t-90 193.5t-33 248.5q0 210 84 374t239 255.5t355 91.5q152 0 275.5 -54t204.5 -149t125 -222.5t44 -275.5q0 -221 -91.5 -384t-236.5 -228v-8q92 -27 334 -78z
M733 225q107 0 184.5 64t114.5 167.5t37 233.5q0 124 -35 227t-112 170.5t-185 67.5q-107 0 -185 -66.5t-114.5 -170.5t-36.5 -230q0 -128 36.5 -231t113 -167.5t182.5 -64.5z" />
    <glyph glyph-name="R" unicode="R" horiz-adv-x="1214" 
d="M135 0v1362q181 29 416 29q309 0 446 -109q127 -102 127 -289q0 -123 -72 -213.5t-171 -126.5v-6q69 -28 112.5 -92.5t71.5 -165.5q11 -41 31 -116.5t32 -119.5t26.5 -89t23.5 -64h-320q-31 53 -96 322q-27 126 -76 172.5t-147 48.5h-95v-543h-309zM444 1149v-381h123
q116 0 182 53.5t66 145.5q0 94 -60 142t-169 50q-84 0 -142 -10z" />
    <glyph glyph-name="S" unicode="S" horiz-adv-x="1105" 
d="M82 63l63 259q168 -86 347 -86q105 0 162 40t57 109q0 63 -52.5 106.5t-179.5 88.5q-379 132 -379 407q0 181 141.5 297.5t381.5 116.5q201 0 352 -68l-70 -252q-134 66 -289 66q-97 0 -148.5 -38t-51.5 -95q0 -62 55 -100.5t201 -94.5q184 -68 271 -167t87 -244
q0 -88 -34.5 -165t-101 -137t-175 -94.5t-246.5 -34.5q-112 0 -219.5 25.5t-171.5 60.5z" />
    <glyph glyph-name="T" unicode="T" horiz-adv-x="1122" 
d="M401 0v1118h-370v262h1061v-262h-377v-1118h-314z" />
    <glyph glyph-name="U" unicode="U" horiz-adv-x="1396" 
d="M133 1380h313v-798q0 -175 64.5 -265t185.5 -90q254 0 254 355v798h312v-778q0 -313 -150 -469t-426 -156q-553 0 -553 629v774z" />
    <glyph glyph-name="V" unicode="V" horiz-adv-x="1302" 
d="M825 0h-364l-443 1380h342l168 -583q85 -298 123 -494h6q49 233 125 488l176 589h332z" />
    <glyph glyph-name="W" unicode="W" horiz-adv-x="1818" 
d="M700 0h-344l-325 1380h334l104 -567q18 -98 82 -483h4q18 136 90 485l117 565h332l110 -581q43 -226 74 -463h4q13 100 80 479l113 565h317l-356 -1380h-338l-117 594q-47 239 -66 426h-4q-44 -274 -80 -426z" />
    <glyph glyph-name="X" unicode="X" horiz-adv-x="1255" 
d="M1223 0h-361l-125 250q-25 48 -123 248h-4q-22 -60 -106 -248l-115 -250h-356l399 698l-385 682h359l120 -252q61 -125 105 -229h4q37 99 94 229l117 252h356l-389 -673z" />
    <glyph glyph-name="Y" unicode="Y" horiz-adv-x="1234" 
d="M766 0h-311v565l-437 815h357l141 -331q41 -96 107 -265h4q43 119 104 265l139 331h351l-455 -805v-575z" />
    <glyph glyph-name="Z" unicode="Z" horiz-adv-x="1181" 
d="M47 0v168l658 946v8h-596v258h1001v-180l-643 -934v-8h653v-258h-1073z" />
    <glyph glyph-name="bracketleft" unicode="[" horiz-adv-x="763" 
d="M145 -252v1571h500v-234h-242v-1099h244v-238h-502z" />
    <glyph glyph-name="backslash" unicode="\" horiz-adv-x="933" 
d="M567 -76l-444 1286h244l442 -1286h-242z" />
    <glyph glyph-name="bracketright" unicode="]" horiz-adv-x="763" 
d="M119 -20h241v1099h-241v240h502v-1571h-502v232z" />
    <glyph glyph-name="asciicircum" unicode="^" horiz-adv-x="1120" 
d="M94 459l330 671h274l328 -671h-244l-223 463h-2l-219 -463h-244z" />
    <glyph glyph-name="underscore" unicode="_" horiz-adv-x="1024" 
d="M0 -154h1024v-102h-1024v102z" />
    <glyph glyph-name="grave" unicode="`" horiz-adv-x="614" 
d="M-14 1438h301l192 -312h-233z" />
    <glyph glyph-name="a" unicode="a" horiz-adv-x="1081" 
d="M961 592v-348q0 -167 14 -244h-281l-18 100h-6q-101 -123 -287 -123q-146 0 -235 91t-89 217q0 190 157.5 287.5t430.5 95.5v14q0 23 -7.5 43t-25.5 41t-56 33t-93 12q-73 0 -149 -22t-128 -54l-57 201q64 36 164.5 62t224.5 26q121 0 209 -33.5t137.5 -94.5t72 -136
t22.5 -168zM657 365v108q-290 4 -290 -158q0 -58 33.5 -88t88.5 -30q57 0 102 32.5t60 81.5q6 24 6 54z" />
    <glyph glyph-name="b" unicode="b" horiz-adv-x="1224" 
d="M125 299v1155h311v-571h4q45 66 123 103.5t180 37.5q182 0 298.5 -139.5t115.5 -366.5q0 -105 -25.5 -194t-70 -152t-103 -107.5t-124.5 -66t-136 -21.5q-203 0 -301 162h-4l-12 -139h-264q8 132 8 299zM436 573v-147q0 -31 6 -55q15 -64 66 -106t117 -42
q100 0 157.5 74.5t57.5 208.5q0 123 -55 200.5t-160 77.5q-64 0 -116 -43t-67 -110q-6 -27 -6 -58z" />
    <glyph glyph-name="c" unicode="c" horiz-adv-x="923" 
d="M840 256l37 -231q-106 -48 -279 -48q-243 0 -386.5 139.5t-143.5 375.5q0 111 37.5 207t108.5 168.5t181 114.5t246 42q135 0 238 -39l-50 -231q-69 30 -174 30q-122 0 -196 -78t-72 -202q0 -133 78 -207t197 -74q100 0 178 33z" />
    <glyph glyph-name="d" unicode="d" horiz-adv-x="1220" 
d="M784 1454h312v-1155q0 -163 8 -299h-277l-14 147h-4q-46 -83 -129.5 -126.5t-183.5 -43.5q-182 0 -305 143t-123 372q-1 244 129 388t319 144q91 0 160.5 -30t103.5 -83h4v543zM784 446v132q0 23 -4 55q-14 66 -63 109.5t-119 43.5q-102 0 -158.5 -80t-56.5 -204
q0 -127 58 -202t155 -75q67 0 116.5 42t63.5 108q8 31 8 71z" />
    <glyph glyph-name="e" unicode="e" horiz-adv-x="1081" 
d="M1010 401h-645q7 -92 86.5 -141t195.5 -49q149 0 277 41l41 -211q-159 -64 -363 -64q-253 0 -393.5 137.5t-140.5 374.5q0 98 31 191t90.5 171t159 125.5t224.5 47.5q94 0 170.5 -28.5t127 -76t85 -112.5t49.5 -135.5t15 -147.5q0 -66 -10 -123zM362 614h369q0 32 -8 64
t-26 65t-54.5 53.5t-87.5 20.5q-47 0 -84 -19.5t-59 -51t-34.5 -65t-15.5 -67.5z" />
    <glyph glyph-name="f" unicode="f" horiz-adv-x="698" 
d="M473 0h-313v772h-131v229h131v39q0 98 31.5 188t95.5 148q55 52 128.5 76.5t147.5 24.5q104 0 170 -25l-33 -238q-46 17 -88 17q-141 0 -141 -178v-52h201v-229h-199v-772z" />
    <glyph glyph-name="g" unicode="g" horiz-adv-x="1198" 
d="M1073 705v-560q0 -316 -151 -450q-145 -123 -408 -123q-101 0 -197.5 20.5t-162.5 57.5l61 235q53 -31 131 -53t160 -22q117 0 188.5 66t71.5 198v65h-4q-44 -63 -114 -97t-156 -34q-186 0 -305 137t-119 353q0 235 132 380.5t322 145.5q187 0 275 -141h4l10 118h270
q-8 -126 -8 -296zM762 446v148q0 33 -6 57q-18 63 -61.5 100t-106.5 37q-88 0 -146.5 -76t-58.5 -208q0 -116 54.5 -191t150.5 -75q59 0 104 35.5t60 91.5q10 29 10 81z" />
    <glyph glyph-name="h" unicode="h" horiz-adv-x="1200" 
d="M125 0v1454h311v-571h4q50 65 123 102q73 39 162 39q157 0 253.5 -110.5t96.5 -327.5v-586h-311v551q0 221 -162 221q-57 0 -97 -31t-59 -77q-10 -25 -10 -70v-594h-311z" />
    <glyph glyph-name="i" unicode="i" horiz-adv-x="561" 
d="M436 0h-311v1001h311v-1001zM281 1438q74 0 118.5 -44.5t46.5 -113.5q0 -66 -46 -111t-121 -45q-72 0 -118 45t-44 111q-2 68 44 113t120 45z" />
    <glyph glyph-name="j" unicode="j" horiz-adv-x="595" 
d="M-51 -440l-31 243q130 10 184 66q34 36 48 107.5t14 218.5v806h313v-880q0 -306 -141 -438q-132 -123 -387 -123zM322 1438q73 0 117 -44.5t46 -113.5q0 -66 -46 -111t-122 -45q-72 0 -116.5 45t-44.5 111q0 69 45.5 113.5t120.5 44.5z" />
    <glyph glyph-name="k" unicode="k" horiz-adv-x="1110" 
d="M436 1454v-874h4q34 62 72 120l203 301h375l-359 -405l410 -596h-383l-242 412l-80 -99v-313h-311v1454h311z" />
    <glyph glyph-name="l" unicode="l" horiz-adv-x="563" 
d="M125 0v1454h311v-1454h-311z" />
    <glyph glyph-name="m" unicode="m" horiz-adv-x="1761" 
d="M125 0v682q0 143 -8 319h262l14 -135h6q108 158 303 158q96 0 169.5 -45.5t105.5 -124.5h4q51 73 129 121q82 49 190 49q152 0 245 -109.5t93 -324.5v-590h-303v545q0 229 -147 229q-52 0 -90 -30.5t-54 -77.5q-12 -34 -12 -80v-586h-303v561q0 99 -36 156t-107 57
q-55 0 -92.5 -33.5t-53.5 -78.5q-12 -30 -12 -78v-584h-303z" />
    <glyph glyph-name="n" unicode="n" horiz-adv-x="1200" 
d="M125 0v682q0 143 -8 319h270l14 -137h7q40 61 119 110.5t190 49.5q161 0 259.5 -108.5t98.5 -321.5v-594h-311v555q0 217 -158 217q-60 0 -100 -34t-57 -83q-13 -33 -13 -77v-578h-311z" />
    <glyph glyph-name="o" unicode="o" horiz-adv-x="1181" 
d="M602 1024q229 0 370.5 -141t141.5 -381q0 -109 -32 -198.5t-84.5 -149t-123 -100.5t-145 -59t-151.5 -18q-143 0 -258 61.5t-183.5 181.5t-68.5 280q0 164 72.5 284.5t192 180t269.5 59.5zM592 803q-55 0 -96 -27t-63.5 -73t-33 -97t-10.5 -108q0 -128 52 -212.5
t151 -84.5q98 0 149.5 84t51.5 213q0 57 -10 108.5t-32 97t-63 72.5t-96 27z" />
    <glyph glyph-name="p" unicode="p" horiz-adv-x="1224" 
d="M125 -406v1072q0 151 -8 335h270l14 -139h5q113 162 333 162q82 0 157 -35.5t133 -99.5t92 -161.5t34 -213.5q0 -132 -39.5 -237t-105 -169t-145 -97.5t-165.5 -33.5q-88 0 -156.5 32t-103.5 83h-4v-498h-311zM436 567v-137q0 -38 6 -65q15 -64 66 -106t117 -42
q100 0 157.5 77t57.5 206q0 125 -55 202.5t-156 77.5q-66 0 -119 -44t-68 -113q-6 -24 -6 -56z" />
    <glyph glyph-name="q" unicode="q" horiz-adv-x="1218" 
d="M784 -406v531h-4q-99 -148 -297 -148q-170 0 -292.5 140t-122.5 370q0 129 39 234t102.5 169.5t141 99t159.5 34.5q195 0 278 -139h5l8 116h301q-6 -288 -6 -301v-1106h-312zM784 432v150q0 27 -6 51q-13 63 -61.5 106t-116.5 43q-104 0 -159.5 -78t-55.5 -204
q0 -127 56.5 -202t154.5 -75q65 0 115 40t65 102q8 27 8 67z" />
    <glyph glyph-name="r" unicode="r" horiz-adv-x="778" 
d="M125 0v672q0 157 -8 329h268l10 -184h8q36 101 113.5 154t157.5 53q42 0 65 -4v-295q-38 10 -84 10q-85 0 -141.5 -42t-71.5 -115q-6 -30 -6 -70v-508h-311z" />
    <glyph glyph-name="s" unicode="s" horiz-adv-x="888" 
d="M68 49l55 223q46 -28 124.5 -51.5t143.5 -23.5q133 0 133 84q0 38 -30 61.5t-117 52.5q-148 50 -217.5 128t-67.5 171q0 143 112.5 236.5t295.5 93.5q170 0 282 -57l-55 -215q-103 57 -217 57q-57 0 -88 -21.5t-31 -60.5q0 -35 34 -58.5t128 -56.5q141 -49 205.5 -123.5
t66.5 -185.5q0 -145 -113 -235.5t-321 -90.5q-190 0 -323 72z" />
    <glyph glyph-name="t" unicode="t" horiz-adv-x="751" 
d="M168 1219l305 69v-287h223v-229h-223v-362q0 -94 27 -135.5t96 -41.5q40 0 92 9l2 -236q-74 -29 -203 -29q-72 0 -133.5 24.5t-99.5 64.5q-86 89 -86 296v410h-133v229h133v218z" />
    <glyph glyph-name="u" unicode="u" horiz-adv-x="1193" 
d="M1077 0h-270l-14 141h-7q-105 -164 -313 -164q-161 0 -256.5 105.5t-95.5 331.5v587h313v-538q0 -234 156 -234q58 0 98 32.5t57 76.5q11 33 11 68v595h313v-679q0 -154 8 -322z" />
    <glyph glyph-name="v" unicode="v" horiz-adv-x="1085" 
d="M18 1001h338l136 -464q35 -117 57 -244h6q28 142 55 244l129 464h328l-373 -1001h-311z" />
    <glyph glyph-name="w" unicode="w" horiz-adv-x="1554" 
d="M23 1001h317l80 -409q38 -195 57 -330h4q21 119 74 328l107 411h245l101 -399q51 -213 73 -340h4q16 133 58 342l86 397h305l-307 -1001h-293l-94 352q-38 148 -64 312h-4q-26 -178 -65 -312l-101 -352h-293z" />
    <glyph glyph-name="x" unicode="x" horiz-adv-x="1062" 
d="M14 1001h348l99 -165q14 -25 41 -75.5t41 -74.5h4q5 9 33.5 67t44.5 87l88 161h338l-330 -477l334 -524h-353l-100 180q-20 34 -78 152h-6q-19 -40 -76 -152l-94 -180h-342l340 510z" />
    <glyph glyph-name="y" unicode="y" horiz-adv-x="1071" 
d="M12 1001h346l150 -491q42 -154 49 -186h6q8 31 24.5 101t20.5 85l123 491h334l-234 -659q-103 -287 -183 -432.5t-169 -224.5q-135 -117 -301 -138l-65 265q65 10 135 53q78 42 129 125q16 22 16 45q0 22 -14 51z" />
    <glyph glyph-name="z" unicode="z" horiz-adv-x="960" 
d="M45 0v178l315 395q63 75 160 179v4h-440v245h819v-186l-301 -379q-110 -131 -164 -184v-4h481v-248h-870z" />
    <glyph glyph-name="braceleft" unicode="{" horiz-adv-x="894" 
d="M336 80v190q0 92 -43.5 126t-169.5 34v227q120 0 166.5 39t46.5 133v156q0 70 22 129.5t69.5 110t132.5 80t200 30.5l6 -229q-99 -10 -136.5 -57t-37.5 -125q0 -14 1 -56t1 -55q0 -100 -50 -169t-157 -93v-6q114 -19 159.5 -84.5t47.5 -167.5l-2 -154q0 -86 39 -130.5
t143 -51.5l-2 -233q-220 2 -328 84.5t-108 271.5z" />
    <glyph glyph-name="bar" unicode="|" horiz-adv-x="579" 
d="M180 1536h217v-2048h-217v2048z" />
    <glyph glyph-name="braceright" unicode="}" horiz-adv-x="899" 
d="M127 -43q52 4 88.5 26t54.5 55t25.5 66.5t7.5 71.5q0 15 -1 51t-1 49q0 100 50 169.5t155 93.5v6q-59 9 -100.5 32t-63 58.5t-31 74t-10.5 87.5l2 123q0 88 -38.5 131.5t-145.5 50.5l2 233q221 -2 329.5 -84t108.5 -270v-164q0 -91 44 -125.5t169 -34.5v-227
q-120 0 -166.5 -38t-46.5 -132v-184q0 -69 -22 -128.5t-69.5 -110.5t-133 -80.5t-201.5 -30.5z" />
    <glyph glyph-name="asciitilde" unicode="~" horiz-adv-x="1220" 
d="M283 393h-195q-1 196 76 289.5t209 93.5q70 0 130 -22t156 -76q58 -31 83 -44t57 -24.5t55 -11.5q38 0 59 38.5t25 127.5h195q8 -205 -67.5 -296t-205.5 -91q-68 0 -130 23t-157 75q-58 34 -82.5 47.5t-56.5 26t-55 12.5q-42 0 -66 -37t-30 -131z" />
    <glyph glyph-name="uni00A0" unicode="&#xa0;" horiz-adv-x="413" 
 />
    <glyph glyph-name="exclamdown" unicode="&#xa1;" horiz-adv-x="618" 
d="M401 635q1 -11 10.5 -82t18 -141t16 -159.5t7.5 -148.5v-149h-351v141q0 112 20.5 280t35.5 259h243zM467 934q0 -85 -52.5 -135.5t-133.5 -50.5q-83 0 -135 52t-52 134q0 83 49.5 134.5t137.5 51.5q81 0 133.5 -50.5t52.5 -135.5z" />
    <glyph glyph-name="cent" unicode="&#xa2;" horiz-adv-x="1130" 
d="M770 -106h-201v200q-190 29 -303 158q-114 129 -114 336q0 190 110.5 331.5t306.5 180.5v196h203v-186q111 -7 195 -41l-49 -238q-72 37 -191 37q-123 0 -194.5 -72.5t-71.5 -195.5q0 -131 76 -199.5t192 -68.5q119 0 211 37l37 -230q-84 -43 -207 -49v-196z" />
    <glyph glyph-name="sterling" unicode="&#xa3;" horiz-adv-x="1130" 
d="M1040 0h-929v166q213 83 213 260q0 34 -7 74h-184v211h164q-1 10 -4.5 44t-3.5 60q0 191 118.5 302.5t323.5 111.5q79 0 149 -15t107 -36l-55 -240q-73 43 -180 43q-172 0 -172 -178q0 -38 8 -92h282v-211h-270q4 -62 -21 -135t-83 -111h544v-254z" />
    <glyph glyph-name="currency" unicode="&#xa4;" horiz-adv-x="1150" 
d="M575 1008q140 0 238 -72l158 170l135 -139l-178 -160q65 -111 65 -238q0 -148 -69 -247l172 -166l-133 -136l-152 179q-46 -38 -111 -59t-129 -21t-129 20.5t-108 57.5l-148 -177l-133 136l170 161q-73 105 -73 246q0 136 71 244l-178 158l137 143l158 -176q95 76 237 76
zM571 799q-81 0 -134.5 -65t-53.5 -169q0 -113 58 -176t130 -63q77 0 134 62.5t57 178.5q0 100 -54 166t-137 66z" />
    <glyph glyph-name="yen" unicode="&#xa5;" horiz-adv-x="1130" 
d="M147 301v150h256v108h-256v150h199l-334 503h350l109 -221q50 -108 92 -209h2q17 42 92 209l107 219h338l-340 -501h199v-150h-263v-108h263v-150h-263v-301h-295v301h-256z" />
    <glyph glyph-name="brokenbar" unicode="&#xa6;" horiz-adv-x="579" 
d="M180 356h217v-716h-217v716zM180 1380h217v-716h-217v716z" />
    <glyph glyph-name="section" unicode="&#xa7;" horiz-adv-x="1132" 
d="M575 373q96 -28 156 -60q25 15 40 43.5t15 59.5t-20 57.5t-61.5 50t-77.5 39t-95 37.5q-122 47 -139 55q-29 -15 -49 -43t-20 -61q0 -25 15.5 -47.5t35.5 -39t58.5 -34.5t66 -29t75.5 -28zM223 16q48 -30 139 -58t170 -28q158 0 158 82q0 45 -47.5 73t-165.5 65
q-71 23 -123 44t-104.5 52t-85.5 65.5t-53.5 83t-20.5 105.5q0 72 41.5 137.5t120.5 103.5q-31 29 -53.5 79.5t-22.5 103.5q0 142 121 223.5t309 81.5q180 0 312 -60l-48 -202q-116 55 -268 55q-168 0 -168 -84q0 -37 43 -59.5t160 -61.5q8 -3 12 -4q88 -29 148 -56.5
t114.5 -68t81.5 -96.5t27 -129q0 -76 -37.5 -139.5t-101.5 -102.5q34 -28 59 -75t25 -107q0 -70 -28.5 -126t-73 -91t-103.5 -58.5t-117 -33t-117 -9.5q-229 0 -368 89z" />
    <glyph glyph-name="dieresis" unicode="&#xa8;" horiz-adv-x="614" 
d="M94 1141q-62 0 -104.5 42t-42.5 101q0 63 42.5 104.5t104.5 41.5q59 0 99 -41.5t40 -104.5q0 -59 -40 -101t-99 -42zM524 1141q-62 0 -103.5 42t-41.5 101q0 63 41.5 104.5t103.5 41.5q60 0 101 -41.5t41 -104.5q0 -59 -40.5 -101t-101.5 -42z" />
    <glyph glyph-name="copyright" unicode="&#xa9;" horiz-adv-x="1505" 
d="M131 557q0 175 79 321t223 232t323 86q133 0 249 -50.5t196.5 -136t126.5 -203.5t46 -249q0 -176 -77.5 -322.5t-220 -233.5t-320.5 -87q-175 0 -318 82t-225 229.5t-82 331.5zM254 555q0 -143 66.5 -257.5t181 -177.5t252.5 -63q219 0 357 133t138 367q0 213 -144 355.5
t-351 142.5q-220 0 -360 -140t-140 -360zM428 547q0 164 109.5 263t271.5 99q149 0 215 -47l-45 -160q-72 37 -170 37q-95 0 -148 -49t-53 -137q0 -84 54.5 -135t144.5 -51q108 0 174 34l39 -151q-86 -57 -229 -57q-169 0 -266 100t-97 254z" />
    <glyph glyph-name="ordfeminine" unicode="&#xaa;" horiz-adv-x="755" 
d="M670 502h-181q-2 11 -7 32.5t-7 32.5h-4q-81 -78 -199 -75q-95 0 -148.5 55t-53.5 141q0 114 101.5 173t283.5 59v6q0 8 -4.5 17t-16 20t-37.5 18.5t-63 7.5q-100 0 -176 -51l-41 149q108 64 256 64q78 0 135.5 -22.5t89.5 -63t46.5 -89t14.5 -106.5v-213q0 -104 11 -155
zM463 727v49q-199 0 -199 -71q0 -23 23.5 -38.5t60.5 -15.5q32 0 62.5 13t42.5 32q10 20 10 31z" />
    <glyph glyph-name="guillemotleft" unicode="&#xab;" horiz-adv-x="1402" 
d="M166 451v194l493 367v-264l-270 -201l270 -203v-266zM743 451v194l494 367v-264l-270 -201l270 -203v-266z" />
    <glyph glyph-name="logicalnot" unicode="&#xac;" horiz-adv-x="1220" 
d="M82 864h1057v-647h-199v457h-858v190z" />
    <glyph glyph-name="uni00AD" unicode="&#xad;" horiz-adv-x="708" 
d="M80 696h549v-260h-549v260z" />
    <glyph glyph-name="registered" unicode="&#xae;" horiz-adv-x="911" 
d="M307 618v324q69 12 148 12q94 0 133 -24q35 -24 35 -74q0 -22 -21.5 -42.5t-54.5 -29.5v-4q52 -14 67 -84q13 -61 23 -78h-117q-10 12 -22 70q-9 45 -54 45h-30v-115h-107zM418 805h26q27 0 42.5 10.5t15.5 28.5q0 37 -53 37q-7 0 -18 -1t-13 -1v-74zM457 418
q-148 0 -253.5 107t-105.5 259t105.5 259.5t253.5 107.5q149 0 252.5 -107t103.5 -260t-103.5 -259.5t-252.5 -106.5zM457 520q109 0 182.5 76.5t73.5 187.5t-73.5 189t-182.5 78t-182.5 -78t-73.5 -189t73.5 -187.5t182.5 -76.5z" />
    <glyph glyph-name="macron" unicode="&#xaf;" horiz-adv-x="614" 
d="M25 1380h567v-192h-567v192z" />
    <glyph glyph-name="degree" unicode="&#xb0;" horiz-adv-x="737" 
d="M369 537q-130 0 -213.5 88t-83.5 215q0 129 85.5 219t211.5 90q131 0 214 -89t83 -216q0 -130 -87.5 -218.5t-209.5 -88.5zM369 711q61 0 99 37.5t38 93.5q0 54 -36.5 92.5t-100.5 38.5q-62 0 -101 -39t-39 -92q0 -55 39.5 -93t100.5 -38z" />
    <glyph glyph-name="plusminus" unicode="&#xb1;" horiz-adv-x="1220" 
d="M510 1186h201v-355h428v-190h-428v-360h-201v360h-428v190h428v355zM82 190h1057v-190h-1057v190z" />
    <glyph glyph-name="twosuperior" unicode="&#xb2;" horiz-adv-x="786" 
d="M82 451v147q156 78 244 165.5t86 158.5q0 84 -103 84q-81 0 -178 -54l-55 191q113 84 291 84q138 0 218.5 -70.5t80.5 -191.5q0 -87 -57 -172.5t-160 -145.5q51 6 243 6v-202h-610z" />
    <glyph glyph-name="threesuperior" unicode="&#xb3;" horiz-adv-x="776" 
d="M76 487l41 197q30 -19 94 -35t113 -16q120 0 120 47q0 26 -38 39.5t-101 13.5h-86v193h82q66 0 94.5 9.5t28.5 35.5q0 45 -96 45q-46 0 -105 -15.5t-92 -31.5l-41 186q44 26 121.5 45t157.5 19q143 0 221 -57t78 -150q0 -57 -33.5 -102.5t-93.5 -65.5v-2
q153 -42 153 -183q0 -104 -98.5 -166.5t-249.5 -62.5q-185 0 -270 57z" />
    <glyph glyph-name="acute" unicode="&#xb4;" horiz-adv-x="614" 
d="M338 1438h309l-264 -312h-242z" />
    <glyph glyph-name="uni00B5" unicode="&#xb5;" horiz-adv-x="1198" 
d="M801 137h-6q-28 -61 -93 -106t-155 -45q-88 0 -141 59v-86q0 -258 22 -365h-276q-27 74 -27 363v1044h311v-559q0 -102 39 -158.5t113 -56.5q56 0 100.5 34t61.5 77q10 30 10 68v595h311v-675q0 -63 20 -88t66 -27l-18 -215q-40 -19 -111 -19q-179 0 -227 160z" />
    <glyph glyph-name="paragraph" unicode="&#xb6;" horiz-adv-x="1191" 
d="M459 301q-40 1 -86.5 16t-96 47.5t-89 78t-66 115t-27.5 151.5q-1 75 15.5 140.5t60.5 130.5t112.5 111t181 74.5t257.5 28.5q191 0 299 -23v-1427h-209v1227h-145v-1227h-207v557z" />
    <glyph glyph-name="periodcentered" unicode="&#xb7;" horiz-adv-x="593" 
d="M111 592q0 85 52.5 135.5t133.5 50.5q83 0 134.5 -52t51.5 -134q0 -84 -49.5 -135t-136.5 -51q-81 0 -133.5 50.5t-52.5 135.5z" />
    <glyph glyph-name="cedilla" unicode="&#xb8;" horiz-adv-x="614" 
d="M252 8h166l-47 -98q63 -15 105 -57.5t42 -108.5q0 -52 -21 -90.5t-57.5 -59.5t-77.5 -30.5t-88 -9.5q-112 0 -174 38l39 127q48 -28 117 -28q74 0 74 51q-2 31 -40 49t-122 27z" />
    <glyph glyph-name="onesuperior" unicode="&#xb9;" horiz-adv-x="686" 
d="M287 449v538l-144 -65l-65 180l237 108h217v-761h-245z" />
    <glyph glyph-name="ordmasculine" unicode="&#xba;" horiz-adv-x="784" 
d="M395 1151q149 0 238.5 -94t89.5 -230q0 -160 -97 -247.5t-237 -87.5q-141 0 -234.5 88.5t-93.5 234.5q0 149 92.5 242.5t241.5 93.5zM391 963q-63 0 -94 -41.5t-31 -104.5q0 -64 34 -101.5t93 -37.5q60 0 93.5 36.5t33.5 108.5q0 61 -34.5 100.5t-94.5 39.5z" />
    <glyph glyph-name="guillemotright" unicode="&#xbb;" horiz-adv-x="1402" 
d="M743 78v262l271 203l-271 202v267l494 -373v-195zM166 78v262l270 203l-270 202v267l493 -373v-195z" />
    <glyph glyph-name="onequarter" unicode="&#xbc;" horiz-adv-x="1849" 
d="M401 -20l732 1243h225l-727 -1246zM287 449v538l-144 -65l-63 180l235 108h217v-761h-245zM1042 162v166l326 434h277v-412h94v-188h-94v-162h-224v162h-379zM1264 350h157v56q0 70 4 176z" />
    <glyph glyph-name="onehalf" unicode="&#xbd;" horiz-adv-x="1882" 
d="M1171 0v150q156 76 244 163t86 158q0 84 -102 84q-90 0 -178 -53l-56 190q115 86 293 86q137 0 218 -71.5t81 -192.5q0 -86 -57.5 -171.5t-161.5 -145.5q52 6 244 6v-203h-611zM287 449v538l-144 -65l-63 180l235 108h217v-761h-245zM401 -20l729 1243h228l-727 -1246z
" />
    <glyph glyph-name="threequarters" unicode="&#xbe;" horiz-adv-x="1916" 
d="M92 487l41 197q31 -19 95.5 -35t111.5 -16q121 0 121 47q0 26 -38 39.5t-101 13.5h-86v193h81q66 0 95.5 9.5t29.5 35.5q0 45 -98 45q-47 0 -105 -15.5t-89 -31.5l-44 186q44 26 122 45t159 19q141 0 219 -57t78 -150q0 -57 -33.5 -102.5t-93.5 -65.5v-2
q154 -43 154 -183q0 -104 -99 -166.5t-250 -62.5q-182 0 -270 57zM1112 162v166l326 434h274v-412h94v-188h-94v-162h-221v162h-379zM1331 350h160v56q0 123 2 176zM481 -20l731 1243h226l-727 -1246z" />
    <glyph glyph-name="questiondown" unicode="&#xbf;" horiz-adv-x="1009" 
d="M645 700q33 -46 33 -108q0 -36 -18 -69t-44.5 -56.5t-57.5 -47t-57.5 -40.5t-44.5 -36t-18 -36q0 -33 34.5 -52t96.5 -19q124 0 254 65l51 -260q-149 -76 -346 -76t-297 84t-100 223q0 64 26.5 117t64 86.5t75 61t64 52.5t26.5 48t-16 63h274zM696 965q0 -85 -51.5 -136
t-132.5 -51q-84 0 -136 52.5t-52 134.5q0 83 50 134.5t138 51.5q80 0 132 -50.5t52 -135.5z" />
    <glyph glyph-name="Agrave" unicode="&#xc0;" horiz-adv-x="1343" 
d="M852 354h-395l-99 -354h-323l422 1380h409l428 -1380h-336zM502 588h305l-86 293q-26 84 -70 266h-4q-5 -19 -27.5 -119t-35.5 -147zM305 1706h344l174 -248h-274z" />
    <glyph glyph-name="Aacute" unicode="&#xc1;" horiz-adv-x="1343" 
d="M852 354h-395l-99 -354h-323l422 1380h409l428 -1380h-336zM502 588h305l-86 293q-26 84 -70 266h-4q-5 -19 -27.5 -119t-35.5 -147zM682 1706h344l-244 -252h-274z" />
    <glyph glyph-name="Acircumflex" unicode="&#xc2;" horiz-adv-x="1343" 
d="M852 354h-395l-99 -354h-323l422 1380h409l428 -1380h-336zM502 588h305l-86 293q-26 84 -70 266h-4q-5 -19 -27.5 -119t-35.5 -147zM541 1706h262l207 -252h-234l-102 127h-4l-103 -127h-231z" />
    <glyph glyph-name="Atilde" unicode="&#xc3;" horiz-adv-x="1343" 
d="M852 354h-395l-99 -354h-323l422 1380h409l428 -1380h-336zM502 588h305l-86 293q-26 84 -70 266h-4q-5 -19 -27.5 -119t-35.5 -147zM514 1470h-168q-4 142 48 216.5t143 74.5q73 0 151 -45q73 -43 100 -43q29 0 41.5 19.5t18.5 76.5h164q6 -153 -44 -220.5t-147 -67.5
q-32 0 -62 7.5t-49 16t-51 25.5q-5 3 -16.5 9t-15.5 8l-12 6t-12 5.5t-10.5 3.5t-12 2.5t-11.5 0.5q-49 0 -55 -95z" />
    <glyph glyph-name="Adieresis" unicode="&#xc4;" horiz-adv-x="1343" 
d="M852 354h-395l-99 -354h-323l422 1380h409l428 -1380h-336zM502 588h305l-86 293q-26 84 -70 266h-4q-5 -19 -27.5 -119t-35.5 -147zM463 1460q-63 0 -105.5 42t-42.5 102q0 61 43 102t105 41q59 0 99 -40.5t40 -102.5q0 -61 -39.5 -102.5t-99.5 -41.5zM895 1460
q-62 0 -102.5 41.5t-40.5 102.5q0 62 41 102.5t104 40.5q60 0 99.5 -40t39.5 -103q0 -61 -40 -102.5t-101 -41.5z" />
    <glyph glyph-name="Aring" unicode="&#xc5;" horiz-adv-x="1343" 
d="M852 354h-395l-99 -354h-323l422 1380h409l428 -1380h-336zM502 588h305l-86 293q-26 84 -70 266h-4q-5 -19 -27.5 -119t-35.5 -147zM666 1438q-116 0 -182 55.5t-66 144.5q0 87 66 144t182 57q114 0 178.5 -55t64.5 -144q0 -91 -65.5 -146.5t-177.5 -55.5zM662 1550
q44 0 68 25.5t24 62.5q0 35 -24.5 63t-67.5 28q-40 0 -63.5 -28t-23.5 -63t22.5 -61.5t64.5 -26.5z" />
    <glyph glyph-name="AE" unicode="&#xc6;" horiz-adv-x="1777" 
d="M326 0h-322l590 1380h1051v-256h-568l37 -293h522v-253h-481l41 -322h524v-256h-792l-49 377h-402zM569 627h275l-41 334q-14 109 -25 200h-6q-12 -36 -36.5 -105.5t-33.5 -97.5z" />
    <glyph glyph-name="Ccedilla" unicode="&#xc7;" horiz-adv-x="1218" 
d="M1102 283l47 -244q-115 -56 -330 -62l-33 -67q64 -15 107 -57.5t43 -110.5q0 -67 -38.5 -111t-91 -60.5t-116.5 -16.5q-108 0 -174 38l39 127q54 -28 117 -28q71 0 71 49q0 32 -37 50.5t-122 27.5l73 168q-282 39 -433.5 224.5t-151.5 459.5q0 138 38 256.5t106.5 205
t162.5 147.5t207 91.5t239 30.5q113 0 203.5 -18t136.5 -42l-63 -247q-119 51 -262 51q-127 0 -224.5 -49t-157 -154t-59.5 -254q0 -208 117.5 -329t325.5 -121q150 0 260 45z" />
    <glyph glyph-name="Egrave" unicode="&#xc8;" horiz-adv-x="1093" 
d="M956 838v-254h-507v-328h567v-256h-881v1380h852v-256h-538v-286h507zM219 1706h344l174 -248h-274z" />
    <glyph glyph-name="Eacute" unicode="&#xc9;" horiz-adv-x="1093" 
d="M956 838v-254h-507v-328h567v-256h-881v1380h852v-256h-538v-286h507zM584 1706h344l-244 -252h-274z" />
    <glyph glyph-name="Ecircumflex" unicode="&#xca;" horiz-adv-x="1093" 
d="M956 838v-254h-507v-328h567v-256h-881v1380h852v-256h-538v-286h507zM440 1706h262l207 -252h-233l-103 127h-4l-102 -127h-231z" />
    <glyph glyph-name="Edieresis" unicode="&#xcb;" horiz-adv-x="1093" 
d="M956 838v-254h-507v-328h567v-256h-881v1380h852v-256h-538v-286h507zM340 1462q-63 0 -105 42t-42 102q0 61 42.5 102t104.5 41q59 0 99 -40.5t40 -102.5q0 -61 -39.5 -102.5t-99.5 -41.5zM772 1462q-62 0 -102.5 41.5t-40.5 102.5q0 62 41 102.5t104 40.5
q60 0 99.5 -40t39.5 -103q0 -61 -40 -102.5t-101 -41.5z" />
    <glyph glyph-name="Igrave" unicode="&#xcc;" horiz-adv-x="583" 
d="M135 1380h314v-1380h-314v1380zM-63 1706h344l174 -248h-275z" />
    <glyph glyph-name="Iacute" unicode="&#xcd;" horiz-adv-x="583" 
d="M135 1380h314v-1380h-314v1380zM303 1706h344l-244 -252h-274z" />
    <glyph glyph-name="Icircumflex" unicode="&#xce;" horiz-adv-x="583" 
d="M135 1380h314v-1380h-314v1380zM160 1706h262l207 -252h-234l-102 127h-4l-103 -127h-231z" />
    <glyph glyph-name="Idieresis" unicode="&#xcf;" horiz-adv-x="583" 
d="M135 1380h314v-1380h-314v1380zM76 1462q-63 0 -105.5 42t-42.5 102q0 61 43 102t105 41q59 0 99 -40.5t40 -102.5q0 -61 -39.5 -102.5t-99.5 -41.5zM508 1462q-62 0 -102.5 41.5t-40.5 102.5q0 62 41 102.5t104 40.5q60 0 99.5 -40t39.5 -103q0 -61 -40 -102.5
t-101 -41.5z" />
    <glyph glyph-name="Eth" unicode="&#xd0;" horiz-adv-x="1441" 
d="M6 582v243h146v541q185 29 421 29q195 0 330.5 -34.5t235.5 -109.5q110 -82 170.5 -214.5t60.5 -311.5q0 -372 -227 -565q-216 -180 -637 -180q-198 0 -354 20v582h-146zM737 825v-243h-274v-353q29 -4 108 -4q222 0 345.5 121.5t123.5 368.5q0 219 -114.5 329.5
t-321.5 110.5q-83 0 -141 -12v-318h274z" />
    <glyph glyph-name="Ntilde" unicode="&#xd1;" horiz-adv-x="1413" 
d="M422 0h-287v1380h365l286 -506q133 -235 226 -473h6q-27 246 -27 578v401h287v-1380h-328l-295 532q-138 247 -239 488l-6 -2q12 -273 12 -602v-416zM547 1470h-168q-4 142 47.5 216.5t142.5 74.5q74 0 152 -45q73 -43 100 -43q29 0 41.5 19.5t18.5 76.5h163
q6 -153 -43.5 -220.5t-146.5 -67.5q-32 0 -62 7.5t-49 16t-51 25.5q-5 3 -16.5 9t-15.5 8l-12 6t-12 5.5t-10.5 3.5t-12 2.5t-11.5 0.5q-49 0 -55 -95z" />
    <glyph glyph-name="Ograve" unicode="&#xd2;" horiz-adv-x="1468" 
d="M750 1403q204 0 352.5 -94.5t222.5 -253.5t74 -363q0 -169 -53.5 -306t-146 -225.5t-214.5 -136t-262 -47.5q-295 0 -473 195t-178 508q0 212 84.5 376.5t239 255.5t354.5 91zM737 1155q-106 0 -183.5 -64t-115 -168.5t-37.5 -234.5q0 -201 89 -332t245 -131
q107 0 184 64.5t113.5 167.5t36.5 231q0 90 -20 171.5t-59.5 148.5t-104.5 107t-148 40zM379 1708h344l174 -248h-274z" />
    <glyph glyph-name="Oacute" unicode="&#xd3;" horiz-adv-x="1468" 
d="M750 1403q204 0 352.5 -94.5t222.5 -253.5t74 -363q0 -169 -53.5 -306t-146 -225.5t-214.5 -136t-262 -47.5q-295 0 -473 195t-178 508q0 212 84.5 376.5t239 255.5t354.5 91zM737 1155q-106 0 -183.5 -64t-115 -168.5t-37.5 -234.5q0 -201 89 -332t245 -131
q107 0 184 64.5t113.5 167.5t36.5 231q0 90 -20 171.5t-59.5 148.5t-104.5 107t-148 40zM756 1708h344l-244 -252h-274z" />
    <glyph glyph-name="Ocircumflex" unicode="&#xd4;" horiz-adv-x="1468" 
d="M750 1403q204 0 352.5 -94.5t222.5 -253.5t74 -363q0 -169 -53.5 -306t-146 -225.5t-214.5 -136t-262 -47.5q-295 0 -473 195t-178 508q0 212 84.5 376.5t239 255.5t354.5 91zM737 1155q-106 0 -183.5 -64t-115 -168.5t-37.5 -234.5q0 -201 89 -332t245 -131
q107 0 184 64.5t113.5 167.5t36.5 231q0 90 -20 171.5t-59.5 148.5t-104.5 107t-148 40zM604 1708h262l207 -252h-233l-103 127h-4l-102 -127h-232z" />
    <glyph glyph-name="Otilde" unicode="&#xd5;" horiz-adv-x="1468" 
d="M750 1403q204 0 352.5 -94.5t222.5 -253.5t74 -363q0 -169 -53.5 -306t-146 -225.5t-214.5 -136t-262 -47.5q-295 0 -473 195t-178 508q0 212 84.5 376.5t239 255.5t354.5 91zM737 1155q-106 0 -183.5 -64t-115 -168.5t-37.5 -234.5q0 -201 89 -332t245 -131
q107 0 184 64.5t113.5 167.5t36.5 231q0 90 -20 171.5t-59.5 148.5t-104.5 107t-148 40zM571 1470h-168q-4 142 48 216.5t143 74.5q73 0 151 -45q73 -43 101 -43t40.5 19.5t18.5 76.5h164q6 -153 -43.5 -220.5t-146.5 -67.5q-32 0 -62 7.5t-49 16t-51 25.5q-5 3 -16.5 9
t-15.5 8l-12 6t-12 5.5t-10.5 3.5t-12 2.5t-11.5 0.5q-50 0 -56 -95z" />
    <glyph glyph-name="Odieresis" unicode="&#xd6;" horiz-adv-x="1468" 
d="M750 1403q204 0 352.5 -94.5t222.5 -253.5t74 -363q0 -169 -53.5 -306t-146 -225.5t-214.5 -136t-262 -47.5q-295 0 -473 195t-178 508q0 212 84.5 376.5t239 255.5t354.5 91zM737 1155q-106 0 -183.5 -64t-115 -168.5t-37.5 -234.5q0 -201 89 -332t245 -131
q107 0 184 64.5t113.5 167.5t36.5 231q0 90 -20 171.5t-59.5 148.5t-104.5 107t-148 40zM520 1462q-63 0 -105 42t-42 102q0 61 42.5 102t104.5 41q59 0 99 -40.5t40 -102.5q0 -61 -39.5 -102.5t-99.5 -41.5zM952 1462q-62 0 -102.5 41.5t-40.5 102.5q0 62 41 102.5
t104 40.5q60 0 100 -40t40 -103q0 -61 -40.5 -102.5t-101.5 -41.5z" />
    <glyph glyph-name="multiply" unicode="&#xd7;" horiz-adv-x="1220" 
d="M82 940l133 137l395 -403l396 403l133 -137l-394 -401l394 -402l-135 -137l-394 401l-393 -401l-135 137l393 402z" />
    <glyph glyph-name="Oslash" unicode="&#xd8;" horiz-adv-x="1468" 
d="M322 -115l-168 133l108 152q-92 97 -141 230.5t-49 287.5q0 202 82 364.5t234.5 256.5t348.5 94q170 0 305 -72l101 144l176 -119l-102 -150q89 -95 135.5 -227t46.5 -281q0 -166 -50 -302.5t-138.5 -227.5t-210.5 -141t-265 -50q-161 0 -295 70zM440 438l457 670
q-70 51 -160 51q-163 0 -257.5 -130.5t-94.5 -338.5q0 -135 53 -252h2zM1034 930l-450 -662q62 -47 151 -47q161 0 255.5 130t94.5 343q0 118 -45 234z" />
    <glyph glyph-name="Ugrave" unicode="&#xd9;" horiz-adv-x="1396" 
d="M133 1380h313v-798q0 -175 64.5 -265t185.5 -90q254 0 254 355v798h312v-778q0 -313 -150 -469t-426 -156q-553 0 -553 629v774zM348 1706h344l174 -248h-274z" />
    <glyph glyph-name="Uacute" unicode="&#xda;" horiz-adv-x="1396" 
d="M133 1380h313v-798q0 -175 64.5 -265t185.5 -90q254 0 254 355v798h312v-778q0 -313 -150 -469t-426 -156q-553 0 -553 629v774zM705 1706h344l-244 -252h-275z" />
    <glyph glyph-name="Ucircumflex" unicode="&#xdb;" horiz-adv-x="1396" 
d="M133 1380h313v-798q0 -175 64.5 -265t185.5 -90q254 0 254 355v798h312v-778q0 -313 -150 -469t-426 -156q-553 0 -553 629v774zM588 1706h262l207 -252h-234l-102 127h-4l-103 -127h-231z" />
    <glyph glyph-name="Udieresis" unicode="&#xdc;" horiz-adv-x="1396" 
d="M133 1380h313v-798q0 -175 64.5 -265t185.5 -90q254 0 254 355v798h312v-778q0 -313 -150 -469t-426 -156q-553 0 -553 629v774zM496 1462q-63 0 -105.5 42t-42.5 102q0 61 43 102t105 41q59 0 99 -40.5t40 -102.5q0 -61 -39.5 -102.5t-99.5 -41.5zM928 1462
q-62 0 -103 41.5t-41 102.5q0 62 41.5 102.5t104.5 40.5q60 0 99.5 -40t39.5 -103q0 -61 -40 -102.5t-101 -41.5z" />
    <glyph glyph-name="Yacute" unicode="&#xdd;" horiz-adv-x="1234" 
d="M766 0h-311v565l-437 815h357l141 -331q41 -96 107 -265h4q43 119 104 265l139 331h351l-455 -805v-575zM645 1702h344l-244 -252h-274z" />
    <glyph glyph-name="Thorn" unicode="&#xde;" horiz-adv-x="1187" 
d="M135 0v1380h309v-258q111 6 168 6q249 0 379 -110q133 -114 133 -299q0 -99 -28 -178.5t-77.5 -133t-118.5 -89.5t-148 -52t-170 -16q-98 0 -138 6v-256h-309zM444 883v-383q41 -8 127 -8q122 0 184 54.5t62 147.5q0 95 -62 146t-175 51q-90 0 -136 -8z" />
    <glyph glyph-name="germandbls" unicode="&#xdf;" horiz-adv-x="1228" 
d="M436 0h-311v883q0 320 158 465q135 129 368 129q190 0 315.5 -104.5t125.5 -274.5q0 -47 -13.5 -93t-36.5 -75q-62 -27 -94.5 -65t-32.5 -77q0 -34 19 -63.5t61 -73.5q33 -35 45 -48t40.5 -50.5t41 -65t24 -70t11.5 -87.5q0 -160 -109.5 -256.5t-302.5 -96.5
q-140 0 -219 33l39 230q67 -29 142 -29q64 0 100.5 30t36.5 76q0 35 -17.5 66.5t-56.5 73.5q-3 3 -26 26.5t-29.5 30.5t-27 30t-28 35.5t-21.5 36t-20 41.5t-11 42.5t-5 48.5q0 150 176 253q15 43 15 72q0 72 -44 119t-116 47q-197 0 -197 -328v-911z" />
    <glyph glyph-name="agrave" unicode="&#xe0;" horiz-adv-x="1081" 
d="M961 592v-348q0 -167 14 -244h-281l-18 100h-6q-101 -123 -287 -123q-146 0 -235 91t-89 217q0 190 157.5 287.5t430.5 95.5v14q0 23 -7.5 43t-25.5 41t-56 33t-93 12q-73 0 -149 -22t-128 -54l-57 201q64 36 164.5 62t224.5 26q121 0 209 -33.5t137.5 -94.5t72 -136
t22.5 -168zM657 365v108q-290 4 -290 -158q0 -58 33.5 -88t88.5 -30q57 0 102 32.5t60 81.5q6 24 6 54zM182 1438h301l193 -312h-234z" />
    <glyph glyph-name="aacute" unicode="&#xe1;" horiz-adv-x="1081" 
d="M961 592v-348q0 -167 14 -244h-281l-18 100h-6q-101 -123 -287 -123q-146 0 -235 91t-89 217q0 190 157.5 287.5t430.5 95.5v14q0 23 -7.5 43t-25.5 41t-56 33t-93 12q-73 0 -149 -22t-128 -54l-57 201q64 36 164.5 62t224.5 26q121 0 209 -33.5t137.5 -94.5t72 -136
t22.5 -168zM657 365v108q-290 4 -290 -158q0 -58 33.5 -88t88.5 -30q57 0 102 32.5t60 81.5q6 24 6 54zM584 1438h309l-264 -312h-242z" />
    <glyph glyph-name="acircumflex" unicode="&#xe2;" horiz-adv-x="1081" 
d="M961 592v-348q0 -167 14 -244h-281l-18 100h-6q-101 -123 -287 -123q-146 0 -235 91t-89 217q0 190 157.5 287.5t430.5 95.5v14q0 23 -7.5 43t-25.5 41t-56 33t-93 12q-73 0 -149 -22t-128 -54l-57 201q64 36 164.5 62t224.5 26q121 0 209 -33.5t137.5 -94.5t72 -136
t22.5 -168zM657 365v108q-290 4 -290 -158q0 -58 33.5 -88t88.5 -30q57 0 102 32.5t60 81.5q6 24 6 54zM416 1434h235l211 -299h-217l-110 161h-5l-108 -161h-217z" />
    <glyph glyph-name="atilde" unicode="&#xe3;" horiz-adv-x="1081" 
d="M961 592v-348q0 -167 14 -244h-281l-18 100h-6q-101 -123 -287 -123q-146 0 -235 91t-89 217q0 190 157.5 287.5t430.5 95.5v14q0 23 -7.5 43t-25.5 41t-56 33t-93 12q-73 0 -149 -22t-128 -54l-57 201q64 36 164.5 62t224.5 26q121 0 209 -33.5t137.5 -94.5t72 -136
t22.5 -168zM657 365v108q-290 4 -290 -158q0 -58 33.5 -88t88.5 -30q57 0 102 32.5t60 81.5q6 24 6 54zM358 1157h-157q-6 141 44 209t138 68q61 0 145 -48l27 -15t27.5 -14.5t22 -9t22.5 -4.5q26 0 40.5 18t18.5 73h160q0 -150 -48 -214.5t-136 -64.5q-29 0 -56 7t-45 15.5
t-51 26.5q-62 35 -84 38q-6 1 -12 1q-26 0 -39.5 -17t-16.5 -69z" />
    <glyph glyph-name="adieresis" unicode="&#xe4;" horiz-adv-x="1081" 
d="M961 592v-348q0 -167 14 -244h-281l-18 100h-6q-101 -123 -287 -123q-146 0 -235 91t-89 217q0 190 157.5 287.5t430.5 95.5v14q0 23 -7.5 43t-25.5 41t-56 33t-93 12q-73 0 -149 -22t-128 -54l-57 201q64 36 164.5 62t224.5 26q121 0 209 -33.5t137.5 -94.5t72 -136
t22.5 -168zM657 365v108q-290 4 -290 -158q0 -58 33.5 -88t88.5 -30q57 0 102 32.5t60 81.5q6 24 6 54zM328 1141q-62 0 -105 42t-43 101q0 62 43 104t105 42q59 0 99 -41.5t40 -104.5q0 -59 -40 -101t-99 -42zM758 1141q-62 0 -104 42t-42 101q0 63 42 104.5t104 41.5
q60 0 100.5 -41.5t40.5 -104.5q0 -59 -40 -101t-101 -42z" />
    <glyph glyph-name="aring" unicode="&#xe5;" horiz-adv-x="1081" 
d="M961 592v-348q0 -167 14 -244h-281l-18 100h-6q-101 -123 -287 -123q-146 0 -235 91t-89 217q0 190 157.5 287.5t430.5 95.5v14q0 23 -7.5 43t-25.5 41t-56 33t-93 12q-73 0 -149 -22t-128 -54l-57 201q64 36 164.5 62t224.5 26q121 0 209 -33.5t137.5 -94.5t72 -136
t22.5 -168zM657 365v108q-290 4 -290 -158q0 -58 33.5 -88t88.5 -30q57 0 102 32.5t60 81.5q6 24 6 54zM545 1104q-116 0 -182 57.5t-66 147.5q0 91 65.5 149t182.5 58q115 0 179 -56t64 -149t-65 -150t-178 -57zM543 1217q44 0 67 26.5t23 65.5q0 37 -23.5 65.5t-66.5 28.5
q-42 0 -65 -28t-23 -66q0 -37 23 -64.5t65 -27.5z" />
    <glyph glyph-name="ae" unicode="&#xe6;" horiz-adv-x="1644" 
d="M1577 416h-635q4 -95 77.5 -151t192.5 -56q156 0 281 53l43 -209q-148 -76 -369 -76q-126 0 -228.5 47t-152.5 132h-8q-132 -179 -372 -179q-159 0 -253 90.5t-94 223.5q0 180 159.5 275t432.5 93v29q0 14 -8 31.5t-27 39t-59.5 36t-95.5 14.5q-72 0 -144 -22.5
t-124 -53.5l-62 197q170 94 354 94q238 0 330 -162h6q124 162 342 162q107 0 190 -43t132 -115t73.5 -158.5t24.5 -181.5q0 -21 -3 -60t-3 -50zM659 365v104q-86 1 -150.5 -14t-104 -51t-39.5 -91q0 -56 36.5 -86t92.5 -30q55 0 96 29.5t61 74.5q8 16 8 64zM940 625h356
q1 22 -3 46t-15 51.5t-29.5 49t-50 35.5t-72.5 14q-46 0 -83.5 -20t-58.5 -50.5t-32 -63t-12 -62.5z" />
    <glyph glyph-name="ccedilla" unicode="&#xe7;" horiz-adv-x="923" 
d="M840 256l37 -231q-97 -40 -234 -45l-33 -70q63 -15 105.5 -57.5t42.5 -108.5q0 -52 -21 -90.5t-57.5 -59.5t-77.5 -30.5t-88 -9.5q-112 0 -174 38l39 127q48 -28 117 -28q73 0 73 51q-2 31 -39.5 49t-121.5 27l73 168q-193 32 -303 166t-110 340q0 111 37.5 207
t108.5 168.5t181 114.5t246 42q135 0 238 -39l-50 -231q-69 30 -174 30q-122 0 -196 -78t-72 -202q0 -133 78 -207t197 -74q100 0 178 33z" />
    <glyph glyph-name="egrave" unicode="&#xe8;" horiz-adv-x="1081" 
d="M1010 401h-645q7 -92 86.5 -141t195.5 -49q149 0 277 41l41 -211q-159 -64 -363 -64q-253 0 -393.5 137.5t-140.5 374.5q0 98 31 191t90.5 171t159 125.5t224.5 47.5q94 0 170.5 -28.5t127 -76t85 -112.5t49.5 -135.5t15 -147.5q0 -66 -10 -123zM362 614h369q0 32 -8 64
t-26 65t-54.5 53.5t-87.5 20.5q-47 0 -84 -19.5t-59 -51t-34.5 -65t-15.5 -67.5zM223 1438h301l193 -312h-234z" />
    <glyph glyph-name="eacute" unicode="&#xe9;" horiz-adv-x="1081" 
d="M1010 401h-645q7 -92 86.5 -141t195.5 -49q149 0 277 41l41 -211q-159 -64 -363 -64q-253 0 -393.5 137.5t-140.5 374.5q0 98 31 191t90.5 171t159 125.5t224.5 47.5q94 0 170.5 -28.5t127 -76t85 -112.5t49.5 -135.5t15 -147.5q0 -66 -10 -123zM362 614h369q0 32 -8 64
t-26 65t-54.5 53.5t-87.5 20.5q-47 0 -84 -19.5t-59 -51t-34.5 -65t-15.5 -67.5zM623 1438h309l-264 -312h-242z" />
    <glyph glyph-name="ecircumflex" unicode="&#xea;" horiz-adv-x="1081" 
d="M1010 401h-645q7 -92 86.5 -141t195.5 -49q149 0 277 41l41 -211q-159 -64 -363 -64q-253 0 -393.5 137.5t-140.5 374.5q0 98 31 191t90.5 171t159 125.5t224.5 47.5q94 0 170.5 -28.5t127 -76t85 -112.5t49.5 -135.5t15 -147.5q0 -66 -10 -123zM362 614h369q0 32 -8 64
t-26 65t-54.5 53.5t-87.5 20.5q-47 0 -84 -19.5t-59 -51t-34.5 -65t-15.5 -67.5zM444 1434h236l211 -299h-217l-111 161h-4l-108 -161h-218z" />
    <glyph glyph-name="edieresis" unicode="&#xeb;" horiz-adv-x="1081" 
d="M1010 401h-645q7 -92 86.5 -141t195.5 -49q149 0 277 41l41 -211q-159 -64 -363 -64q-253 0 -393.5 137.5t-140.5 374.5q0 98 31 191t90.5 171t159 125.5t224.5 47.5q94 0 170.5 -28.5t127 -76t85 -112.5t49.5 -135.5t15 -147.5q0 -66 -10 -123zM362 614h369q0 32 -8 64
t-26 65t-54.5 53.5t-87.5 20.5q-47 0 -84 -19.5t-59 -51t-34.5 -65t-15.5 -67.5zM360 1141q-62 0 -104.5 42t-42.5 101q0 63 42.5 104.5t104.5 41.5q59 0 99.5 -41.5t40.5 -104.5q0 -59 -40.5 -101t-99.5 -42zM791 1141q-62 0 -104 42t-42 101q0 63 42 104.5t104 41.5
q60 0 100.5 -41.5t40.5 -104.5q0 -59 -40 -101t-101 -42z" />
    <glyph glyph-name="igrave" unicode="&#xec;" horiz-adv-x="561" 
d="M-86 1438h301l193 -312h-234zM436 0h-311v1001h311v-1001z" />
    <glyph glyph-name="iacute" unicode="&#xed;" horiz-adv-x="561" 
d="M332 1438h309l-264 -312h-242zM436 0h-311v1001h311v-1001z" />
    <glyph glyph-name="icircumflex" unicode="&#xee;" horiz-adv-x="561" 
d="M436 0h-311v1001h311v-1001zM164 1434h235l211 -299h-217l-110 161h-4l-109 -161h-217z" />
    <glyph glyph-name="idieresis" unicode="&#xef;" horiz-adv-x="561" 
d="M68 1141q-62 0 -105 42t-43 101q0 62 43 104t105 42q59 0 99 -41.5t40 -104.5q0 -59 -40 -101t-99 -42zM498 1141q-62 0 -104 42t-42 101q0 63 42 104.5t104 41.5q60 0 100.5 -41.5t40.5 -104.5q0 -59 -40 -101t-101 -42zM436 0h-311v1001h311v-1001z" />
    <glyph glyph-name="eth" unicode="&#xf0;" horiz-adv-x="1175" 
d="M588 201q95 0 146.5 80.5t51.5 214.5q0 157 -49 217q-52 65 -145 65q-55 0 -96.5 -27.5t-63.5 -72t-32.5 -92.5t-10.5 -99q0 -122 53 -204t146 -82zM219 979l-55 123l215 96q-84 53 -193 96l136 176q169 -61 323 -163l283 123l61 -121l-217 -92q164 -130 252 -310
q84 -164 84 -381q0 -110 -29 -202t-78.5 -155.5t-116.5 -107t-142 -64t-156 -20.5q-224 0 -371 139t-147 369q0 143 65.5 254t172.5 169t237 61q82 3 145 -39l4 4q-78 105 -178 172z" />
    <glyph glyph-name="ntilde" unicode="&#xf1;" horiz-adv-x="1200" 
d="M125 0v682q0 143 -8 319h270l14 -137h7q40 61 119 110.5t190 49.5q161 0 259.5 -108.5t98.5 -321.5v-594h-311v555q0 217 -158 217q-60 0 -100 -34t-57 -83q-13 -33 -13 -77v-578h-311zM438 1157h-157q-6 141 44 209t138 68q61 0 145 -48l27 -15t27.5 -14.5t22 -9
t22.5 -4.5q26 0 40.5 18t18.5 73h160q0 -150 -48.5 -214.5t-136.5 -64.5q-29 0 -56 7t-44.5 15.5t-50.5 26.5q-62 35 -84 38q-6 1 -12 1q-26 0 -39.5 -17t-16.5 -69z" />
    <glyph glyph-name="ograve" unicode="&#xf2;" horiz-adv-x="1181" 
d="M602 1024q229 0 370.5 -141t141.5 -381q0 -109 -32 -198.5t-84.5 -149t-123 -100.5t-145 -59t-151.5 -18q-143 0 -258 61.5t-183.5 181.5t-68.5 280q0 164 72.5 284.5t192 180t269.5 59.5zM592 803q-55 0 -96 -27t-63.5 -73t-33 -97t-10.5 -108q0 -128 52 -212.5
t151 -84.5q98 0 149.5 84t51.5 213q0 57 -10 108.5t-32 97t-63 72.5t-96 27zM250 1438h301l192 -312h-233z" />
    <glyph glyph-name="oacute" unicode="&#xf3;" horiz-adv-x="1181" 
d="M602 1024q229 0 370.5 -141t141.5 -381q0 -109 -32 -198.5t-84.5 -149t-123 -100.5t-145 -59t-151.5 -18q-143 0 -258 61.5t-183.5 181.5t-68.5 280q0 164 72.5 284.5t192 180t269.5 59.5zM592 803q-55 0 -96 -27t-63.5 -73t-33 -97t-10.5 -108q0 -128 52 -212.5
t151 -84.5q98 0 149.5 84t51.5 213q0 57 -10 108.5t-32 97t-63 72.5t-96 27zM637 1438h309l-264 -312h-242z" />
    <glyph glyph-name="ocircumflex" unicode="&#xf4;" horiz-adv-x="1181" 
d="M602 1024q229 0 370.5 -141t141.5 -381q0 -109 -32 -198.5t-84.5 -149t-123 -100.5t-145 -59t-151.5 -18q-143 0 -258 61.5t-183.5 181.5t-68.5 280q0 164 72.5 284.5t192 180t269.5 59.5zM592 803q-55 0 -96 -27t-63.5 -73t-33 -97t-10.5 -108q0 -128 52 -212.5
t151 -84.5q98 0 149.5 84t51.5 213q0 57 -10 108.5t-32 97t-63 72.5t-96 27zM473 1434h236l211 -299h-218l-110 161h-4l-109 -161h-217z" />
    <glyph glyph-name="otilde" unicode="&#xf5;" horiz-adv-x="1181" 
d="M602 1024q229 0 370.5 -141t141.5 -381q0 -109 -32 -198.5t-84.5 -149t-123 -100.5t-145 -59t-151.5 -18q-143 0 -258 61.5t-183.5 181.5t-68.5 280q0 164 72.5 284.5t192 180t269.5 59.5zM592 803q-55 0 -96 -27t-63.5 -73t-33 -97t-10.5 -108q0 -128 52 -212.5
t151 -84.5q98 0 149.5 84t51.5 213q0 57 -10 108.5t-32 97t-63 72.5t-96 27zM426 1157h-158q-6 141 44 209t139 68q61 0 145 -48q10 -5 27.5 -14.5t27 -14.5t21.5 -9.5t22 -4.5q26 0 41 18t19 73h159q0 -150 -48 -214.5t-136 -64.5q-29 0 -56 7t-44.5 15.5t-50.5 26.5
q-28 16 -38.5 21.5t-27.5 11.5t-31 6q-26 0 -39 -17t-16 -69z" />
    <glyph glyph-name="odieresis" unicode="&#xf6;" horiz-adv-x="1181" 
d="M602 1024q229 0 370.5 -141t141.5 -381q0 -109 -32 -198.5t-84.5 -149t-123 -100.5t-145 -59t-151.5 -18q-143 0 -258 61.5t-183.5 181.5t-68.5 280q0 164 72.5 284.5t192 180t269.5 59.5zM592 803q-55 0 -96 -27t-63.5 -73t-33 -97t-10.5 -108q0 -128 52 -212.5
t151 -84.5q98 0 149.5 84t51.5 213q0 57 -10 108.5t-32 97t-63 72.5t-96 27zM377 1141q-62 0 -105 42t-43 101q0 62 43 104t105 42q59 0 99 -41.5t40 -104.5q0 -59 -40 -101t-99 -42zM807 1141q-62 0 -103.5 42t-41.5 101q0 63 41.5 104.5t103.5 41.5q60 0 100.5 -41.5
t40.5 -104.5q0 -59 -40 -101t-101 -42z" />
    <glyph glyph-name="divide" unicode="&#xf7;" horiz-adv-x="1220" 
d="M610 756q-67 0 -108 41.5t-41 107.5q0 70 41 112t108 42t107.5 -41.5t42.5 -112.5q0 -67 -41 -108t-109 -41zM1139 451h-1057v192h1057v-192zM610 35q-67 0 -108 41.5t-41 109.5q0 69 41.5 110.5t107.5 41.5q67 0 107.5 -41.5t42.5 -110.5q0 -68 -40.5 -109.5
t-109.5 -41.5z" />
    <glyph glyph-name="oslash" unicode="&#xf8;" horiz-adv-x="1181" 
d="M152 -33l90 133q-174 140 -174 400q0 235 144.5 379.5t377.5 144.5q144 0 244 -53l96 141l108 -76l-92 -137q168 -146 168 -395q0 -104 -29.5 -191.5t-79.5 -148.5t-117 -104t-142 -63t-154 -20q-136 0 -238 54l-100 -146zM408 340l292 426q-50 37 -110 37
q-58 0 -102.5 -27t-70 -72t-38 -96t-12.5 -106q0 -100 36 -160zM776 653l-291 -415q40 -37 105 -37q103 0 163 81t60 214q0 92 -31 155z" />
    <glyph glyph-name="ugrave" unicode="&#xf9;" horiz-adv-x="1193" 
d="M1077 0h-270l-14 141h-7q-105 -164 -313 -164q-161 0 -256.5 105.5t-95.5 331.5v587h313v-538q0 -234 156 -234q58 0 98 32.5t57 76.5q11 33 11 68v595h313v-679q0 -154 8 -322zM248 1438h301l192 -312h-233z" />
    <glyph glyph-name="uacute" unicode="&#xfa;" horiz-adv-x="1193" 
d="M1077 0h-270l-14 141h-7q-105 -164 -313 -164q-161 0 -256.5 105.5t-95.5 331.5v587h313v-538q0 -234 156 -234q58 0 98 32.5t57 76.5q11 33 11 68v595h313v-679q0 -154 8 -322zM653 1438h310l-265 -312h-241z" />
    <glyph glyph-name="ucircumflex" unicode="&#xfb;" horiz-adv-x="1193" 
d="M1077 0h-270l-14 141h-7q-105 -164 -313 -164q-161 0 -256.5 105.5t-95.5 331.5v587h313v-538q0 -234 156 -234q58 0 98 32.5t57 76.5q11 33 11 68v595h313v-679q0 -154 8 -322zM481 1434h236l211 -299h-217l-111 161h-4l-109 -161h-217z" />
    <glyph glyph-name="udieresis" unicode="&#xfc;" horiz-adv-x="1193" 
d="M1077 0h-270l-14 141h-7q-105 -164 -313 -164q-161 0 -256.5 105.5t-95.5 331.5v587h313v-538q0 -234 156 -234q58 0 98 32.5t57 76.5q11 33 11 68v595h313v-679q0 -154 8 -322zM391 1141q-62 0 -104.5 42t-42.5 101q0 63 42.5 104.5t104.5 41.5q59 0 99 -41.5t40 -104.5
q0 -59 -40 -101t-99 -42zM821 1141q-62 0 -103.5 42t-41.5 101q0 63 41.5 104.5t103.5 41.5q60 0 101 -41.5t41 -104.5q0 -59 -40.5 -101t-101.5 -42z" />
    <glyph glyph-name="yacute" unicode="&#xfd;" horiz-adv-x="1071" 
d="M12 1001h346l150 -491q42 -154 49 -186h6q8 31 24.5 101t20.5 85l123 491h334l-234 -659q-103 -287 -183 -432.5t-169 -224.5q-135 -117 -301 -138l-65 265q65 10 135 53q78 42 129 125q16 22 16 45q0 22 -14 51zM614 1438h310l-265 -312h-241z" />
    <glyph glyph-name="thorn" unicode="&#xfe;" horiz-adv-x="1224" 
d="M125 1386h311v-507h4q97 145 299 145q81 2 155.5 -32t133 -98t93 -163.5t34.5 -220.5q0 -107 -27 -197t-71.5 -151t-103.5 -103.5t-121.5 -62t-126.5 -19.5q-89 0 -157 31.5t-108 85.5h-4v-500h-311v1792zM436 582v-172q0 -57 29 -97q24 -44 67 -70t95 -26q97 0 155 78
t58 211q0 120 -55 197t-150 77q-59 0 -106.5 -29.5t-71.5 -84.5q-21 -42 -21 -84z" />
    <glyph glyph-name="ydieresis" unicode="&#xff;" horiz-adv-x="1071" 
d="M12 1001h346l150 -491q42 -154 49 -186h6q8 31 24.5 101t20.5 85l123 491h334l-234 -659q-103 -287 -183 -432.5t-169 -224.5q-135 -117 -301 -138l-65 265q65 10 135 53q78 42 129 125q16 22 16 45q0 22 -14 51zM346 1141q-62 0 -104.5 42t-42.5 101q0 63 42.5 104.5
t104.5 41.5q59 0 99 -41.5t40 -104.5q0 -59 -40 -101t-99 -42zM776 1141q-62 0 -103.5 42t-41.5 101q0 63 41.5 104.5t103.5 41.5q60 0 101 -41.5t41 -104.5q0 -59 -40.5 -101t-101.5 -42z" />
    <glyph glyph-name="Amacron" unicode="&#x100;" horiz-adv-x="1343" 
d="M852 354h-395l-99 -354h-323l422 1380h409l428 -1380h-336zM502 588h305l-86 293q-26 84 -70 266h-4q-5 -19 -27.5 -119t-35.5 -147zM367 1700h591v-197h-591v197z" />
    <glyph glyph-name="amacron" unicode="&#x101;" horiz-adv-x="1081" 
d="M961 592v-348q0 -167 14 -244h-281l-18 100h-6q-101 -123 -287 -123q-146 0 -235 91t-89 217q0 190 157.5 287.5t430.5 95.5v14q0 23 -7.5 43t-25.5 41t-56 33t-93 12q-73 0 -149 -22t-128 -54l-57 201q64 36 164.5 62t224.5 26q121 0 209 -33.5t137.5 -94.5t72 -136
t22.5 -168zM657 365v108q-290 4 -290 -158q0 -58 33.5 -88t88.5 -30q57 0 102 32.5t60 81.5q6 24 6 54zM258 1380h567v-192h-567v192z" />
    <glyph glyph-name="Abreve" unicode="&#x102;" horiz-adv-x="1343" 
d="M852 354h-395l-99 -354h-323l422 1380h409l428 -1380h-336zM502 588h305l-86 293q-26 84 -70 266h-4q-5 -19 -27.5 -119t-35.5 -147zM369 1708h174q25 -96 123 -96q106 0 131 96h170q-14 -115 -90 -186.5t-209 -71.5q-141 0 -213.5 70t-85.5 188z" />
    <glyph glyph-name="abreve" unicode="&#x103;" horiz-adv-x="1081" 
d="M961 592v-348q0 -167 14 -244h-281l-18 100h-6q-101 -123 -287 -123q-146 0 -235 91t-89 217q0 190 157.5 287.5t430.5 95.5v14q0 23 -7.5 43t-25.5 41t-56 33t-93 12q-73 0 -149 -22t-128 -54l-57 201q64 36 164.5 62t224.5 26q121 0 209 -33.5t137.5 -94.5t72 -136
t22.5 -168zM657 365v108q-290 4 -290 -158q0 -58 33.5 -88t88.5 -30q57 0 102 32.5t60 81.5q6 24 6 54zM248 1407h170q21 -115 123 -115q106 0 123 115h170q-6 -124 -82.5 -203.5t-210.5 -79.5q-141 0 -215.5 80.5t-77.5 202.5z" />
    <glyph glyph-name="Ccaron" unicode="&#x10c;" horiz-adv-x="1218" 
d="M1102 283l47 -244q-49 -25 -143.5 -43.5t-210.5 -18.5q-175 0 -313.5 53t-227.5 146.5t-135.5 219t-46.5 274.5q0 138 38 256.5t106.5 205t162.5 147.5t207 91.5t239 30.5q113 0 203.5 -18t136.5 -42l-63 -247q-119 51 -262 51q-127 0 -224.5 -49t-157 -154t-59.5 -254
q0 -208 117.5 -329t325.5 -121q150 0 260 45zM891 1456h-262l-207 252h233l103 -129h4l102 129h232z" />
    <glyph glyph-name="ccaron" unicode="&#x10d;" horiz-adv-x="923" 
d="M840 256l37 -231q-106 -48 -279 -48q-243 0 -386.5 139.5t-143.5 375.5q0 111 37.5 207t108.5 168.5t181 114.5t246 42q135 0 238 -39l-50 -231q-69 30 -174 30q-122 0 -196 -78t-72 -202q0 -133 78 -207t197 -74q100 0 178 33zM670 1135h-238l-209 299h217l109 -164h4
l111 164h217z" />
    <glyph glyph-name="Emacron" unicode="&#x112;" horiz-adv-x="1093" 
d="M956 838v-254h-507v-328h567v-256h-881v1380h852v-256h-538v-286h507zM260 1700h592v-197h-592v197z" />
    <glyph glyph-name="emacron" unicode="&#x113;" horiz-adv-x="1081" 
d="M1010 401h-645q7 -92 86.5 -141t195.5 -49q149 0 277 41l41 -211q-159 -64 -363 -64q-253 0 -393.5 137.5t-140.5 374.5q0 98 31 191t90.5 171t159 125.5t224.5 47.5q94 0 170.5 -28.5t127 -76t85 -112.5t49.5 -135.5t15 -147.5q0 -66 -10 -123zM362 614h369q0 32 -8 64
t-26 65t-54.5 53.5t-87.5 20.5q-47 0 -84 -19.5t-59 -51t-34.5 -65t-15.5 -67.5zM264 1380h567v-192h-567v192z" />
    <glyph glyph-name="Ebreve" unicode="&#x114;" horiz-adv-x="1093" 
d="M956 838v-254h-507v-328h567v-256h-881v1380h852v-256h-538v-286h507zM266 1714h174q25 -96 123 -96q106 0 131 96h170q-14 -115 -90 -186.5t-209 -71.5q-141 0 -213.5 70t-85.5 188z" />
    <glyph glyph-name="ebreve" unicode="&#x115;" horiz-adv-x="1081" 
d="M1010 401h-645q7 -92 86.5 -141t195.5 -49q149 0 277 41l41 -211q-159 -64 -363 -64q-253 0 -393.5 137.5t-140.5 374.5q0 98 31 191t90.5 171t159 125.5t224.5 47.5q94 0 170.5 -28.5t127 -76t85 -112.5t49.5 -135.5t15 -147.5q0 -66 -10 -123zM362 614h369q0 32 -8 64
t-26 65t-54.5 53.5t-87.5 20.5q-47 0 -84 -19.5t-59 -51t-34.5 -65t-15.5 -67.5zM256 1407h170q21 -115 123 -115q106 0 123 115h170q-6 -124 -82.5 -203.5t-210.5 -79.5q-141 0 -215.5 80.5t-77.5 202.5z" />
    <glyph glyph-name="Eogonek" unicode="&#x118;" horiz-adv-x="1093" 
d="M989 -225l41 -172q-88 -52 -219 -52q-102 0 -165.5 52t-63.5 141q0 131 157 256h-604v1380h852v-256h-538v-286h507v-254h-507v-328h567v-256h-51q-60 -36 -100 -81t-40 -91q0 -31 21.5 -49.5t56.5 -18.5q43 0 86 15z" />
    <glyph glyph-name="eogonek" unicode="&#x119;" horiz-adv-x="1081" 
d="M862 -233l47 -146q-92 -70 -219 -70q-98 0 -153.5 47.5t-55.5 129.5q0 131 137 249v3q-4 0 -12.5 -1.5t-13.5 -1.5q-247 1 -385.5 139t-138.5 373q0 98 31 191t90.5 171t159 125.5t224.5 47.5q94 0 170.5 -28.5t127 -76t85 -112.5t49.5 -135.5t15 -147.5q0 -66 -10 -123
h-645q7 -92 86.5 -141t195.5 -49q149 0 277 41l41 -211q-16 -6 -46.5 -16t-41.5 -15q-58 -27 -107 -83t-49 -111q0 -34 16.5 -51t44.5 -17q38 0 80 19zM362 614h369q0 32 -8 64t-26 65t-54.5 53.5t-87.5 20.5q-47 0 -84 -19.5t-59 -51t-34.5 -65t-15.5 -67.5z" />
    <glyph glyph-name="Gdotaccent" unicode="&#x120;" horiz-adv-x="1396" 
d="M1288 791v-728q-87 -30 -212 -53.5t-249 -23.5q-369 0 -561 186q-95 89 -145.5 219t-48.5 283q1 224 104 389t279.5 248.5t404.5 83.5q124 0 224.5 -20t158.5 -48l-65 -250q-138 60 -322 60q-204 0 -330.5 -115.5t-126.5 -331.5q0 -210 120 -331t315 -121q111 0 153 20
v289h-213v244h514zM770 1458q-63 0 -105 42t-42 102q0 63 42 104t105 41q60 0 100.5 -41t40.5 -104q0 -59 -41 -101.5t-100 -42.5z" />
    <glyph glyph-name="gdotaccent" unicode="&#x121;" horiz-adv-x="1198" 
d="M1073 705v-560q0 -316 -151 -450q-145 -123 -408 -123q-101 0 -197.5 20.5t-162.5 57.5l61 235q53 -31 131 -53t160 -22q117 0 188.5 66t71.5 198v65h-4q-44 -63 -114 -97t-156 -34q-186 0 -305 137t-119 353q0 235 132 380.5t322 145.5q187 0 275 -141h4l10 118h270
q-8 -126 -8 -296zM762 446v148q0 33 -6 57q-18 63 -61.5 100t-106.5 37q-88 0 -146.5 -76t-58.5 -208q0 -116 54.5 -191t150.5 -75q59 0 104 35.5t60 91.5q10 29 10 81zM596 1143q-62 0 -103.5 42t-41.5 101q0 63 41.5 104.5t103.5 41.5q60 0 99.5 -41.5t39.5 -104.5
q0 -60 -39.5 -101.5t-99.5 -41.5z" />
    <glyph glyph-name="Hbar" unicode="&#x126;" horiz-adv-x="1435" 
d="M1419 979h-133v-979h-311v516h-514v-516h-314v979h-131v184h131v217h314v-217h514v217h311v-217h133v-184zM975 788v191h-514v-191h514z" />
    <glyph glyph-name="hbar" unicode="&#x127;" horiz-adv-x="1200" 
d="M436 883h4q50 65 123 102q73 39 162 39q157 0 253.5 -110.5t96.5 -327.5v-586h-311v551q0 221 -162 221q-57 0 -97 -31t-59 -77q-10 -25 -10 -70v-594h-311v1126h-145v170h145v158h311v-158h379v-170h-379v-243z" />
    <glyph glyph-name="Imacron" unicode="&#x12a;" horiz-adv-x="583" 
d="M135 1380h314v-1380h-314v1380zM-4 1700h592v-197h-592v197z" />
    <glyph glyph-name="imacron" unicode="&#x12b;" horiz-adv-x="561" 
d="M-2 1380h567v-192h-567v192zM436 0h-311v1001h311v-1001z" />
    <glyph glyph-name="dotlessi" unicode="&#x131;" horiz-adv-x="561" 
d="M436 0h-311v1001h311v-1001z" />
    <glyph glyph-name="Lslash" unicode="&#x141;" horiz-adv-x="1058" 
d="M1010 0h-860v522l-156 -78v215l156 80v641h311v-491l266 131v-217l-266 -131v-410h549v-262z" />
    <glyph glyph-name="lslash" unicode="&#x142;" horiz-adv-x="587" 
d="M451 0h-314v580l-131 -78v221l131 80v651h314v-506l139 84v-223l-139 -84v-725z" />
    <glyph glyph-name="Omacron" unicode="&#x14c;" horiz-adv-x="1468" 
d="M750 1403q204 0 352.5 -94.5t222.5 -253.5t74 -363q0 -169 -53.5 -306t-146 -225.5t-214.5 -136t-262 -47.5q-295 0 -473 195t-178 508q0 212 84.5 376.5t239 255.5t354.5 91zM737 1155q-106 0 -183.5 -64t-115 -168.5t-37.5 -234.5q0 -201 89 -332t245 -131
q107 0 184 64.5t113.5 167.5t36.5 231q0 90 -20 171.5t-59.5 148.5t-104.5 107t-148 40zM440 1704h592v-197h-592v197z" />
    <glyph glyph-name="omacron" unicode="&#x14d;" horiz-adv-x="1181" 
d="M602 1024q229 0 370.5 -141t141.5 -381q0 -109 -32 -198.5t-84.5 -149t-123 -100.5t-145 -59t-151.5 -18q-143 0 -258 61.5t-183.5 181.5t-68.5 280q0 164 72.5 284.5t192 180t269.5 59.5zM592 803q-55 0 -96 -27t-63.5 -73t-33 -97t-10.5 -108q0 -128 52 -212.5
t151 -84.5q98 0 149.5 84t51.5 213q0 57 -10 108.5t-32 97t-63 72.5t-96 27zM307 1380h567v-192h-567v192z" />
    <glyph glyph-name="Obreve" unicode="&#x14e;" horiz-adv-x="1468" 
d="M750 1403q204 0 352.5 -94.5t222.5 -253.5t74 -363q0 -169 -53.5 -306t-146 -225.5t-214.5 -136t-262 -47.5q-295 0 -473 195t-178 508q0 212 84.5 376.5t239 255.5t354.5 91zM737 1155q-106 0 -183.5 -64t-115 -168.5t-37.5 -234.5q0 -201 89 -332t245 -131
q107 0 184 64.5t113.5 167.5t36.5 231q0 90 -20 171.5t-59.5 148.5t-104.5 107t-148 40zM436 1726h174q25 -96 123 -96q106 0 131 96h170q-14 -115 -90 -186.5t-209 -71.5q-141 0 -213.5 70t-85.5 188z" />
    <glyph glyph-name="obreve" unicode="&#x14f;" horiz-adv-x="1181" 
d="M602 1024q229 0 370.5 -141t141.5 -381q0 -109 -32 -198.5t-84.5 -149t-123 -100.5t-145 -59t-151.5 -18q-143 0 -258 61.5t-183.5 181.5t-68.5 280q0 164 72.5 284.5t192 180t269.5 59.5zM592 803q-55 0 -96 -27t-63.5 -73t-33 -97t-10.5 -108q0 -128 52 -212.5
t151 -84.5q98 0 149.5 84t51.5 213q0 57 -10 108.5t-32 97t-63 72.5t-96 27zM297 1407h170q21 -115 123 -115q106 0 123 115h170q-6 -124 -82.5 -203.5t-210.5 -79.5q-141 0 -215.5 80.5t-77.5 202.5z" />
    <glyph glyph-name="OE" unicode="&#x152;" horiz-adv-x="1916" 
d="M1837 256v-256h-786q-176 -23 -287 -23q-138 0 -253 37t-195.5 102t-136 154t-81.5 191.5t-26 216.5q0 218 90 383t250.5 253.5t367.5 88.5q76 0 295 -23h733v-256h-538v-286h508v-254h-508v-328h567zM958 250v876q-63 29 -161 29q-81 0 -152.5 -30.5t-126 -88
t-86 -146.5t-31.5 -200q-2 -208 109 -336.5t307 -128.5q83 0 141 25z" />
    <glyph glyph-name="oe" unicode="&#x153;" horiz-adv-x="1777" 
d="M1710 408h-633q6 -90 83.5 -144.5t189.5 -54.5q138 0 278 53l43 -209q-138 -76 -364 -76q-247 0 -369 177h-6q-61 -88 -159.5 -132.5t-215.5 -44.5q-209 0 -349 142t-140 381q0 235 143 379.5t367 144.5q111 0 206 -46t146 -132h4q59 88 149.5 133t198.5 45
q93 0 167.5 -28.5t124 -76.5t82.5 -113t47.5 -135.5t14.5 -146.5q0 -44 -8 -116zM594 803q-57 0 -98.5 -27t-63.5 -72.5t-32.5 -96t-10.5 -107.5q0 -131 53 -215t148 -84q94 0 145 81t51 220q0 128 -49 214.5t-143 86.5zM1073 616h357q1 25 -2.5 49t-14.5 52.5t-29.5 49.5
t-52 35.5t-76.5 14.5q-59 0 -102 -34.5t-61 -78.5t-19 -88z" />
    <glyph glyph-name="Sacute" unicode="&#x15a;" horiz-adv-x="1105" 
d="M82 63l63 259q168 -86 347 -86q105 0 162 40t57 109q0 63 -52.5 106.5t-179.5 88.5q-379 132 -379 407q0 181 141.5 297.5t381.5 116.5q201 0 352 -68l-70 -252q-134 66 -289 66q-97 0 -148.5 -38t-51.5 -95q0 -62 55 -100.5t201 -94.5q184 -68 271 -167t87 -244
q0 -88 -34.5 -165t-101 -137t-175 -94.5t-246.5 -34.5q-112 0 -219.5 25.5t-171.5 60.5zM592 1708h344l-244 -252h-274z" />
    <glyph glyph-name="sacute" unicode="&#x15b;" horiz-adv-x="888" 
d="M68 49l55 223q46 -28 124.5 -51.5t143.5 -23.5q133 0 133 84q0 38 -30 61.5t-117 52.5q-148 50 -217.5 128t-67.5 171q0 143 112.5 236.5t295.5 93.5q170 0 282 -57l-55 -215q-103 57 -217 57q-57 0 -88 -21.5t-31 -60.5q0 -35 34 -58.5t128 -56.5q141 -49 205.5 -123.5
t66.5 -185.5q0 -145 -113 -235.5t-321 -90.5q-190 0 -323 72zM506 1438h309l-264 -312h-242z" />
    <glyph glyph-name="Scaron" unicode="&#x160;" horiz-adv-x="1105" 
d="M82 63l63 259q168 -86 347 -86q105 0 162 40t57 109q0 63 -52.5 106.5t-179.5 88.5q-379 132 -379 407q0 181 141.5 297.5t381.5 116.5q201 0 352 -68l-70 -252q-134 66 -289 66q-97 0 -148.5 -38t-51.5 -95q0 -62 55 -100.5t201 -94.5q184 -68 271 -167t87 -244
q0 -88 -34.5 -165t-101 -137t-175 -94.5t-246.5 -34.5q-112 0 -219.5 25.5t-171.5 60.5zM702 1456h-262l-207 252h234l102 -129h4l103 129h231z" />
    <glyph glyph-name="scaron" unicode="&#x161;" horiz-adv-x="888" 
d="M68 49l55 223q46 -28 124.5 -51.5t143.5 -23.5q133 0 133 84q0 38 -30 61.5t-117 52.5q-148 50 -217.5 128t-67.5 171q0 143 112.5 236.5t295.5 93.5q170 0 282 -57l-55 -215q-103 57 -217 57q-57 0 -88 -21.5t-31 -60.5q0 -35 34 -58.5t128 -56.5q141 -49 205.5 -123.5
t66.5 -185.5q0 -145 -113 -235.5t-321 -90.5q-190 0 -323 72zM569 1135h-237l-209 299h217l109 -164h4l110 164h217z" />
    <glyph glyph-name="Umacron" unicode="&#x16a;" horiz-adv-x="1396" 
d="M133 1380h313v-798q0 -175 64.5 -265t185.5 -90q254 0 254 355v798h312v-778q0 -313 -150 -469t-426 -156q-553 0 -553 629v774zM403 1700h592v-197h-592v197z" />
    <glyph glyph-name="umacron" unicode="&#x16b;" horiz-adv-x="1193" 
d="M1077 0h-270l-14 141h-7q-105 -164 -313 -164q-161 0 -256.5 105.5t-95.5 331.5v587h313v-538q0 -234 156 -234q58 0 98 32.5t57 76.5q11 33 11 68v595h313v-679q0 -154 8 -322zM315 1380h568v-192h-568v192z" />
    <glyph glyph-name="Ydieresis" unicode="&#x178;" horiz-adv-x="1234" 
d="M766 0h-311v565l-437 815h357l141 -331q41 -96 107 -265h4q43 119 104 265l139 331h351l-455 -805v-575zM420 1458q-63 0 -105.5 42t-42.5 102q0 61 43 102t105 41q59 0 99 -40.5t40 -102.5q0 -61 -39.5 -102.5t-99.5 -41.5zM852 1458q-62 0 -102.5 41.5t-40.5 102.5
q0 62 41 102.5t104 40.5q60 0 99.5 -40t39.5 -103q0 -61 -40 -102.5t-101 -41.5z" />
    <glyph glyph-name="Zcaron" unicode="&#x17d;" horiz-adv-x="1181" 
d="M47 0v168l658 946v8h-596v258h1001v-180l-643 -934v-8h653v-258h-1073zM735 1454h-262l-207 252h234l102 -129h4l103 129h231z" />
    <glyph glyph-name="zcaron" unicode="&#x17e;" horiz-adv-x="960" 
d="M45 0v178l315 395q63 75 160 179v4h-440v245h819v-186l-301 -379q-110 -131 -164 -184v-4h481v-248h-870zM610 1135h-237l-209 299h217l108 -164h5l110 164h217z" />
    <glyph glyph-name="uni018F" unicode="&#x18f;" horiz-adv-x="1370" 
d="M84 801h877q-5 109 -59.5 188t-139.5 116.5t-191 37.5q-203 0 -374 -66l-52 236q202 88 469 88q215 0 370.5 -89.5t234.5 -249t79 -372.5q0 -151 -44.5 -281.5t-126.5 -226.5t-205 -150.5t-273 -54.5q-105 0 -192.5 26.5t-149.5 73.5t-108.5 109t-73.5 137t-40 152
t-13 160q0 100 12 166zM963 559h-582q0 -65 16.5 -124t49 -109t88 -79.5t127.5 -29.5t128.5 29.5t91.5 79.5t55 109t26 124z" />
    <glyph glyph-name="uni0192" unicode="&#x192;" horiz-adv-x="1130" 
d="M233 571v226h187l10 55q5 50 17 99.5t43.5 115t77 113.5t124.5 82t180 34q106 0 168 -32l-47 -236q-51 19 -98 19q-145 0 -166 -168l-12 -82h209v-226h-234l-45 -333q-11 -81 -26.5 -143t-46 -121.5t-73 -98t-108 -61.5t-151.5 -23q-121 0 -185 33l43 235q44 -18 97 -18
q53 1 81.5 21.5t48 78t35.5 174.5l31 256h-160z" />
    <glyph glyph-name="Gcaron" unicode="&#x1e6;" horiz-adv-x="1396" 
d="M1288 791v-728q-87 -30 -212 -53.5t-249 -23.5q-369 0 -561 186q-95 89 -145.5 219t-48.5 283q1 224 104 389t279.5 248.5t404.5 83.5q124 0 224.5 -20t158.5 -48l-65 -250q-138 60 -322 60q-204 0 -330.5 -115.5t-126.5 -331.5q0 -210 120 -331t315 -121q111 0 153 20
v289h-213v244h514z" />
    <glyph glyph-name="gcaron" unicode="&#x1e7;" horiz-adv-x="1198" 
d="M1073 705v-560q0 -316 -151 -450q-145 -123 -408 -123q-101 0 -197.5 20.5t-162.5 57.5l61 235q53 -31 131 -53t160 -22q117 0 188.5 66t71.5 198v65h-4q-44 -63 -114 -97t-156 -34q-186 0 -305 137t-119 353q0 235 132 380.5t322 145.5q187 0 275 -141h4l10 118h270
q-8 -126 -8 -296zM762 446v148q0 33 -6 57q-18 63 -61.5 100t-106.5 37q-88 0 -146.5 -76t-58.5 -208q0 -116 54.5 -191t150.5 -75q59 0 104 35.5t60 91.5q10 29 10 81zM709 1126h-209l-205 312h203l104 -178h4l105 178h202z" />
    <glyph glyph-name="uni0250" unicode="&#x250;" horiz-adv-x="1081" 
d="M123 410v350q0 148 -17 241h281l19 -98h6q100 121 286 121q148 0 236 -89.5t88 -215.5q0 -191 -157 -288t-431 -97v-12q0 -52 40 -90.5t144 -38.5q72 0 147.5 21t127.5 52l57 -198q-63 -37 -163.5 -64t-225.5 -27q-98 0 -174 22.5t-125 61.5t-81 95t-45 118t-13 136z
M424 639v-111q291 0 291 158q0 60 -33.5 90.5t-89.5 30.5t-101.5 -33.5t-60.5 -83.5q-6 -21 -6 -51z" />
    <glyph glyph-name="uni0251" unicode="&#x251;" horiz-adv-x="1218" 
d="M784 426v156q0 27 -6 51q-13 63 -61.5 106t-116.5 43q-104 0 -159.5 -77t-55.5 -203q0 -130 57 -208.5t154 -78.5q65 0 115 40.5t65 102.5q8 27 8 68zM1112 0h-291l-22 131h-6q-45 -67 -119 -110.5t-174 -43.5q-183 0 -307.5 139t-124.5 371q0 129 39 234t102.5 169.5
t141 99t159.5 34.5q195 0 278 -139h5l8 116h301q-6 -288 -6 -301v-454q0 -158 16 -246z" />
    <glyph glyph-name="uni0254" unicode="&#x254;" horiz-adv-x="923" 
d="M90 748l-31 229q96 47 279 47q238 0 379 -139.5t141 -370.5q0 -114 -36 -210.5t-105.5 -170t-179.5 -115t-250 -41.5q-134 0 -248 43l49 232q72 -35 178 -35q125 0 199 76t74 207q0 134 -75.5 207t-193.5 73q-105 0 -180 -32z" />
    <glyph glyph-name="uni0259" unicode="&#x259;" horiz-adv-x="1079" 
d="M78 608h637q-9 89 -86 138t-187 49q-151 0 -284 -45l-43 211q145 63 370 63q251 0 389 -144t138 -386q0 -145 -60 -261t-175.5 -184.5t-268.5 -68.5q-98 0 -176 28t-128 74.5t-83 110.5t-46.5 131.5t-13.5 142.5q0 71 17 141zM717 395h-373q0 -84 45.5 -146.5
t134.5 -62.5q87 0 136.5 63.5t56.5 145.5z" />
    <glyph glyph-name="uni025B" unicode="&#x25b;" horiz-adv-x="958" 
d="M287 526v11q-82 26 -127 80.5t-45 127.5q0 113 113 196t323 83q208 0 336 -76l-53 -196q-43 24 -107.5 40.5t-128.5 16.5q-80 0 -125 -26t-45 -70q0 -88 229 -88h99v-203h-97q-58 -1 -101.5 -6t-80 -15.5t-55.5 -30.5t-19 -48q0 -55 58 -84t143 -29q65 0 140 17.5
t128 43.5l43 -200q-74 -47 -181 -70t-212 -23q-87 0 -164.5 17t-144 51.5t-106 97t-39.5 144.5q0 89 63 154t156 85z" />
    <glyph glyph-name="uni0261" unicode="&#x261;" horiz-adv-x="1198" 
d="M1073 705v-560q0 -316 -151 -450q-145 -123 -408 -123q-101 0 -197.5 20.5t-162.5 57.5l61 235q53 -31 131 -53t160 -22q117 0 188.5 66t71.5 198v65h-4q-44 -63 -114 -97t-156 -34q-186 0 -305 137t-119 353q0 235 132 380.5t322 145.5q187 0 275 -141h4l10 118h270
q-8 -126 -8 -296zM762 446v148q0 33 -6 57q-18 63 -61.5 100t-106.5 37q-88 0 -146.5 -76t-58.5 -208q0 -116 54.5 -191t150.5 -75q59 0 104 35.5t60 91.5q10 29 10 81z" />
    <glyph glyph-name="uni0263" unicode="&#x263;" horiz-adv-x="1085" 
d="M1067 1001l-303 -784q70 -152 85 -202q19 -63 19 -124q0 -141 -91.5 -230t-252.5 -89q-150 0 -235.5 83.5t-85.5 217.5q0 52 15 106.5t31.5 90t55.5 113.5q9 19 14 28l-301 790h338l133 -415q36 -110 60 -236h6q18 96 59 236l125 415h328zM535 76h-11q-59 -131 -59 -191
q0 -34 17.5 -54.5t47.5 -20.5q28 0 47 22t19 55q0 54 -61 189z" />
    <glyph glyph-name="uni026A" unicode="&#x26a;" horiz-adv-x="667" 
d="M623 0h-578v213h133v575h-133v213h578v-213h-134v-575h134v-213z" />
    <glyph glyph-name="uni026B" unicode="&#x26b;" horiz-adv-x="847" 
d="M741 926l154 -164q-45 -87 -124.5 -134.5t-186.5 -47.5h-4v-580h-312v672h-8q-92 0 -154 -105l-153 164q47 86 128.5 134t182.5 48h4v541h312v-633h8q92 0 153 105z" />
    <glyph glyph-name="uni0280" unicode="&#x280;" horiz-adv-x="1081" 
d="M121 0v999q186 25 375 25q265 0 383 -78q116 -83 116 -223q0 -95 -56 -160.5t-138 -89.5v-4q51 -20 85 -64.5t60 -119.5q12 -36 33.5 -103t37.5 -116t25 -66h-319q-33 51 -78 229q-21 81 -56.5 109.5t-101.5 28.5h-59v-367h-307zM428 807v-227h92q86 0 127 33.5t41 91.5
q0 52 -40 81t-118 29q-63 0 -102 -8z" />
    <glyph glyph-name="uni0281" unicode="&#x281;" horiz-adv-x="1081" 
d="M121 2v999h307v-366h59q66 0 101.5 29t56.5 110q44 175 78 227h319q-9 -15 -25 -63t-37.5 -117.5t-33.5 -103.5q-54 -146 -145 -182v-5q82 -20 138 -84t56 -151q0 -153 -123 -234q-122 -84 -401 -84q-152 0 -350 25zM428 422v-225q44 -9 98 -9q80 0 121 30.5t41 84.5
q0 119 -168 119h-92z" />
    <glyph glyph-name="uni0283" unicode="&#x283;" horiz-adv-x="632" 
d="M160 -12v1052q0 116 30 201.5t85 136t125.5 75t156.5 24.5q91 0 158 -27l-47 -240q-51 15 -82 15q-57 0 -85 -37t-28 -127v-1063q0 -111 -30 -194.5t-85 -133.5t-125 -74t-155 -24q-101 0 -156 22l43 242q43 -12 82 -12q57 0 85 37t28 127z" />
    <glyph glyph-name="uni028A" unicode="&#x28a;" horiz-adv-x="1239" 
d="M270 778v6h-202v217h485v-165q-82 -65 -123 -150.5t-41 -206.5q0 -114 59 -192t168 -78q107 0 169.5 78.5t62.5 193.5q0 112 -46 208.5t-122 146.5v165h489v-217h-198v-6q76 -55 128 -143.5t52 -204.5q0 -190 -153.5 -321.5t-389.5 -131.5q-123 0 -224 38t-165 101.5
t-98.5 142.5t-34.5 165q0 109 53.5 201.5t130.5 152.5z" />
    <glyph glyph-name="uni028E" unicode="&#x28e;" horiz-adv-x="1071" 
d="M1059 0h-346l-150 494q-35 126 -49 184h-8q-24 -104 -43 -186l-125 -492h-332l232 659q105 288 185 433.5t169 224.5q136 120 299 137l67 -262q-66 -14 -135 -53q-35 -19 -71 -53.5t-58 -71.5q-16 -26 -16 -45q0 -21 12 -51z" />
    <glyph glyph-name="uni0292" unicode="&#x292;" horiz-adv-x="1042" 
d="M16 -350l58 239q142 -73 315 -73q115 0 188.5 54t73.5 155q0 215 -319 215q-16 0 -43.5 -1t-32.5 -1v149l281 369h-480v245h836v-186l-272 -360q55 -13 102.5 -33t93.5 -54t78 -77t52 -104.5t20 -135.5q0 -102 -37 -189t-106.5 -152t-178.5 -101.5t-246 -36.5
q-231 0 -383 78z" />
    <glyph glyph-name="uni0294" unicode="&#x294;" horiz-adv-x="987" 
d="M573 0h-311v739q157 39 250.5 114t93.5 183q0 85 -57.5 136t-161.5 51q-69 0 -148 -20.5t-133 -47.5l-67 227q70 35 177 65t228 30q217 0 351.5 -114.5t134.5 -318.5q0 -173 -100 -290t-257 -179v-575z" />
    <glyph glyph-name="uni0295" unicode="&#x295;" horiz-adv-x="987" 
d="M707 0h-312v571q-74 26 -136 66t-112.5 94.5t-79 127.5t-28.5 157q0 215 155.5 338t397.5 123q108 0 199.5 -21t148.5 -49l-78 -238q-49 24 -120.5 39t-137.5 15q-114 0 -178 -55t-64 -146q0 -75 46.5 -132t119 -91t179.5 -60v-739z" />
    <glyph glyph-name="uni02A4" unicode="&#x2a4;" horiz-adv-x="2072" 
d="M1923 815l-272 -360q55 -13 102.5 -33t93.5 -54t78 -77t52 -104.5t20 -135.5q0 -211 -148.5 -345t-418.5 -134q-231 0 -383 78l57 239q142 -73 315 -73q115 0 188.5 54t73.5 155q0 215 -319 215q-16 0 -43.5 -1t-32.5 -1v149l281 369h-471v-457q0 -163 8 -299h-277
l-14 147h-4q-46 -83 -129.5 -126.5t-183.5 -43.5q-182 0 -305 143t-123 372q-1 244 129 388t319 144q91 0 160.5 -30t103.5 -83h4v543h312v-453h827v-186zM784 446v132q0 23 -4 55q-14 66 -63 109.5t-119 43.5q-102 0 -158.5 -80t-56.5 -204q0 -127 58 -202t155 -75
q67 0 116.5 42t63.5 108q8 31 8 71z" />
    <glyph glyph-name="uni02A6" unicode="&#x2a6;" horiz-adv-x="1384" 
d="M1276 967l-53 -215q-40 22 -99.5 39.5t-117.5 17.5q-57 0 -89 -22t-32 -60q0 -35 35 -58.5t129 -56.5q141 -49 205.5 -123.5t64.5 -185.5q0 -326 -541 -326q-324 0 -467 105t-143 342v348h-133v229h133v218l305 69v-287h361q80 23 161 23q169 0 281 -57zM473 772v-336
q0 -75 21 -123.5t66 -74.5t102 -35.5t143 -9.5q118 0 166.5 23t48.5 65q0 38 -30.5 61.5t-117.5 52.5q-149 50 -217.5 127.5t-66.5 171.5q0 36 10 78h-125z" />
    <glyph glyph-name="uni02A7" unicode="&#x2a7;" horiz-adv-x="1241" 
d="M768 1001v39q0 115 30 201t85 136.5t124.5 75t155.5 24.5q94 0 158 -27l-45 -240q-54 15 -84 15q-56 0 -84.5 -37t-28.5 -127v-1063q0 -111 -30 -194.5t-85 -133.5t-125 -74t-155 -24q-101 0 -156 22l43 242q47 -12 84 -12q56 0 84.5 37t28.5 127v784h-295v-362
q0 -177 107 -177q33 0 61 7l4 -240q-64 -23 -158 -23q-72 0 -133.5 24.5t-99.5 64.5q-86 89 -86 296v410h-133v229h133v218l305 69v-287h295z" />
    <glyph glyph-name="j.superior" unicode="&#x2b2;" horiz-adv-x="403" 
d="M-33 260l-20 160q91 11 123 43q21 21 31 66.5t10 142.5v524h215v-573q0 -201 -97 -285q-90 -78 -262 -78zM217 1479q49 0 81 -29.5t32 -73.5t-31.5 -73t-83.5 -29q-50 0 -80.5 29.5t-30.5 74.5q0 43 31.5 72t81.5 29z" />
    <glyph glyph-name="uni02B9" unicode="&#x2b9;" horiz-adv-x="419" 
d="M133 1417h275l-185 -555h-182z" />
    <glyph glyph-name="uni02BE" unicode="&#x2be;" horiz-adv-x="532" 
d="M109 1329v160q166 0 257 -76t91 -201q0 -128 -93 -205t-255 -77v162q66 0 100.5 33t34.5 85q0 46 -35.5 82.5t-99.5 36.5z" />
    <glyph glyph-name="uni02BF" unicode="&#x2bf;" horiz-adv-x="532" 
d="M424 1092v-162q-166 0 -256 76t-90 202q0 128 92 204.5t254 76.5v-160q-66 0 -99.5 -33t-33.5 -86q0 -47 34.5 -82.5t98.5 -35.5z" />
    <glyph glyph-name="circumflex" unicode="&#x2c6;" horiz-adv-x="614" 
d="M190 1434h236l211 -299h-217l-111 161h-4l-108 -161h-217z" />
    <glyph glyph-name="caron" unicode="&#x2c7;" horiz-adv-x="614" 
d="M426 1135h-238l-208 299h217l108 -164h4l111 164h217z" />
    <glyph glyph-name="uni02C8" unicode="&#x2c8;" horiz-adv-x="614" 
d="M205 1513h203v-356h-203v356z" />
    <glyph glyph-name="uni02D0" unicode="&#x2d0;" horiz-adv-x="546" 
d="M39 1001h467l-230 -356h-10zM506 0h-467l229 358h11z" />
    <glyph glyph-name="breve" unicode="&#x2d8;" horiz-adv-x="614" 
d="M14 1407h170q21 -115 123 -115q106 0 123 115h170q-6 -124 -82.5 -203.5t-210.5 -79.5q-141 0 -215.5 80.5t-77.5 202.5z" />
    <glyph glyph-name="dotaccent" unicode="&#x2d9;" horiz-adv-x="614" 
d="M250 1141q-62 0 -104 42t-42 101q0 63 42 104.5t104 41.5q60 0 99.5 -41.5t39.5 -104.5q0 -60 -39.5 -101.5t-99.5 -41.5z" />
    <glyph glyph-name="ring" unicode="&#x2da;" horiz-adv-x="614" 
d="M291 1104q-116 0 -182 57.5t-66 147.5q0 91 65.5 149t182.5 58q115 0 179.5 -56t64.5 -149t-65.5 -150t-178.5 -57zM289 1217q44 0 67 26.5t23 65.5q0 37 -23.5 65.5t-66.5 28.5q-42 0 -65 -28t-23 -66q0 -37 23 -64.5t65 -27.5z" />
    <glyph glyph-name="ogonek" unicode="&#x2db;" horiz-adv-x="614" 
d="M168 4h166l-8 -16q-8 -15 -10 -19.5t-9 -19t-10 -23.5t-7 -22t-5.5 -25t-1.5 -24q0 -47 29 -78t79 -31q52 0 92 16l43 -145q-40 -31 -97.5 -48.5t-109.5 -17.5q-109 0 -170 55.5t-61 162.5q0 64 26 130.5t54 104.5z" />
    <glyph glyph-name="tilde" unicode="&#x2dc;" horiz-adv-x="614" 
d="M143 1157h-157q-6 141 44 209t138 68q61 0 145 -48l27 -15t27.5 -14.5t22 -9t22.5 -4.5q26 0 40.5 18t18.5 73h160q0 -150 -48.5 -214.5t-136.5 -64.5q-29 0 -56 7t-44.5 15.5t-50.5 26.5q-3 2 -9 5q-62 33 -87 34q-26 0 -39.5 -17t-16.5 -69z" />
    <glyph glyph-name="hungarumlaut" unicode="&#x2dd;" horiz-adv-x="614" 
d="M135 1436h246l-176 -306h-180zM502 1436h243l-174 -306h-182z" />
    <glyph glyph-name="uni02E4" unicode="&#x2e4;" horiz-adv-x="665" 
d="M477 545h-213v368q-105 37 -171 110t-66 181q0 139 105 219t269 80q135 0 232 -45l-51 -158q-83 37 -172 37q-76 0 -119 -35.5t-43 -93.5q0 -70 60 -113.5t169 -70.5v-479z" />
    <glyph glyph-name="gravecomb" unicode="&#x300;" 
d="M-356 1438h301l192 -312h-235z" />
    <glyph glyph-name="acutecomb" unicode="&#x301;" 
d="M61 1438h310l-265 -312h-239z" />
    <glyph glyph-name="uni0302" unicode="&#x302;" 
d="M-117 1434h236l211 -299h-217l-111 161h-4l-109 -161h-217z" />
    <glyph glyph-name="tildecomb" unicode="&#x303;" 
d="M-160 1157h-157q-7 141 42.5 209t139.5 68q58 0 145 -48q7 -4 26 -14.5t27.5 -15t21 -9t21.5 -4.5q27 0 41.5 18t20.5 73h160q-1 -150 -49 -214.5t-136 -64.5q-29 0 -56 7t-44.5 15.5t-50.5 26.5q-70 39 -98 39q-25 0 -38 -17.5t-16 -68.5z" />
    <glyph glyph-name="uni0304" unicode="&#x304;" 
d="M-283 1380h568v-192h-568v192z" />
    <glyph glyph-name="uni0306" unicode="&#x306;" 
d="M-293 1407h170q21 -115 123 -115q106 0 123 115h170q-6 -124 -82.5 -203.5t-210.5 -79.5q-141 0 -215.5 80.5t-77.5 202.5z" />
    <glyph glyph-name="uni0307" unicode="&#x307;" 
d="M0 1141q-62 0 -102.5 41.5t-40.5 101.5q0 63 41 104.5t104 41.5q59 0 100 -42t41 -104q0 -59 -41 -101t-102 -42z" />
    <glyph glyph-name="uni0308" unicode="&#x308;" 
d="M-211 1141q-62 0 -104.5 42t-42.5 101q0 63 42 104.5t105 41.5q59 0 99 -41.5t40 -104.5q0 -59 -40 -101t-99 -42zM219 1141q-62 0 -103.5 42t-41.5 101q0 63 41 104.5t104 41.5q60 0 100.5 -41.5t40.5 -104.5q0 -59 -40 -101t-101 -42z" />
    <glyph glyph-name="uni030A" unicode="&#x30a;" 
d="M2 1104q-116 0 -182 57.5t-66 147.5q0 91 66.5 149t183.5 58q114 0 178 -56.5t64 -148.5q0 -93 -65.5 -150t-178.5 -57zM0 1217q44 0 67 26.5t23 65.5q0 37 -23.5 65.5t-66.5 28.5q-42 0 -65 -28t-23 -66q0 -37 23 -64.5t65 -27.5z" />
    <glyph glyph-name="uni030B" unicode="&#x30b;" 
d="M-182 1436h245l-200 -306h-174zM172 1436h246l-201 -306h-174z" />
    <glyph glyph-name="uni030C" unicode="&#x30c;" 
d="M104 1126h-208l-205 312h203l104 -178h4l104 178h203z" />
    <glyph glyph-name="uni031E" unicode="&#x31e;" 
d="M-78 -561v184h-141v152h440v-152h-141v-184h-158z" />
    <glyph glyph-name="dotbelowcomb" unicode="&#x323;" 
d="M2 -164q60 0 100.5 -41t40.5 -104q0 -59 -41 -101.5t-102 -42.5t-102 42.5t-41 101.5q0 63 41.5 104t103.5 41z" />
    <glyph glyph-name="uni032E" unicode="&#x32e;" 
d="M-285 -174h162q8 -57 38.5 -91t82.5 -34q59 0 90.5 36.5t34.5 88.5h162q-2 -133 -76.5 -212t-210.5 -79q-137 0 -209 81t-74 210z" />
    <glyph glyph-name="uni0331" unicode="&#x331;" 
d="M-281 -207h564v-190h-564v190z" />
    <glyph glyph-name="uni0361" unicode="&#x361;" 
d="M1485 1137h-266q-39 34 -90.5 64.5t-126.5 61t-179 48.5t-223 18q-110 0 -205.5 -13.5t-157.5 -31.5t-121 -47.5t-88 -49.5t-67 -50h-260q32 47 80 93.5t128 98t176 90t231 63.5t286 25q148 0 279.5 -25t224.5 -63t171.5 -89.5t125.5 -97.5t82 -95z" />
    <glyph glyph-name="theta" unicode="&#x3b8;" horiz-adv-x="1167" 
d="M584 -23q-247 0 -381.5 195t-134.5 565q0 214 58 378.5t179.5 263t292.5 98.5q127 0 224 -54t157.5 -153t90.5 -233t30 -300q0 -233 -54.5 -400.5t-172 -263.5t-289.5 -96zM375 852h416q0 180 -53.5 294t-151.5 114q-99 0 -155 -115.5t-56 -292.5zM795 629h-418
q0 -201 56 -317.5t157 -116.5q102 0 153.5 117t51.5 317z" />
    <glyph glyph-name="pi" unicode="&#x3c0;" horiz-adv-x="1228" 
d="M1165 766h-121v-453q0 -192 23 -313h-297q-35 48 -35 291v475h-217q-2 -186 -33.5 -420.5t-76.5 -345.5h-299q45 150 77 378.5t31 387.5q-119 0 -178 -14l-33 182q70 67 359 67h829z" />
    <glyph glyph-name="chi" unicode="&#x3c7;" horiz-adv-x="1032" 
d="M10 1001h334l195 -452h8q30 84 71 176l115 276h297l-346 -679l346 -715l-295 -70l-235 524l-11 -2q-5 -12 -30 -77t-47 -113l-148 -332l-264 72l354 713z" />
    <glyph glyph-name="uni05B0" unicode="&#x5b0;" 
d="M0 -150q36 0 63 -26t27 -64q0 -40 -26.5 -65t-63.5 -25t-63.5 25t-26.5 65q0 39 27 64.5t63 25.5zM0 -408q36 0 63 -26t27 -64q0 -40 -26.5 -65t-63.5 -25t-63.5 25t-26.5 65q0 39 27 64.5t63 25.5z" />
    <glyph glyph-name="uni05B1" unicode="&#x5b1;" 
d="M266 -408q36 0 59 -23t23 -58t-23 -59.5t-59 -24.5t-59 24.5t-23 59.5t23 58t59 23zM266 -150q36 0 59 -23.5t23 -59.5q0 -35 -22.5 -57.5t-59.5 -22.5t-59.5 22.5t-22.5 57.5q0 36 23 59.5t59 23.5zM2 -150q36 0 59 -23.5t23 -59.5q0 -35 -22.5 -57.5t-59.5 -22.5
q-35 0 -59.5 22.5t-24.5 57.5t25 59t59 24zM-129 -408q33 0 55.5 -23t22.5 -58q0 -34 -23 -59t-55 -25q-36 0 -60 25t-24 59q0 35 23.5 58t60.5 23zM-266 -150q36 0 57 -23.5t21 -59.5t-21 -58t-57 -22q-34 0 -56 22.5t-22 57.5t22 59t56 24z" />
    <glyph glyph-name="uni05B2" unicode="&#x5b2;" 
d="M41 -164v-106h-330v106h330zM233 -150q36 0 63.5 -26.5t27.5 -63.5q0 -40 -27 -65t-64 -25t-63.5 25t-26.5 65q0 39 27 64.5t63 25.5zM233 -408q36 0 63.5 -26.5t27.5 -63.5q0 -40 -27 -65t-64 -25t-63.5 25t-26.5 65q0 39 27 64.5t63 25.5z" />
    <glyph glyph-name="uni05B3" unicode="&#x5b3;" 
d="M233 -150q36 0 63.5 -26.5t27.5 -63.5q0 -40 -27 -65t-64 -25t-63.5 25t-26.5 65q0 39 27 64.5t63 25.5zM233 -408q36 0 63.5 -26.5t27.5 -63.5q0 -40 -27 -65t-64 -25t-63.5 25t-26.5 65q0 39 27 64.5t63 25.5zM41 -164v-106h-117l19 -209h-127l18 209h-123v106h330z
" />
    <glyph glyph-name="uni05B4" unicode="&#x5b4;" 
d="M0 -150q36 0 63 -26t27 -64q0 -40 -26.5 -65t-63.5 -25t-63.5 25t-26.5 65q0 39 27 64.5t63 25.5z" />
    <glyph glyph-name="uni05B5" unicode="&#x5b5;" 
d="M-139 -150q36 0 63 -26t27 -64q0 -40 -26.5 -65t-63.5 -25t-63.5 25t-26.5 65q0 39 27 64.5t63 25.5zM135 -150q36 0 63 -26t27 -64q0 -40 -26.5 -65t-63.5 -25t-63.5 25t-26.5 65q0 39 27 64.5t63 25.5z" />
    <glyph glyph-name="uni05B6" unicode="&#x5b6;" 
d="M-139 -150q36 0 63 -26t27 -64q0 -40 -26.5 -65t-63.5 -25t-63.5 25t-26.5 65q0 39 27 64.5t63 25.5zM135 -150q36 0 63 -26t27 -64q0 -40 -26.5 -65t-63.5 -25t-63.5 25t-26.5 65q0 39 27 64.5t63 25.5zM0 -377q36 0 63 -26t27 -64q0 -40 -26.5 -65t-63.5 -25t-63.5 25
t-26.5 65q0 39 27 64.5t63 25.5z" />
    <glyph glyph-name="uni05B7" unicode="&#x5b7;" 
d="M227 -164v-106h-454v106h454z" />
    <glyph glyph-name="uni05B8" unicode="&#x5b8;" 
d="M225 -164v-106h-180l18 -209h-126l18 209h-184v106h454z" />
    <glyph glyph-name="uni05B9" unicode="&#x5b9;" 
d="M0 1452q36 0 63 -26t27 -64q0 -41 -26.5 -65.5t-63.5 -24.5t-63.5 25t-26.5 65q0 39 27 64.5t63 25.5z" />
    <glyph glyph-name="uni05BA" unicode="&#x5ba;" 
d="M0 1452q36 0 63 -26t27 -64q0 -41 -26.5 -65.5t-63.5 -24.5t-63.5 25t-26.5 65q0 39 27 64.5t63 25.5z" />
    <glyph glyph-name="uni05BB" unicode="&#x5bb;" 
d="M-164 -141q35 0 59.5 -24.5t24.5 -59.5q0 -38 -24 -62t-60 -24q-38 0 -62 24t-24 62q0 36 24 60t62 24zM0 -328q36 0 62 -25t26 -63q0 -34 -26.5 -60t-61.5 -26t-61.5 26t-26.5 60q0 38 26 63t62 25zM164 -528q33 0 57.5 -24.5t24.5 -57.5q0 -38 -24 -62t-58 -24
q-37 0 -61.5 23.5t-24.5 62.5q0 34 25 58t61 24z" />
    <glyph glyph-name="uni05BC" unicode="&#x5bc;" 
d="M0 655q36 0 63 -25.5t27 -64.5q0 -40 -26.5 -65t-63.5 -25t-63.5 25t-26.5 65q0 39 27 64.5t63 25.5z" />
    <glyph glyph-name="uni05BD" unicode="&#x5bd;" 
d="M-41 -168h82v-391h-82v391z" />
    <glyph glyph-name="uni05BE" unicode="&#x5be;" horiz-adv-x="675" 
d="M61 809v321h553v-321h-553z" />
    <glyph glyph-name="uni05BF" unicode="&#x5bf;" 
d="M227 1395v-107h-454v107h454z" />
    <glyph glyph-name="uni05C0" unicode="&#x5c0;" horiz-adv-x="661" 
d="M205 -217v1573h225v-1573h-225z" />
    <glyph glyph-name="uni05C1" unicode="&#x5c1;" 
d="M0 1452q36 0 63 -26t27 -64q0 -41 -26.5 -65.5t-63.5 -24.5t-63.5 25t-26.5 65q0 39 27 64.5t63 25.5z" />
    <glyph glyph-name="uni05C2" unicode="&#x5c2;" 
d="M0 1452q36 0 63 -26t27 -64q0 -41 -26.5 -65.5t-63.5 -24.5t-63.5 25t-26.5 65q0 39 27 64.5t63 25.5z" />
    <glyph glyph-name="uni05C3" unicode="&#x5c3;" horiz-adv-x="653" 
d="M326 731q-79 0 -131 53.5t-52 133.5q0 83 51.5 135.5t133.5 52.5q81 0 130.5 -51.5t51.5 -136.5q0 -81 -51 -134t-133 -53zM326 -23q-79 0 -131 53.5t-52 133.5q0 83 51.5 135.5t133.5 52.5q81 0 130.5 -51.5t51.5 -136.5q0 -81 -51 -134t-133 -53z" />
    <glyph glyph-name="uni05C7" unicode="&#x5c7;" 
d="M205 -164v-106h-158l10 -353h-114l10 353h-162v106h414z" />
    <glyph glyph-name="uni05D0" unicode="&#x5d0;" horiz-adv-x="1241" 
d="M137 0q-35 128 -35 281q0 335 213 505q-126 156 -305 320l6 14l377 21q133 -133 375 -465q53 50 53 153q-3 127 -82 289l353 25q30 -94 30 -230q0 -51 -11 -103t-35.5 -108t-71.5 -107t-111 -87q93 -123 186.5 -264t151.5 -244h-357q-150 268 -417 600q-51 -79 -47 -211
q0 -80 13.5 -159.5t26 -120.5t35.5 -109h-348z" />
    <glyph glyph-name="uni05D1" unicode="&#x5d1;" horiz-adv-x="1103" 
d="M37 -6l53 315q72 10 318 10h266q0 236 -4 308q-4 58 -11.5 89.5t-27.5 54.5t-53 30.5t-89 7.5h-190q-173 0 -225 18l53 314q49 -11 297 -11h168q74 0 127 -8.5t91.5 -30.5t61.5 -52.5t37 -82.5t18.5 -111t4.5 -147v-143q0 -195 -10 -236h137l-49 -319h-676
q-240 0 -297 -6z" />
    <glyph glyph-name="uni05D2" unicode="&#x5d2;" horiz-adv-x="851" 
d="M37 -16l53 350q168 0 263.5 72.5t95.5 183.5v41q0 77 -33 110.5t-127 53.5q-31 9 -74.5 19t-73.5 17.5t-43 14.5l58 309q48 -16 204 -43q75 -15 127 -32t92.5 -44.5t65 -60.5t41 -84.5t24 -111t11.5 -146.5l10 -234q15 -295 39 -399h-268q-17 34 -29 116.5t-12 149.5
q-91 -282 -424 -282z" />
    <glyph glyph-name="uni05D3" unicode="&#x5d3;" horiz-adv-x="1032" 
d="M246 809q-174 0 -223 18l49 314q50 -11 342 -11h553l-54 -321h-39q-57 0 -79.5 -33.5t-22.5 -116.5q0 -171 14 -659h-270q0 20 -7 242t-7 321q0 105 11.5 158t39.5 88h-307z" />
    <glyph glyph-name="uni05D4" unicode="&#x5d4;" horiz-adv-x="1224" 
d="M127 0v541h270v-541h-270zM821 0v559q0 155 -27.5 202.5t-125.5 47.5h-342q-196 0 -246 18l51 314q49 -11 342 -11h242q85 0 145.5 -10t102.5 -36t67.5 -58.5t39 -89t18 -115.5t4.5 -149v-672h-271z" />
    <glyph glyph-name="uni05D5" unicode="&#x5d5;" horiz-adv-x="747" 
d="M346 0v598q0 108 -28.5 146.5t-124.5 60.5q-119 25 -170 41l51 309q69 -20 194 -39q87 -14 144 -35t98.5 -54t63.5 -86.5t32 -124t10 -175.5v-641h-270z" />
    <glyph glyph-name="uni05D6" unicode="&#x5d6;" horiz-adv-x="817" 
d="M231 0q-29 397 -26 524q3 175 84 262q-75 9 -157 27t-109 31l51 311q65 -28 288.5 -59.5t389.5 -44.5l-43 -316q-16 1 -72 8t-70 7q-50 4 -69 -21t-21 -94q-5 -121 31 -635h-277z" />
    <glyph glyph-name="uni05D7" unicode="&#x5d7;" horiz-adv-x="1255" 
d="M162 0v541q0 186 22 272q-12 1 -46.5 4t-59 5.5t-31.5 4.5l51 314q62 -11 342 -11h312q56 0 101.5 -5.5t81.5 -15t63.5 -27t47.5 -37t34 -50t22.5 -61t13.5 -75t6.5 -87t1.5 -100.5v-672h-270v592q0 129 -31 173t-131 44h-262v-809h-268z" />
    <glyph glyph-name="uni05D8" unicode="&#x5d8;" horiz-adv-x="1230" 
d="M268 -16q-127 752 -239 1134l329 23q70 -345 129 -826q60 4 138 21q114 26 177.5 98t63.5 187q0 97 -50 151t-142 55q-56 0 -133 -18l53 317q75 21 160 21q88 0 156.5 -28t111 -73.5t70 -108t38.5 -126t11 -133.5q-1 -121 -32.5 -222.5t-81 -170t-118 -120.5t-136 -81.5
t-142.5 -46.5q-50 -12 -110.5 -22t-95.5 -14.5t-93.5 -10t-63.5 -6.5z" />
    <glyph glyph-name="uni05D9" unicode="&#x5d9;" horiz-adv-x="636" 
d="M346 322l-211 102q129 200 129 293q0 42 -24 58.5t-90 31.5q-93 25 -127 37l49 309q58 -17 131 -29q189 -28 262.5 -100.5t73.5 -208.5q0 -113 -52 -242t-141 -251z" />
    <glyph glyph-name="uni05DA" unicode="&#x5da;" horiz-adv-x="1007" 
d="M606 -397v1065q0 69 -8.5 98.5t-24 36t-55.5 6.5h-272q-174 0 -223 18l49 314q62 -11 342 -11h295q39 0 63 -3t44 -14t30 -27t17 -49.5t9 -73.5t2 -105v-1255h-268z" />
    <glyph glyph-name="uni05DB" unicode="&#x5db;" horiz-adv-x="1103" 
d="M37 -6l53 315q45 8 299 8h316q18 119 18 246q0 78 -12 126t-42 74.5t-71.5 36t-110.5 9.5h-168q-193 0 -245 18l53 314q47 -11 274 -11h158q90 0 154.5 -11t114 -37.5t80.5 -66t50.5 -102t27 -139.5t7.5 -184q0 -231 -69 -590h-588q-256 0 -299 -6z" />
    <glyph glyph-name="uni05DC" unicode="&#x5dc;" horiz-adv-x="1013" 
d="M160 -18l59 350q184 39 301 140t117 230q0 64 -28 85.5t-97 21.5h-477v373q0 287 -29 348l275 39q9 -24 16.5 -125.5t7.5 -208.5v-105h316q74 0 123.5 -11.5t91.5 -43.5t62 -94t20 -158q0 -140 -43.5 -267.5t-118 -224t-172 -171.5t-205.5 -119.5t-219 -58.5z" />
    <glyph glyph-name="uni05DD" unicode="&#x5dd;" horiz-adv-x="1277" 
d="M770 1130q73 0 127.5 -9t94.5 -24.5t67.5 -44.5t44.5 -62t26 -85t12 -104.5t3 -128.5v-355q0 -12 -19 -125.5t-34 -191.5h-930v645q0 76 18 168q-97 0 -133 16l51 312q65 -11 287 -11h385zM885 582q0 128 -31.5 177.5t-124.5 49.5h-309v-490h465v263z" />
    <glyph glyph-name="uni05DE" unicode="&#x5de;" horiz-adv-x="1304" 
d="M100 0q87 472 101 612q22 176 -164 201l53 334q274 -20 332 -264q15 35 34 67.5t52 70t72 64t95 44.5t120 18q393 0 393 -664v-172q-1 -14 -21.5 -154.5t-21.5 -156.5h-404q-145 0 -192 -6l51 313q51 10 207 10h104q7 89 7 154q0 51 -2 88.5t-8.5 81.5t-20 74t-34.5 57
t-54.5 40t-77.5 13q-46 0 -84 -19.5t-62.5 -47.5t-45 -70t-31 -75t-21.5 -76q-42 -148 -108 -537h-269z" />
    <glyph glyph-name="uni05DF" unicode="&#x5df;" horiz-adv-x="749" 
d="M346 -397v999q0 100 -28.5 138.5t-122.5 58.5q-142 33 -172 45l51 311q85 -24 198 -43q143 -24 214 -68.5t100.5 -130t29.5 -247.5v-1063h-270z" />
    <glyph glyph-name="uni05E0" unicode="&#x5e0;" horiz-adv-x="860" 
d="M37 -6l53 317q63 8 264 8h105v277q0 100 -29 138.5t-127 58.5q-151 29 -219 53l53 309q54 -15 209 -41q77 -13 130 -28.5t98.5 -39.5t72.5 -56t46 -80t26.5 -109t7.5 -146v-346l-49 -309h-344q-226 0 -297 -6z" />
    <glyph glyph-name="uni05E1" unicode="&#x5e1;" horiz-adv-x="1243" 
d="M274 -16q-22 114 -80 448.5t-67 382.5q-81 10 -96 14l53 312q50 -11 340 -11h381q87 0 148 -16.5t98 -44.5t57.5 -76.5t27.5 -101t7 -129.5q0 -127 -31.5 -239.5t-85 -195.5t-125.5 -147.5t-151.5 -103.5t-165.5 -56q-46 -9 -99.5 -16.5t-84.5 -10t-77.5 -6t-48.5 -3.5z
M489 309q27 2 117 19q137 29 200.5 127.5t63.5 228.5q0 72 -33 98.5t-126 26.5h-310q9 -51 42.5 -240.5t45.5 -259.5z" />
    <glyph glyph-name="uni05E2" unicode="&#x5e2;" horiz-adv-x="1218" 
d="M82 242q229 4 354 32q-39 142 -171 419.5t-249 424.5l383 23q83 -147 164 -363t125 -434q65 23 100 99.5t35 197.5q0 223 -108 477l348 23q51 -148 51 -373q-1 -71 -5.5 -127t-17 -127.5t-39 -130.5t-67 -119.5t-104.5 -113.5t-148 -95q-224 -115 -702 -155z" />
    <glyph glyph-name="uni05E3" unicode="&#x5e3;" horiz-adv-x="1161" 
d="M455 283q-383 15 -383 348q0 78 27.5 161.5t77.5 193.5t71 169q60 -15 284 -43q96 -11 163 -25.5t126 -41t95.5 -65t63 -96.5t37.5 -135.5t11 -183.5v-962h-270v872q0 74 -5.5 120t-19.5 84t-43.5 59t-72.5 36t-111 25q-41 7 -77 11.5t-55 7t-26 3.5q-24 -54 -24 -86
q0 -104 190 -125z" />
    <glyph glyph-name="uni05E4" unicode="&#x5e4;" horiz-adv-x="1224" 
d="M63 -6l54 313q22 4 61.5 6.5t71.5 3t89.5 1.5t80.5 1h401v228q0 68 -9 108t-38 68.5t-71.5 43t-120.5 28.5q-45 8 -117 19.5t-92 14.5q-19 -34 -19 -55q0 -75 156 -80l-47 -286q-184 7 -268 81.5t-84 208.5q0 67 24.5 143t65 168t57.5 146q36 -12 338 -47
q90 -11 153.5 -25t123.5 -38t98 -59.5t67 -88t41.5 -125t12.5 -168.5v-305q-3 -20 -20.5 -150.5t-20.5 -148.5h-670q-259 0 -318 -6z" />
    <glyph glyph-name="uni05E5" unicode="&#x5e5;" horiz-adv-x="1093" 
d="M297 215q0 110 -8 176q-16 166 -109 371t-203 354l379 27q135 -243 187 -557q151 65 151 245q0 149 -63 285l346 25q29 -85 29 -209q0 -421 -443 -580q4 -40 4 -196v-553h-270v612z" />
    <glyph glyph-name="uni05E6" unicode="&#x5e6;" horiz-adv-x="1130" 
d="M63 -6l78 315q82 10 291 10h215q-90 84 -332 379q-46 55 -175 216t-165 204l404 25q176 -261 278 -406q42 20 57 56t15 94q0 48 -18.5 115.5t-42.5 113.5l344 25q24 -74 24 -158q0 -69 -11 -124.5t-39 -110t-81 -99.5t-131 -80q220 -267 273 -305l-68 -264h-576
q-277 0 -340 -6z" />
    <glyph glyph-name="uni05E7" unicode="&#x5e7;" horiz-adv-x="1210" 
d="M489 -16l54 383q301 71 301 327q0 68 -33.5 91.5t-118.5 23.5h-344q-211 0 -268 18l51 314q19 -4 44.5 -6.5t65.5 -3.5t60.5 -1h73.5h61h303q212 0 293.5 -79.5t81.5 -280.5q0 -163 -50.5 -301.5t-137.5 -235t-198 -160t-239 -89.5zM127 -397v958h270v-958h-270z" />
    <glyph glyph-name="uni05E8" unicode="&#x5e8;" horiz-adv-x="1028" 
d="M627 0v602q0 122 -31 164.5t-125 42.5h-225q-174 0 -223 18l49 314q50 -11 342 -11h106q86 0 145.5 -8t102.5 -30t67.5 -50.5t38.5 -80t18.5 -108t4.5 -144.5v-709h-270z" />
    <glyph glyph-name="uni05E9" unicode="&#x5e9;" horiz-adv-x="1394" 
d="M260 -14q-40 280 -113 641t-118 491l321 23q33 -154 74 -477q78 18 105.5 59.5t27.5 112.5q0 117 -51 282l311 25q35 -132 35 -264q0 -87 -20 -153.5t-65.5 -122t-125.5 -92t-195 -54.5q0 -5 9 -74.5t12 -81.5q133 3 248 37q155 44 223 135.5t68 271.5q0 74 -16.5 177
t-47.5 196l313 21q35 -128 35 -328q0 -116 -21 -216t-56.5 -173.5t-86.5 -135t-105.5 -103t-120 -73t-124 -49.5t-121.5 -30q-221 -41 -395 -45z" />
    <glyph glyph-name="uni05EA" unicode="&#x5ea;" horiz-adv-x="1300" 
d="M47 -12l55 321q48 10 127 10h21q2 86 -6.5 251t-18.5 239h-4q-26 0 -68 6t-59 14l53 310q14 -3 39 -5.5t70 -3t74 -0.5h97h93h273q86 0 146 -8t102.5 -30t67 -50t38.5 -80.5t18 -108t4 -144.5v-709h-270v602q0 122 -31.5 164.5t-126.5 42.5h-247q6 -81 13 -246.5
t7 -245.5l-43 -317h-227q-150 0 -197 -12z" />
    <glyph glyph-name="uni05F0" unicode="&#x5f0;" horiz-adv-x="1486" 
d="M346 0v598q0 108 -28.5 146.5t-124.5 60.5q-119 25 -170 41l51 309q69 -20 194 -39q87 -14 144 -35t98.5 -54t63.5 -86.5t32 -124t10 -175.5v-641h-270zM1087 0v598q0 108 -28.5 146.5t-124.5 60.5q-119 25 -170 41l51 309q68 -19 195 -39q87 -14 144 -35t98.5 -54
t63.5 -86.5t32 -124t10 -175.5v-641h-271z" />
    <glyph glyph-name="uni05F1" unicode="&#x5f1;" horiz-adv-x="1363" 
d="M346 322l-211 102q129 200 129 293q0 42 -24 58.5t-90 31.5q-93 25 -127 37l49 309q58 -17 131 -29q189 -28 262.5 -100.5t73.5 -208.5q0 -113 -52 -242t-141 -251zM965 0v598q0 108 -28.5 146.5t-125.5 60.5q-119 25 -170 41l51 309q68 -20 197 -39q87 -14 143.5 -35
t98 -54t63.5 -86.5t31.5 -124t9.5 -175.5v-641h-270z" />
    <glyph glyph-name="uni05F2" unicode="&#x5f2;" horiz-adv-x="1239" 
d="M344 322l-211 102q129 200 129 293q0 41 -25 58t-90 32q-82 21 -129 37l52 309q54 -16 131 -29q188 -28 262 -101t74 -208q0 -112 -52.5 -240.5t-140.5 -252.5zM963 322l-211 102q129 200 129 293q0 41 -24.5 58t-90.5 32q-94 25 -129 37l51 309q62 -18 131 -29
q188 -28 262 -101t74 -208q0 -112 -52 -241t-140 -252z" />
    <glyph glyph-name="uni05F3" unicode="&#x5f3;" horiz-adv-x="581" 
d="M88 702l141 547l299 13l-223 -547z" />
    <glyph glyph-name="uni05F4" unicode="&#x5f4;" horiz-adv-x="1024" 
d="M530 702l142 547l299 13l-223 -547zM88 702l141 547l299 13l-223 -547z" />
    <glyph glyph-name="uni1E06" unicode="&#x1e06;" horiz-adv-x="1236" 
d="M135 6v1356q149 29 404 29q146 0 240 -17.5t167 -60.5q75 -40 120.5 -110.5t45.5 -160.5q0 -96 -57 -174.5t-170 -119.5v-5q123 -34 198.5 -122.5t75.5 -217.5q0 -176 -143 -292q-156 -125 -543 -125q-198 0 -338 20zM444 1155v-321h103q121 0 186.5 46t65.5 124
t-57.5 118.5t-163.5 40.5q-80 0 -134 -8zM444 610v-389q31 -4 121 -4q74 0 132 19t96 65.5t38 114.5q0 99 -77 146.5t-203 47.5h-107zM332 -207h563v-190h-563v190z" />
    <glyph glyph-name="uni1E07" unicode="&#x1e07;" horiz-adv-x="1224" 
d="M125 299v1155h311v-571h4q45 66 123 103.5t180 37.5q182 0 298.5 -139.5t115.5 -366.5q0 -105 -25.5 -194t-70 -152t-103 -107.5t-124.5 -66t-136 -21.5q-203 0 -301 162h-4l-12 -139h-264q8 132 8 299zM436 573v-147q0 -31 6 -55q15 -64 66 -106t117 -42
q100 0 157.5 74.5t57.5 208.5q0 123 -55 200.5t-160 77.5q-64 0 -116 -43t-67 -110q-6 -27 -6 -58zM352 -207h563v-190h-563v190z" />
    <glyph glyph-name="uni1E0C" unicode="&#x1e0c;" horiz-adv-x="1425" 
d="M135 6v1356q185 29 422 29q194 0 329 -36t236 -112q234 -173 234 -520q0 -189 -62 -329t-168 -230q-213 -178 -637 -178q-198 0 -354 20zM449 1139v-903q31 -7 108 -7q219 -2 343 120.5t124 363.5q1 212 -114.5 325t-319.5 113q-87 0 -141 -12zM664 -164q60 0 100.5 -41
t40.5 -104q0 -59 -41 -101.5t-102 -42.5t-102.5 42.5t-41.5 101.5q0 63 42 104t104 41z" />
    <glyph glyph-name="uni1E0D" unicode="&#x1e0d;" horiz-adv-x="1220" 
d="M784 1454h312v-1155q0 -163 8 -299h-277l-14 147h-4q-46 -83 -129.5 -126.5t-183.5 -43.5q-182 0 -305 143t-123 372q-1 244 129 388t319 144q91 0 160.5 -30t103.5 -83h4v543zM784 446v132q0 23 -4 55q-14 66 -63 109.5t-119 43.5q-102 0 -158.5 -80t-56.5 -204
q0 -127 58 -202t155 -75q67 0 116.5 42t63.5 108q8 31 8 71zM604 -164q60 0 100.5 -41t40.5 -104q0 -59 -41 -101.5t-102 -42.5t-102 42.5t-41 101.5q0 63 41.5 104t103.5 41z" />
    <glyph glyph-name="uni1E0E" unicode="&#x1e0e;" horiz-adv-x="1425" 
d="M135 6v1356q185 29 422 29q194 0 329 -36t236 -112q234 -173 234 -520q0 -189 -62 -329t-168 -230q-213 -178 -637 -178q-198 0 -354 20zM449 1139v-903q31 -7 108 -7q219 -2 343 120.5t124 363.5q1 212 -114.5 325t-319.5 113q-87 0 -141 -12zM381 -207h563v-190h-563
v190z" />
    <glyph glyph-name="uni1E0F" unicode="&#x1e0f;" horiz-adv-x="1220" 
d="M784 1454h312v-1155q0 -163 8 -299h-277l-14 147h-4q-46 -83 -129.5 -126.5t-183.5 -43.5q-182 0 -305 143t-123 372q-1 244 129 388t319 144q91 0 160.5 -30t103.5 -83h4v543zM784 446v132q0 23 -4 55q-14 66 -63 109.5t-119 43.5q-102 0 -158.5 -80t-56.5 -204
q0 -127 58 -202t155 -75q67 0 116.5 42t63.5 108q8 31 8 71zM322 -207h563v-190h-563v190z" />
    <glyph glyph-name="uni1E20" unicode="&#x1e20;" horiz-adv-x="1396" 
d="M1288 791v-728q-87 -30 -212 -53.5t-249 -23.5q-369 0 -561 186q-95 89 -145.5 219t-48.5 283q1 224 104 389t279.5 248.5t404.5 83.5q124 0 224.5 -20t158.5 -48l-65 -250q-138 60 -322 60q-204 0 -330.5 -115.5t-126.5 -331.5q0 -210 120 -331t315 -121q111 0 153 20
v289h-213v244h514z" />
    <glyph glyph-name="uni1E21" unicode="&#x1e21;" horiz-adv-x="1198" 
d="M1073 705v-560q0 -316 -151 -450q-145 -123 -408 -123q-101 0 -197.5 20.5t-162.5 57.5l61 235q53 -31 131 -53t160 -22q117 0 188.5 66t71.5 198v65h-4q-44 -63 -114 -97t-156 -34q-186 0 -305 137t-119 353q0 235 132 380.5t322 145.5q187 0 275 -141h4l10 118h270
q-8 -126 -8 -296zM762 446v148q0 33 -6 57q-18 63 -61.5 100t-106.5 37q-88 0 -146.5 -76t-58.5 -208q0 -116 54.5 -191t150.5 -75q59 0 104 35.5t60 91.5q10 29 10 81zM322 1380h567v-192h-567v192z" />
    <glyph glyph-name="uni1E24" unicode="&#x1e24;" horiz-adv-x="1411" 
d="M135 1380h314v-530h514v530h311v-1380h-311v578h-514v-578h-314v1380zM707 -164q60 0 100.5 -41t40.5 -104q0 -59 -41 -101.5t-102 -42.5t-102.5 42.5t-41.5 101.5q0 63 42 104t104 41z" />
    <glyph glyph-name="uni1E25" unicode="&#x1e25;" horiz-adv-x="1200" 
d="M125 0v1454h311v-571h4q50 65 123 102q73 39 162 39q157 0 253.5 -110.5t96.5 -327.5v-586h-311v551q0 221 -162 221q-57 0 -97 -31t-59 -77q-10 -25 -10 -70v-594h-311zM604 -164q60 0 100.5 -41t40.5 -104q0 -59 -41 -101.5t-102 -42.5t-102 42.5t-41 101.5
q0 63 41.5 104t103.5 41z" />
    <glyph glyph-name="uni1E2A" unicode="&#x1e2a;" horiz-adv-x="1411" 
d="M135 1380h314v-530h514v530h311v-1380h-311v578h-514v-578h-314v1380zM420 -174h162q8 -57 38 -91t82 -34q59 0 90.5 36.5t34.5 88.5h162q-2 -133 -76.5 -212t-210.5 -79q-137 0 -208.5 80.5t-73.5 210.5z" />
    <glyph glyph-name="uni1E2B" unicode="&#x1e2b;" horiz-adv-x="1200" 
d="M125 0v1454h311v-571h4q50 65 123 102q73 39 162 39q157 0 253.5 -110.5t96.5 -327.5v-586h-311v551q0 221 -162 221q-57 0 -97 -31t-59 -77q-10 -25 -10 -70v-594h-311zM317 -174h162q8 -57 38.5 -91t82.5 -34q59 0 90.5 36.5t34.5 88.5h162q-2 -133 -76.5 -212
t-210.5 -79q-137 0 -209 81t-74 210z" />
    <glyph glyph-name="uni1E32" unicode="&#x1e32;" horiz-adv-x="1257" 
d="M135 0v1380h309v-610h7q27 45 94 152l313 458h383l-457 -587l482 -793h-365l-338 596l-119 -145v-451h-309zM686 -164q60 0 100.5 -41t40.5 -104q0 -59 -41 -101.5t-102 -42.5t-102 42.5t-41 101.5q0 63 41.5 104t103.5 41z" />
    <glyph glyph-name="uni1E33" unicode="&#x1e33;" horiz-adv-x="1110" 
d="M436 1454v-874h4q34 62 72 120l203 301h375l-359 -405l410 -596h-383l-242 412l-80 -99v-313h-311v1454h311zM586 -164q60 0 100.5 -41t40.5 -104q0 -59 -41 -101.5t-102 -42.5t-102.5 42.5t-41.5 101.5q0 63 42 104t104 41z" />
    <glyph glyph-name="uni1E34" unicode="&#x1e34;" horiz-adv-x="1257" 
d="M135 0v1380h309v-610h7q27 45 94 152l313 458h383l-457 -587l482 -793h-365l-338 596l-119 -145v-451h-309zM403 -207h564v-190h-564v190z" />
    <glyph glyph-name="uni1E35" unicode="&#x1e35;" horiz-adv-x="1110" 
d="M436 1454v-874h4q34 62 72 120l203 301h375l-359 -405l410 -596h-383l-242 412l-80 -99v-313h-311v1454h311zM303 -207h563v-190h-563v190z" />
    <glyph glyph-name="uni1E62" unicode="&#x1e62;" horiz-adv-x="1105" 
d="M82 63l63 259q168 -86 347 -86q105 0 162 40t57 109q0 63 -52.5 106.5t-179.5 88.5q-379 132 -379 407q0 181 141.5 297.5t381.5 116.5q201 0 352 -68l-70 -252q-134 66 -289 66q-97 0 -148.5 -38t-51.5 -95q0 -62 55 -100.5t201 -94.5q184 -68 271 -167t87 -244
q0 -88 -34.5 -165t-101 -137t-175 -94.5t-246.5 -34.5q-112 0 -219.5 25.5t-171.5 60.5zM549 -164q60 0 100.5 -41t40.5 -104q0 -59 -41 -101.5t-102 -42.5t-102.5 42.5t-41.5 101.5q0 63 42 104t104 41z" />
    <glyph glyph-name="uni1E63" unicode="&#x1e63;" horiz-adv-x="888" 
d="M68 49l55 223q46 -28 124.5 -51.5t143.5 -23.5q133 0 133 84q0 38 -30 61.5t-117 52.5q-148 50 -217.5 128t-67.5 171q0 143 112.5 236.5t295.5 93.5q170 0 282 -57l-55 -215q-103 57 -217 57q-57 0 -88 -21.5t-31 -60.5q0 -35 34 -58.5t128 -56.5q141 -49 205.5 -123.5
t66.5 -185.5q0 -145 -113 -235.5t-321 -90.5q-190 0 -323 72zM430 -164q60 0 100.5 -41t40.5 -104q0 -59 -41 -101.5t-102 -42.5t-102 42.5t-41 101.5q0 63 41.5 104t103.5 41z" />
    <glyph glyph-name="uni1E6C" unicode="&#x1e6c;" horiz-adv-x="1122" 
d="M401 0v1118h-370v262h1061v-262h-377v-1118h-314zM563 -164q60 0 101 -41t41 -104q0 -59 -41.5 -101.5t-102.5 -42.5t-102 42.5t-41 101.5q0 63 41.5 104t103.5 41z" />
    <glyph glyph-name="uni1E6D" unicode="&#x1e6d;" horiz-adv-x="751" 
d="M168 1219l305 69v-287h223v-229h-223v-362q0 -94 27 -135.5t96 -41.5q40 0 92 9l2 -236q-74 -29 -203 -29q-72 0 -133.5 24.5t-99.5 64.5q-86 89 -86 296v410h-133v229h133v218zM453 -164q60 0 100.5 -41t40.5 -104q0 -59 -41 -101.5t-102 -42.5t-102.5 42.5t-41.5 101.5
q0 63 42 104t104 41z" />
    <glyph glyph-name="uni1E6E" unicode="&#x1e6e;" horiz-adv-x="1122" 
d="M401 0v1118h-370v262h1061v-262h-377v-1118h-314zM281 -207h563v-190h-563v190z" />
    <glyph glyph-name="uni1E6F" unicode="&#x1e6f;" horiz-adv-x="751" 
d="M168 1219l305 69v-287h223v-229h-223v-362q0 -94 27 -135.5t96 -41.5q40 0 92 9l2 -236q-74 -29 -203 -29q-72 0 -133.5 24.5t-99.5 64.5q-86 89 -86 296v410h-133v229h133v218zM170 -207h563v-190h-563v190z" />
    <glyph glyph-name="uni1E7E" unicode="&#x1e7e;" horiz-adv-x="1302" 
d="M825 0h-364l-443 1380h342l168 -583q85 -298 123 -494h6q49 233 125 488l176 589h332zM649 -164q60 0 101 -41t41 -104q0 -59 -41.5 -101.5t-102.5 -42.5t-102 42.5t-41 101.5q0 63 41.5 104t103.5 41z" />
    <glyph glyph-name="uni1E7F" unicode="&#x1e7f;" horiz-adv-x="1085" 
d="M18 1001h338l136 -464q35 -117 57 -244h6q28 142 55 244l129 464h328l-373 -1001h-311zM543 -164q60 0 100.5 -41t40.5 -104q0 -59 -41 -101.5t-102 -42.5t-102.5 42.5t-41.5 101.5q0 63 42 104t104 41z" />
    <glyph glyph-name="uni1E92" unicode="&#x1e92;" horiz-adv-x="1181" 
d="M47 0v168l658 946v8h-596v258h1001v-180l-643 -934v-8h653v-258h-1073zM588 -164q60 0 100.5 -41t40.5 -104q0 -59 -41 -101.5t-102 -42.5t-102.5 42.5t-41.5 101.5q0 63 42 104t104 41z" />
    <glyph glyph-name="uni1E93" unicode="&#x1e93;" horiz-adv-x="960" 
d="M45 0v178l315 395q63 75 160 179v4h-440v245h819v-186l-301 -379q-110 -131 -164 -184v-4h481v-248h-870zM489 -164q60 0 101 -41t41 -104q0 -59 -41.5 -101.5t-102.5 -42.5t-102 42.5t-41 101.5q0 63 41.5 104t103.5 41z" />
    <glyph glyph-name="uni1E94" unicode="&#x1e94;" horiz-adv-x="1181" 
d="M47 0v168l658 946v8h-596v258h1001v-180l-643 -934v-8h653v-258h-1073zM305 -207h563v-190h-563v190z" />
    <glyph glyph-name="uni1E95" unicode="&#x1e95;" horiz-adv-x="960" 
d="M45 0v178l315 395q63 75 160 179v4h-440v245h819v-186l-301 -379q-110 -131 -164 -184v-4h481v-248h-870zM207 -207h563v-190h-563v190z" />
    <glyph glyph-name="uni1E96" unicode="&#x1e96;" horiz-adv-x="1200" 
d="M125 0v1454h311v-571h4q50 65 123 102q73 39 162 39q157 0 253.5 -110.5t96.5 -327.5v-586h-311v551q0 221 -162 221q-57 0 -97 -31t-59 -77q-10 -25 -10 -70v-594h-311zM322 -207h563v-190h-563v190z" />
    <glyph glyph-name="uni1EA0" unicode="&#x1ea0;" horiz-adv-x="1343" 
d="M852 354h-395l-99 -354h-323l422 1380h409l428 -1380h-336zM502 588h305l-86 293q-26 84 -70 266h-4q-5 -19 -27.5 -119t-35.5 -147zM659 -164q60 0 101 -41t41 -104q0 -59 -41.5 -101.5t-102.5 -42.5t-102 42.5t-41 101.5q0 63 41.5 104t103.5 41z" />
    <glyph glyph-name="uni1EA1" unicode="&#x1ea1;" horiz-adv-x="1081" 
d="M961 592v-348q0 -167 14 -244h-281l-18 100h-6q-101 -123 -287 -123q-146 0 -235 91t-89 217q0 190 157.5 287.5t430.5 95.5v14q0 23 -7.5 43t-25.5 41t-56 33t-93 12q-73 0 -149 -22t-128 -54l-57 201q64 36 164.5 62t224.5 26q121 0 209 -33.5t137.5 -94.5t72 -136
t22.5 -168zM657 365v108q-290 4 -290 -158q0 -58 33.5 -88t88.5 -30q57 0 102 32.5t60 81.5q6 24 6 54zM543 -164q60 0 100.5 -41t40.5 -104q0 -59 -41 -101.5t-102 -42.5t-102.5 42.5t-41.5 101.5q0 63 42 104t104 41z" />
    <glyph glyph-name="uni1EB8" unicode="&#x1eb8;" horiz-adv-x="1093" 
d="M956 838v-254h-507v-328h567v-256h-881v1380h852v-256h-538v-286h507zM590 -164q60 0 100.5 -41t40.5 -104q0 -59 -41 -101.5t-102 -42.5t-102.5 42.5t-41.5 101.5q0 63 42 104t104 41z" />
    <glyph glyph-name="uni1EB9" unicode="&#x1eb9;" horiz-adv-x="1081" 
d="M1010 401h-645q7 -92 86.5 -141t195.5 -49q149 0 277 41l41 -211q-159 -64 -363 -64q-253 0 -393.5 137.5t-140.5 374.5q0 98 31 191t90.5 171t159 125.5t224.5 47.5q94 0 170.5 -28.5t127 -76t85 -112.5t49.5 -135.5t15 -147.5q0 -66 -10 -123zM362 614h369q0 32 -8 64
t-26 65t-54.5 53.5t-87.5 20.5q-47 0 -84 -19.5t-59 -51t-34.5 -65t-15.5 -67.5zM541 -164q60 0 100.5 -41t40.5 -104q0 -59 -41 -101.5t-102 -42.5t-102.5 42.5t-41.5 101.5q0 63 42 104t104 41z" />
    <glyph glyph-name="uni1ECC" unicode="&#x1ecc;" horiz-adv-x="1468" 
d="M750 1403q204 0 352.5 -94.5t222.5 -253.5t74 -363q0 -169 -53.5 -306t-146 -225.5t-214.5 -136t-262 -47.5q-295 0 -473 195t-178 508q0 212 84.5 376.5t239 255.5t354.5 91zM737 1155q-106 0 -183.5 -64t-115 -168.5t-37.5 -234.5q0 -201 89 -332t245 -131
q107 0 184 64.5t113.5 167.5t36.5 231q0 90 -20 171.5t-59.5 148.5t-104.5 107t-148 40zM737 -164q60 0 101 -41t41 -104q0 -59 -41.5 -101.5t-102.5 -42.5t-102 42.5t-41 101.5q0 63 41.5 104t103.5 41z" />
    <glyph glyph-name="uni1ECD" unicode="&#x1ecd;" horiz-adv-x="1181" 
d="M602 1024q229 0 370.5 -141t141.5 -381q0 -109 -32 -198.5t-84.5 -149t-123 -100.5t-145 -59t-151.5 -18q-143 0 -258 61.5t-183.5 181.5t-68.5 280q0 164 72.5 284.5t192 180t269.5 59.5zM592 803q-55 0 -96 -27t-63.5 -73t-33 -97t-10.5 -108q0 -128 52 -212.5
t151 -84.5q98 0 149.5 84t51.5 213q0 57 -10 108.5t-32 97t-63 72.5t-96 27zM592 -164q60 0 100.5 -41t40.5 -104q0 -59 -41 -101.5t-102 -42.5t-102.5 42.5t-41.5 101.5q0 63 42 104t104 41z" />
    <glyph glyph-name="uni200C" unicode="&#x200c;" 
d="M-109 1509l-32 35l106 107l-106 106l32 35l109 -109l106 107l33 -33l-106 -106l106 -107l-33 -33l-106 105z" />
    <glyph glyph-name="uni200D" unicode="&#x200d;" 
d="M-156 1534h-47v141h408v-141h-47v94h-314v-94z" />
    <glyph glyph-name="uni200E" unicode="&#x200e;" 
d="M53 1509l-33 35l84 84h-258v47h258l-84 82l33 35l142 -141z" />
    <glyph glyph-name="uni200F" unicode="&#x200f;" 
d="M-53 1511l-142 140l142 141l33 -33l-84 -84h260v-47h-258l82 -84z" />
    <glyph glyph-name="uni2010" unicode="&#x2010;" horiz-adv-x="708" 
d="M80 696h549v-260h-549v260z" />
    <glyph glyph-name="endash" unicode="&#x2013;" horiz-adv-x="1019" 
d="M80 442v248h860v-248h-860z" />
    <glyph glyph-name="emdash" unicode="&#x2014;" horiz-adv-x="1562" 
d="M80 442v248h1403v-248h-1403z" />
    <glyph glyph-name="quoteleft" unicode="&#x2018;" horiz-adv-x="604" 
d="M92 684q30 120 90 276.5t125 270.5l230 16q-100 -314 -136 -545z" />
    <glyph glyph-name="quoteright" unicode="&#x2019;" horiz-adv-x="604" 
d="M68 684q97 306 135 545l309 18q-30 -123 -89.5 -278t-125.5 -269z" />
    <glyph glyph-name="quotesinglbase" unicode="&#x201a;" horiz-adv-x="604" 
d="M68 -203q98 308 135 545l309 18q-30 -123 -89.5 -277.5t-125.5 -268.5z" />
    <glyph glyph-name="quotedblleft" unicode="&#x201c;" horiz-adv-x="1083" 
d="M92 684q30 120 90 276.5t125 270.5l230 16q-100 -314 -136 -545zM571 684q31 123 90 278.5t125 268.5l230 16q-98 -308 -135 -545z" />
    <glyph glyph-name="quotedblright" unicode="&#x201d;" horiz-adv-x="1083" 
d="M68 684q97 306 135 545l309 18q-30 -123 -89.5 -278t-125.5 -269zM547 684q97 306 135 545l309 18q-30 -123 -89.5 -278t-125.5 -269z" />
    <glyph glyph-name="quotedblbase" unicode="&#x201e;" horiz-adv-x="1083" 
d="M68 -207q98 308 135 545l309 18q-30 -123 -89.5 -277.5t-125.5 -268.5zM547 -207q98 308 135 545l309 18q-30 -123 -89.5 -277.5t-125.5 -268.5z" />
    <glyph glyph-name="dagger" unicode="&#x2020;" horiz-adv-x="1130" 
d="M401 -223l31 833l-342 -24v254l342 -25l-31 393h301l-30 -393l342 25v-254l-342 24l30 -833h-301z" />
    <glyph glyph-name="daggerdbl" unicode="&#x2021;" horiz-adv-x="1114" 
d="M92 117v256l336 -27v299l-336 -29v258l336 -26l-22 360h296l-22 -360l336 26v-258l-336 29v-299l336 27v-256l-336 24l22 -364h-296l22 364z" />
    <glyph glyph-name="bullet" unicode="&#x2022;" horiz-adv-x="843" 
d="M422 309q-122 0 -197 74.5t-75 187.5q0 116 74.5 190.5t197.5 74.5q122 0 196 -76t74 -189q0 -116 -73 -189t-197 -73z" />
    <glyph glyph-name="ellipsis" unicode="&#x2026;" horiz-adv-x="2048" 
d="M340 -23q-81 0 -131.5 53.5t-50.5 135.5q0 84 51.5 137t132.5 53q80 0 131 -53t51 -137q0 -83 -51 -136t-133 -53zM1024 -23q-81 0 -132.5 53.5t-51.5 135.5q0 83 52 136.5t132 53.5q81 0 131.5 -52.5t52.5 -137.5q0 -83 -51 -136t-133 -53zM1708 -23q-81 0 -132.5 53.5
t-51.5 135.5q0 83 52 136.5t132 53.5q81 0 131.5 -52.5t52.5 -137.5q0 -83 -51 -136t-133 -53z" />
    <glyph glyph-name="uni202A" unicode="&#x202a;" 
d="M-57 1628h-117v47h117v-47zM53 1509l-33 35l84 84h-102v47h102l-84 82l33 35l142 -141z" />
    <glyph glyph-name="uni202B" unicode="&#x202b;" 
d="M57 1628v47h117v-47h-117zM-53 1511l-142 140l142 141l33 -33l-84 -84h102v-47h-100l82 -84z" />
    <glyph glyph-name="uni202C" unicode="&#x202c;" 
d="M23 1507h-48v207l-81 -82l-35 33l141 141l141 -141l-35 -33l-83 84v-209z" />
    <glyph glyph-name="uni202D" unicode="&#x202d;" 
d="M-43 1509l-33 35l84 84h-219v47h217l-82 82l33 35l141 -141zM90 1509l-33 35l109 107l-109 106l33 35l141 -141z" />
    <glyph glyph-name="uni202E" unicode="&#x202e;" 
d="M43 1509l-139 142l139 141l35 -35l-84 -84h219v-47h-219l84 -82zM-90 1509l-141 142l141 141l33 -35l-107 -106l107 -107z" />
    <glyph glyph-name="perthousand" unicode="&#x2030;" horiz-adv-x="2598" 
d="M416 483q-162 0 -250 104t-88 261q0 90 28.5 164.5t76 121.5t108 73t127.5 26q162 0 251 -106t89 -271q0 -93 -37.5 -176.5t-117.5 -140t-187 -56.5zM422 707q53 0 88 40.5t35 108.5q0 72 -35 113t-92 41q-52 0 -87.5 -40t-35.5 -112q0 -66 34 -108.5t93 -42.5zM1079 346
q0 118 49.5 206t125.5 130.5t165 42.5q162 0 250 -102.5t88 -268.5q0 -68 -22 -133.5t-63 -119t-107 -86.5t-146 -33q-163 0 -251.5 103t-88.5 261zM1292 354q0 -63 36.5 -107t94.5 -44q52 0 87.5 43t35.5 108q0 70 -35 113t-92 43q-55 0 -91 -44t-36 -112zM434 -20
l731 1243h226l-727 -1246zM1843 346q0 89 29 162.5t77 120t109 71.5t127 25q162 0 250 -102.5t88 -268.5q0 -68 -22 -133.5t-63 -119t-107 -86.5t-146 -33q-163 0 -252.5 103.5t-89.5 260.5zM2058 354q0 -63 36.5 -107t94.5 -44q52 0 87.5 43t35.5 108q0 70 -35.5 113
t-91.5 43q-55 0 -91 -44t-36 -112z" />
    <glyph glyph-name="guilsinglleft" unicode="&#x2039;" horiz-adv-x="825" 
d="M166 451v194l493 367v-264l-270 -201l270 -203v-266z" />
    <glyph glyph-name="guilsinglright" unicode="&#x203a;" horiz-adv-x="825" 
d="M166 78v262l270 203l-270 202v267l493 -373v-195z" />
    <glyph glyph-name="fraction" unicode="&#x2044;" horiz-adv-x="221" 
d="M-137 -20l-232 2l731 1128h228z" />
    <glyph glyph-name="uni20AA" unicode="&#x20aa;" horiz-adv-x="1488" 
d="M133 -4v1216h621q74 0 120 -14.5t72 -50.5t35.5 -86t9.5 -131v-473h-196v299q1 88 -27 111.5t-123 23.5h-254v-895h-258zM487 319l5 445h198v-332q0 -69 41 -92t129 -23h240v895h256v-1216h-604q-84 0 -138 20t-81.5 64.5t-37 99t-8.5 139.5z" />
    <glyph glyph-name="Euro" unicode="&#x20ac;" horiz-adv-x="1150" 
d="M895 406h-387q71 -158 278 -158q115 0 228 47l57 -250q-120 -63 -317 -63q-91 0 -175.5 24t-161.5 72.5t-135 132.5t-85 195h-121v147h102q-2 14 -2 47q0 44 2 64h-102v147h127q54 190 200 304t377 114q178 0 295 -55l-63 -254q-88 45 -234 45q-196 0 -266 -154h383v-147
h-418q-2 -20 -2 -64q0 -33 2 -47h418v-147z" />
    <glyph glyph-name="uni2113" unicode="&#x2113;" horiz-adv-x="1136" 
d="M518 1001v-278q88 94 135 193.5t47 191.5q0 70 -22.5 107.5t-59.5 37.5q-100 0 -100 -252zM934 391l141 -137q-162 -277 -469 -277q-305 0 -373 293q0 9 -2 13q-51 -35 -98 -64l-82 164q110 75 174 123v452q0 248 105 373t280 125q149 0 235.5 -93.5t86.5 -252.5
q0 -174 -100.5 -328.5t-313.5 -335.5v-26q1 -93 45.5 -141t118.5 -48q126 0 252 160z" />
    <glyph glyph-name="trademark" unicode="&#x2122;" horiz-adv-x="1054" 
d="M145 713v291h-116v126h370v-126h-116v-291h-138zM444 713l25 417h207q35 -138 47 -225h2q14 74 55 225h193l20 -417h-129q-5 132 -5.5 225t-0.5 100h-4q-14 -71 -78 -319h-129q-49 251 -59 317h-4q-6 -171 -13 -323h-127z" />
    <glyph glyph-name="uni2126" unicode="&#x2126;" horiz-adv-x="1523" 
d="M1182 244v-6h276v-238h-608v182q115 88 187.5 223t72.5 312q0 182 -94 310t-248 128q-158 0 -256 -126t-98 -312q0 -164 77 -314.5t187 -220.5v-182h-612v238h272v6q-47 37 -88.5 85.5t-78.5 112.5t-59 145.5t-22 168.5q0 178 85.5 325.5t243 234.5t355.5 87
q124 0 231 -34t184.5 -93.5t132.5 -138.5t82.5 -170.5t27.5 -188.5q0 -95 -23 -181t-62 -152t-79 -113.5t-86 -87.5z" />
    <glyph glyph-name="estimated" unicode="&#x212e;" horiz-adv-x="1673" 
d="M1602 647h-1240q-10 0 -10 -8v-375q0 -20 19 -43q89 -95 211 -149t258 -54q145 0 272.5 60.5t218.5 167.5h113q-107 -124 -266 -196.5t-340 -72.5q-155 0 -297 54.5t-244.5 146.5t-163.5 220t-61 268q0 187 103 345.5t279 250.5t384 92q156 0 297 -54.5t243.5 -146.5
t163 -219.5t60.5 -267.5v-19zM1323 696v377q0 25 -20 45q-92 92 -211.5 143.5t-251.5 51.5q-135 0 -255 -53t-212 -148q-21 -21 -21 -47v-369q0 -10 10 -10h951q10 0 10 10z" />
    <glyph glyph-name="partialdiff" unicode="&#x2202;" horiz-adv-x="1185" 
d="M186 1171l-90 209q171 119 404 119q128 0 239.5 -52t193.5 -146t129.5 -233.5t47.5 -305.5q0 -187 -49 -338.5t-133.5 -247.5t-194.5 -147.5t-235 -51.5q-89 0 -165 27.5t-128 73t-89 105.5t-54 123.5t-17 127.5q0 140 56 255t160.5 183t238.5 68q108 0 185 -47t116 -107
h2v35q0 187 -94.5 305.5t-249.5 118.5t-273 -74zM530 227q62 0 115.5 47t85.5 120.5t41 156.5q-17 56 -71.5 102.5t-127.5 46.5q-94 0 -154.5 -77.5t-60.5 -192.5q0 -94 48 -148.5t124 -54.5z" />
    <glyph glyph-name="uni2206" unicode="&#x2206;" horiz-adv-x="1327" 
d="M33 0v156l442 1224h379l434 -1222v-158h-1255zM371 256h559l-195 578q-54 166 -84 294h-8q-39 -160 -76 -278z" />
    <glyph glyph-name="product" unicode="&#x220f;" horiz-adv-x="1357" 
d="M1333 1075h-190v-1259h-289v1259h-354v-1259h-289v1259h-191v256h1313v-256z" />
    <glyph glyph-name="summation" unicode="&#x2211;" horiz-adv-x="1112" 
d="M1104 -184h-1073v176l444 575l-422 561v203h998v-256h-602v-6l362 -489l-383 -500v-8h676v-256z" />
    <glyph glyph-name="minus" unicode="&#x2212;" horiz-adv-x="1220" 
d="M82 643h1057v-192h-1057v192z" />
    <glyph glyph-name="uni2215" unicode="&#x2215;" horiz-adv-x="221" 
d="M-137 -20l-232 2l731 1128h228z" />
    <glyph glyph-name="uni2219" unicode="&#x2219;" horiz-adv-x="532" 
d="M266 342q-82 0 -133 52.5t-51 135.5t52 137t132 54q81 0 132 -53t53 -138q0 -84 -51 -136t-134 -52z" />
    <glyph glyph-name="radical" unicode="&#x221a;" horiz-adv-x="1206" 
d="M1253 1720l-467 -1882h-208l-324 842l-162 -64l-49 140l360 147l218 -608q25 -73 49 -168h4q24 127 35 174l335 1419h209z" />
    <glyph glyph-name="infinity" unicode="&#x221e;" horiz-adv-x="1540" 
d="M385 199q-146 0 -238 97t-92 245q0 141 96.5 241.5t249.5 100.5q54 0 105.5 -17t101 -52.5t81.5 -63.5t81 -76q4 4 38.5 36t42.5 39t39.5 33.5t46 34t45 25t53.5 23.5t54.5 12t63.5 6q146 0 238 -97t92 -245q0 -141 -96.5 -241.5t-249.5 -100.5q-54 0 -105.5 17
t-101 52.5t-81.5 63.5t-81 76q-4 -4 -38.5 -36t-42.5 -39t-39.5 -33.5t-46 -34t-45 -25t-53.5 -23.5t-54.5 -12t-63.5 -6zM1133 387q63 0 106 45.5t43 108.5q0 67 -41 110t-102 43q-42 0 -87 -23.5t-73.5 -48.5t-72.5 -68l-11 -11q3 -2 37.5 -37.5t48 -46t43.5 -33t56 -31
t53 -8.5zM399 387q32 0 63 11.5t61 34t53.5 43t53.5 50.5q4 5 7 7.5t6 5.5q-8 7 -32 31.5t-36.5 36.5t-37 31.5t-42.5 29.5t-42 18t-47 8q-63 0 -106.5 -45t-43.5 -108q0 -67 41 -110.5t102 -43.5z" />
    <glyph glyph-name="integral" unicode="&#x222b;" horiz-adv-x="733" 
d="M717 1638l-29 -184q-40 8 -72 8q-68 0 -96 -55q-45 -68 -45 -303q0 -151 15.5 -441.5t15.5 -467.5q0 -258 -70 -379q-82 -154 -270 -154q-87 0 -143 23l32 190q33 -10 80 -10q52 0 88 45q51 64 51 274q0 180 -14 479.5t-14 460.5q0 164 29.5 266.5t93.5 172.5
q86 92 231 92q68 0 117 -17z" />
    <glyph glyph-name="approxequal" unicode="&#x2248;" horiz-adv-x="1220" 
d="M1065 891l115 -121q-55 -89 -142.5 -145t-189.5 -56q-27 0 -53.5 4t-45.5 8.5t-44.5 14.5t-37.5 15.5t-38 18t-33 15.5l-45.5 21t-54 24t-56.5 17t-69 8q-118 0 -228 -131l-104 129q58 83 145 137.5t189 54.5q40 0 80.5 -8.5t61 -16.5t61 -26.5t49.5 -22.5q8 -4 44.5 -21
t55 -24.5t53 -15.5t68.5 -8q106 0 219 129zM1073 457l111 -117q-56 -92 -145 -148.5t-191 -56.5q-30 0 -58.5 4t-58 14t-46 16.5t-48.5 21.5t-39 18t-45 21t-56.5 25t-54.5 15.5t-71 8.5q-114 0 -226 -129l-104 131q58 82 146.5 136t187.5 54q40 0 81.5 -9.5t58.5 -15
t65 -27.5l47 -22q7 -3 44.5 -21t55.5 -25t53 -15t68 -8q127 0 225 129z" />
    <glyph glyph-name="notequal" unicode="&#x2260;" horiz-adv-x="1220" 
d="M1139 236h-633l-127 -207h-201l133 207h-229v190h352l154 244h-506v190h629l127 209h200l-133 -209h234v-190h-357l-155 -244h512v-190z" />
    <glyph glyph-name="lessequal" unicode="&#x2264;" horiz-adv-x="1220" 
d="M1102 242l-983 360v186l983 363v-209l-719 -244v-4l719 -245v-207zM1102 0h-981v178h981v-178z" />
    <glyph glyph-name="greaterequal" unicode="&#x2265;" horiz-adv-x="1220" 
d="M1102 602l-983 -360v207l719 245v4l-719 244v209l983 -363v-186zM1100 0h-981v178h981v-178z" />
    <glyph glyph-name="lozenge" unicode="&#x25ca;" horiz-adv-x="1175" 
d="M1094 664l-394 -742h-227l-391 742l391 741h227zM844 657l-232 463q-19 42 -26 64h-4q-26 -59 -29 -64l-223 -450l229 -463q18 -32 29 -62h4q13 26 29 62z" />
    <glyph glyph-name="uni25CC" unicode="&#x25cc;" horiz-adv-x="1296" 
d="M147 489q-73 0 -73 76t73 76q78 0 78 -76t-78 -76zM1071 565q0 76 76 76t76 -76t-76 -76t-76 76zM645 987q-74 0 -74 78q0 76 74 76q80 0 80 -76q0 -78 -80 -78zM571 66q0 77 74 77q80 0 80 -77q0 -76 -80 -76q-74 0 -74 76zM1006 817q0 74 77 74q76 0 76 -74
q0 -78 -76 -78q-77 0 -77 78zM1006 313q0 78 77 78q76 0 76 -78q0 -75 -76 -75q-77 0 -77 75zM209 739q-72 0 -72 78q0 74 72 74q82 0 82 -74q0 -78 -82 -78zM209 238q-72 0 -72 75q0 78 72 78q82 0 82 -78q0 -75 -82 -75zM395 924q-73 0 -73 80q0 73 73 73q80 0 80 -73
q0 -80 -80 -80zM899 924q-78 0 -78 80q0 73 78 73q74 0 74 -73q0 -80 -74 -80zM322 129q0 78 73 78q80 0 80 -78q0 -76 -80 -76q-73 0 -73 76zM821 129q0 37 20 57.5t58 20.5q74 0 74 -78q0 -76 -74 -76q-78 0 -78 76z" />
    <glyph glyph-name="f_i" unicode="&#xfb01;" horiz-adv-x="1204" 
d="M473 0h-313v772h-131v229h131v43q0 203 144 318t380 115q81 0 165.5 -17.5t129.5 -44.5l-59 -235q-93 51 -228 51q-116 0 -168.5 -52.5t-52.5 -142.5v-35h608v-1001h-311v772h-295v-772z" />
    <glyph glyph-name="f_l" unicode="&#xfb02;" horiz-adv-x="1204" 
d="M473 0h-313v772h-131v229h131v46q0 86 41 172.5t112 144.5q139 113 381 113q232 0 385 -84v-1393h-311v1225q-42 20 -119 20q-89 0 -133.5 -56.5t-44.5 -146.5v-41h180v-229h-178v-772z" />
    <glyph glyph-name="u05D905B4" unicode="&#xfb1d;" horiz-adv-x="618" 
d="M344 322l-211 102q129 200 129 293q0 41 -25 58t-90 32q-82 21 -129 37l52 309q54 -16 131 -29q188 -28 262 -101t74 -208q0 -112 -52.5 -240.5t-140.5 -252.5zM242 240q36 0 63 -26t27 -64q0 -40 -26.5 -65.5t-63.5 -25.5t-63.5 25.5t-26.5 65.5q0 39 27 64.5t63 25.5z
" />
    <glyph glyph-name="uniFB1E" unicode="&#xfb1e;" 
d="M0 1272q-143 0 -218.5 81.5t-78.5 205.5h180q22 -111 119 -111q102 0 119 111h178q-6 -125 -83.5 -206t-215.5 -81z" />
    <glyph glyph-name="u05F205B7" unicode="&#xfb1f;" horiz-adv-x="1239" 
d="M344 322l-211 102q129 200 129 293q0 41 -25 58t-90 32q-82 21 -129 37l52 309q54 -16 131 -29q188 -28 262 -101t74 -208q0 -112 -52.5 -240.5t-140.5 -252.5zM963 322l-211 102q129 200 129 293q0 41 -24.5 58t-90.5 32q-94 25 -129 37l51 309q62 -18 131 -29
q188 -28 262 -101t74 -208q0 -112 -52 -241t-140 -252zM848 225v-106h-455v106h455z" />
    <glyph glyph-name="uni05D0.j" unicode="&#xfb21;" horiz-adv-x="1454" 
d="M1423 0h-362q-72 91 -232.5 270.5t-343.5 354.5q-36 -49 -56.5 -114.5t-18.5 -127.5q0 -79 14 -158.5t25 -116t36 -108.5h-348q-35 128 -35 281q0 149 55.5 283.5t172.5 230.5q-103 115 -330 323l393 23q42 -36 113 -106.5t130 -132t152.5 -159.5t135.5 -141
q90 90 90 227q0 64 -24 143t-60 146l354 25q31 -97 31 -230q-2 -147 -62 -267t-188 -191q286 -334 358 -455z" />
    <glyph glyph-name="uni05D3.j" unicode="&#xfb22;" horiz-adv-x="1179" 
d="M231 809q-173 0 -223 18l51 314q49 -11 342 -11h732l-56 -321h-37q-57 0 -80.5 -33.5t-23.5 -116.5q0 -102 16 -659h-268q-16 344 -16 563q0 104 11.5 157t37.5 89h-486z" />
    <glyph glyph-name="uni05D4.j" unicode="&#xfb23;" horiz-adv-x="1398" 
d="M397 541v-541h-270v541h270zM842 809h-516q-196 0 -246 18l51 314q49 -11 342 -11h418q73 0 127.5 -8.5t94.5 -24t67.5 -44.5t44.5 -61.5t26 -85t12 -105t3 -129.5v-672h-271v559q0 155 -27.5 202.5t-125.5 47.5z" />
    <glyph glyph-name="uni05DB.j" unicode="&#xfb24;" horiz-adv-x="1284" 
d="M668 809h-349q-193 0 -245 18l53 314q47 -11 274 -11h338q90 0 155 -11t114.5 -37.5t80.5 -66t50.5 -102t27 -139.5t7.5 -184q0 -226 -70 -590h-768q-256 0 -299 -6l53 315q45 8 299 8h496q18 119 18 246q0 78 -12 126t-42 74.5t-71 36t-110 9.5z" />
    <glyph glyph-name="uni05DC.j" unicode="&#xfb25;" horiz-adv-x="1208" 
d="M6 1530l275 39q9 -24 16.5 -125.5t7.5 -208.5v-105h510q74 0 123.5 -11.5t91.5 -43.5t62 -94t20 -158q0 -140 -51.5 -267.5t-139 -223.5t-202.5 -171t-243 -119.5t-259 -59.5l57 350q144 21 270.5 74.5t206.5 132.5t80 163q0 63 -28.5 85t-97.5 22h-670v373
q0 287 -29 348z" />
    <glyph glyph-name="uni05DD.j" unicode="&#xfb26;" horiz-adv-x="1482" 
d="M975 1130q73 0 127.5 -9t94.5 -24.5t67 -45t43.5 -62t25.5 -84.5t12 -104t3 -129v-336q3 -49 -52 -336h-1134v662q0 57 18 149q-96 0 -133 18l51 312q65 -11 287 -11h590zM1092 582q0 128 -32.5 177.5t-125.5 49.5h-512v-490h670v263z" />
    <glyph glyph-name="uni05E8.j" unicode="&#xfb27;" horiz-adv-x="1196" 
d="M641 809h-395q-174 0 -223 18l49 314q50 -11 342 -11h276q86 0 145.5 -8t102 -30t67 -50.5t38.5 -80.5t18 -107.5t4 -144.5v-709h-270v602q0 122 -30.5 164.5t-123.5 42.5z" />
    <glyph glyph-name="uni05EA.j" unicode="&#xfb28;" horiz-adv-x="1501" 
d="M942 809h-448q6 -81 13 -246.5t7 -245.5l-43 -317h-227q-150 0 -197 -12l55 323q41 8 115 8h33q2 86 -6.5 251t-18.5 239h-4q-26 0 -68 6t-59 14l53 310q14 -3 39 -5.5t70 -3t74 -0.5h97h93h473q86 0 145.5 -8t102 -30t67 -50.5t38.5 -80.5t18 -107.5t4 -144.5v-709h-268
v602q0 122 -31.5 164.5t-126.5 42.5z" />
    <glyph glyph-name="u05E905C1" unicode="&#xfb2a;" horiz-adv-x="1394" 
d="M260 -14q-40 280 -113 641t-118 491l321 23q33 -154 74 -477q78 18 105.5 59.5t27.5 112.5q0 117 -51 282l311 25q35 -132 35 -264q0 -87 -20 -153.5t-65.5 -122t-125.5 -92t-195 -54.5q0 -5 9 -74.5t12 -81.5q133 3 248 37q155 44 223 135.5t68 271.5q0 74 -16.5 177
t-47.5 196l313 21q35 -128 35 -328q0 -116 -21 -216t-56.5 -173.5t-86.5 -135t-105.5 -103t-120 -73t-124 -49.5t-121.5 -30q-221 -41 -395 -45zM1075 1391q36 0 63 -26.5t27 -64.5q0 -41 -26.5 -65.5t-63.5 -24.5t-63.5 25t-26.5 65q0 39 27 65t63 26z" />
    <glyph glyph-name="u05E905C2" unicode="&#xfb2b;" horiz-adv-x="1394" 
d="M260 -14q-40 280 -113 641t-118 491l321 23q33 -154 74 -477q78 18 105.5 59.5t27.5 112.5q0 117 -51 282l311 25q35 -132 35 -264q0 -87 -20 -153.5t-65.5 -122t-125.5 -92t-195 -54.5q0 -5 9 -74.5t12 -81.5q133 3 248 37q155 44 223 135.5t68 271.5q0 74 -16.5 177
t-47.5 196l313 21q35 -128 35 -328q0 -116 -21 -216t-56.5 -173.5t-86.5 -135t-105.5 -103t-120 -73t-124 -49.5t-121.5 -30q-221 -41 -395 -45zM172 1391q36 0 63 -26.5t27 -64.5q0 -41 -26.5 -65.5t-63.5 -24.5t-63.5 25t-26.5 65q0 39 27 65t63 26z" />
    <glyph glyph-name="u05E905C105BC" unicode="&#xfb2c;" horiz-adv-x="1394" 
d="M260 -14q-40 280 -113 641t-118 491l321 23q33 -154 74 -477q78 18 105.5 59.5t27.5 112.5q0 117 -51 282l311 25q35 -132 35 -264q0 -87 -20 -153.5t-65.5 -122t-125.5 -92t-195 -54.5q0 -5 9 -74.5t12 -81.5q133 3 248 37q155 44 223 135.5t68 271.5q0 74 -16.5 177
t-47.5 196l313 21q35 -128 35 -328q0 -116 -21 -216t-56.5 -173.5t-86.5 -135t-105.5 -103t-120 -73t-124 -49.5t-121.5 -30q-221 -41 -395 -45zM1075 1391q36 0 63 -26.5t27 -64.5q0 -41 -26.5 -65.5t-63.5 -24.5t-63.5 25t-26.5 65q0 39 27 65t63 26zM868 653
q30 0 52 -21.5t22 -53.5q0 -33 -22 -53.5t-52 -20.5q-32 0 -53.5 20.5t-21.5 53.5t22 54t53 21z" />
    <glyph glyph-name="u05E905C205BC" unicode="&#xfb2d;" horiz-adv-x="1394" 
d="M260 -14q-40 280 -113 641t-118 491l321 23q33 -154 74 -477q78 18 105.5 59.5t27.5 112.5q0 117 -51 282l311 25q35 -132 35 -264q0 -87 -20 -153.5t-65.5 -122t-125.5 -92t-195 -54.5q0 -5 9 -74.5t12 -81.5q133 3 248 37q155 44 223 135.5t68 271.5q0 74 -16.5 177
t-47.5 196l313 21q35 -128 35 -328q0 -116 -21 -216t-56.5 -173.5t-86.5 -135t-105.5 -103t-120 -73t-124 -49.5t-121.5 -30q-221 -41 -395 -45zM172 1391q36 0 63 -26.5t27 -64.5q0 -41 -26.5 -65.5t-63.5 -24.5t-63.5 25t-26.5 65q0 39 27 65t63 26zM868 653
q30 0 52 -21.5t22 -53.5q0 -33 -22 -53.5t-52 -20.5q-32 0 -53.5 20.5t-21.5 53.5t22 54t53 21z" />
    <glyph glyph-name="u05D005B7" unicode="&#xfb2e;" horiz-adv-x="1241" 
d="M137 0q-35 128 -35 281q0 335 213 505q-126 156 -305 320l6 14l377 21q133 -133 375 -465q53 50 53 153q-3 127 -82 289l353 25q30 -94 30 -230q0 -51 -11 -103t-35.5 -108t-71.5 -107t-111 -87q93 -123 186.5 -264t151.5 -244h-357q-150 268 -417 600q-51 -79 -47 -211
q0 -80 13.5 -159.5t26 -120.5t35.5 -109h-348zM895 -164v-106h-455v106h455z" />
    <glyph glyph-name="u05D005B8" unicode="&#xfb2f;" horiz-adv-x="1241" 
d="M137 0q-35 128 -35 281q0 335 213 505q-126 156 -305 320l6 14l377 21q133 -133 375 -465q53 50 53 153q-3 127 -82 289l353 25q30 -94 30 -230q0 -51 -11 -103t-35.5 -108t-71.5 -107t-111 -87q93 -123 186.5 -264t151.5 -244h-357q-150 268 -417 600q-51 -79 -47 -211
q0 -80 13.5 -159.5t26 -120.5t35.5 -109h-348zM893 -164v-106h-180l18 -209h-127l19 209h-185v106h455z" />
    <glyph glyph-name="u05D005BC" unicode="&#xfb30;" horiz-adv-x="1241" 
d="M137 0q-35 128 -35 281q0 335 213 505q-126 156 -305 320l6 14l377 21q133 -133 375 -465q53 50 53 153q-3 127 -82 289l353 25q30 -94 30 -230q0 -51 -11 -103t-35.5 -108t-71.5 -107t-111 -87q93 -123 186.5 -264t151.5 -244h-357q-150 268 -417 600q-51 -79 -47 -211
q0 -80 13.5 -159.5t26 -120.5t35.5 -109h-348zM571 291q36 0 63.5 -26.5t27.5 -63.5q0 -41 -27 -65.5t-64 -24.5t-63.5 25t-26.5 65q0 39 27 64.5t63 25.5z" />
    <glyph glyph-name="u05D105BC" unicode="&#xfb31;" horiz-adv-x="1103" 
d="M37 -6l53 315q72 10 318 10h266q0 236 -4 308q-4 58 -11.5 89.5t-27.5 54.5t-53 30.5t-89 7.5h-190q-173 0 -225 18l53 314q49 -11 297 -11h168q74 0 127 -8.5t91.5 -30.5t61.5 -52.5t37 -82.5t18.5 -111t4.5 -147v-143q0 -195 -10 -236h137l-49 -319h-676
q-240 0 -297 -6zM385 655q36 0 63 -25.5t27 -64.5q0 -40 -26.5 -65t-63.5 -25t-63.5 25t-26.5 65q0 39 27 64.5t63 25.5z" />
    <glyph glyph-name="u05D205BC" unicode="&#xfb32;" horiz-adv-x="851" 
d="M37 -16l53 350q168 0 263.5 72.5t95.5 183.5v41q0 77 -33 110.5t-127 53.5q-31 9 -74.5 19t-73.5 17.5t-43 14.5l58 309q48 -16 204 -43q75 -15 127 -32t92.5 -44.5t65 -60.5t41 -84.5t24 -111t11.5 -146.5l10 -234q15 -295 39 -399h-268q-17 34 -29 116.5t-12 149.5
q-91 -282 -424 -282zM248 682q36 0 63 -26t27 -64q0 -40 -26.5 -65t-63.5 -25t-63.5 25t-26.5 65q0 39 27 64.5t63 25.5z" />
    <glyph glyph-name="u05D305BC" unicode="&#xfb33;" horiz-adv-x="1032" 
d="M246 809q-174 0 -223 18l49 314q50 -11 342 -11h553l-54 -321h-39q-57 0 -79.5 -33.5t-22.5 -116.5q0 -171 14 -659h-270q0 20 -7 242t-7 321q0 105 11.5 158t39.5 88h-307zM287 526q36 0 63 -26t27 -64q0 -41 -26.5 -65.5t-63.5 -24.5t-63.5 25t-26.5 65q0 39 27 64.5
t63 25.5z" />
    <glyph glyph-name="u05D405BC" unicode="&#xfb34;" horiz-adv-x="1224" 
d="M127 0v541h270v-541h-270zM821 0v559q0 155 -27.5 202.5t-125.5 47.5h-342q-196 0 -246 18l51 314q49 -11 342 -11h242q85 0 145.5 -10t102.5 -36t67.5 -58.5t39 -89t18 -115.5t4.5 -149v-672h-271zM612 526q36 0 63 -26t27 -64q0 -41 -26.5 -65.5t-63.5 -24.5t-63.5 25
t-26.5 65q0 39 27 64.5t63 25.5z" />
    <glyph glyph-name="u05D505BC" unicode="&#xfb35;" horiz-adv-x="747" 
d="M346 0v598q0 108 -28.5 146.5t-124.5 60.5q-119 25 -170 41l51 309q69 -20 194 -39q87 -14 144 -35t98.5 -54t63.5 -86.5t32 -124t10 -175.5v-641h-270zM166 518q36 0 63 -26t27 -64q0 -40 -26.5 -65t-63.5 -25t-63.5 25t-26.5 65q0 39 27 64.5t63 25.5z" />
    <glyph glyph-name="u05D605BC" unicode="&#xfb36;" horiz-adv-x="960" 
d="M375 0q-30 408 -27 524q3 175 84 262q-75 9 -157 27t-109 31l51 311q65 -28 288.5 -59.5t389.5 -44.5l-43 -316q-17 1 -72 8t-69 7q-50 4 -69 -21t-21 -94q-5 -131 30 -635h-276zM182 518q36 0 63 -26t27 -64q0 -40 -26.5 -65t-63.5 -25t-63.5 25t-26.5 65q0 39 27 64.5
t63 25.5z" />
    <glyph glyph-name="u05D805BC" unicode="&#xfb38;" horiz-adv-x="1230" 
d="M268 -16q-127 752 -239 1134l329 23q70 -345 129 -826q60 4 138 21q114 26 177.5 98t63.5 187q0 97 -50 151t-142 55q-56 0 -133 -18l53 317q75 21 160 21q88 0 156.5 -28t111 -73.5t70 -108t38.5 -126t11 -133.5q-1 -121 -32.5 -222.5t-81 -170t-118 -120.5t-136 -81.5
t-142.5 -46.5q-50 -12 -110.5 -22t-95.5 -14.5t-93.5 -10t-63.5 -6.5zM641 684q36 0 63 -26t27 -64q0 -40 -26.5 -65t-63.5 -25t-63.5 25t-26.5 65q0 39 27 64.5t63 25.5z" />
    <glyph glyph-name="u05D905BC" unicode="&#xfb39;" horiz-adv-x="739" 
d="M449 322l-211 102q129 200 129 293q0 41 -24.5 58t-90.5 32q-93 25 -127 37l49 309q58 -17 131 -29q189 -28 262.5 -100.5t73.5 -208.5q0 -113 -52 -242t-140 -251zM172 737q36 0 63 -25.5t27 -64.5q0 -40 -26.5 -65t-63.5 -25t-63.5 25t-26.5 65q0 39 27 64.5t63 25.5z
" />
    <glyph glyph-name="u05DA05BC" unicode="&#xfb3a;" horiz-adv-x="1007" 
d="M606 -397v1065q0 69 -8.5 98.5t-24 36t-55.5 6.5h-272q-174 0 -223 18l49 314q62 -11 342 -11h295q39 0 63 -3t44 -14t30 -27t17 -49.5t9 -73.5t2 -105v-1255h-268zM350 584q36 0 63 -25.5t27 -64.5q0 -40 -26.5 -65.5t-63.5 -25.5t-63.5 25.5t-26.5 65.5q0 39 27 64.5
t63 25.5z" />
    <glyph glyph-name="u05DB05BC" unicode="&#xfb3b;" horiz-adv-x="1103" 
d="M37 -6l53 315q45 8 299 8h316q18 119 18 246q0 78 -12 126t-42 74.5t-71.5 36t-110.5 9.5h-168q-193 0 -245 18l53 314q47 -11 274 -11h158q90 0 154.5 -11t114 -37.5t80.5 -66t50.5 -102t27 -139.5t7.5 -184q0 -231 -69 -590h-588q-256 0 -299 -6zM430 655
q36 0 63 -25.5t27 -64.5q0 -40 -26.5 -65t-63.5 -25t-63.5 25t-26.5 65q0 39 27 64.5t63 25.5z" />
    <glyph glyph-name="u05DC05BC" unicode="&#xfb3c;" horiz-adv-x="1013" 
d="M160 -18l59 350q184 39 301 140t117 230q0 64 -28 85.5t-97 21.5h-477v373q0 287 -29 348l275 39q9 -24 16.5 -125.5t7.5 -208.5v-105h316q74 0 123.5 -11.5t91.5 -43.5t62 -94t20 -158q0 -140 -43.5 -267.5t-118 -224t-172 -171.5t-205.5 -119.5t-219 -58.5zM367 715
q36 0 63 -26t27 -64q0 -40 -26.5 -65t-63.5 -25t-64 25t-27 65q0 39 27.5 64.5t63.5 25.5z" />
    <glyph glyph-name="u05DE05BC" unicode="&#xfb3e;" horiz-adv-x="1304" 
d="M100 0q87 472 101 612q22 176 -164 201l53 334q274 -20 332 -264q15 35 34 67.5t52 70t72 64t95 44.5t120 18q393 0 393 -664v-172q-1 -14 -21.5 -154.5t-21.5 -156.5h-404q-145 0 -192 -6l51 313q51 10 207 10h104q7 89 7 154q0 51 -2 88.5t-8.5 81.5t-20 74t-34.5 57
t-54.5 40t-77.5 13q-46 0 -84 -19.5t-62.5 -47.5t-45 -70t-31 -75t-21.5 -76q-42 -148 -108 -537h-269zM705 655q36 0 63 -25.5t27 -64.5q0 -40 -26.5 -65t-63.5 -25t-64 25t-27 65q0 39 27.5 64.5t63.5 25.5z" />
    <glyph glyph-name="u05E005BC" unicode="&#xfb40;" horiz-adv-x="860" 
d="M37 -6l53 317q63 8 264 8h105v277q0 100 -29 138.5t-127 58.5q-151 29 -219 53l53 309q54 -15 209 -41q77 -13 130 -28.5t98.5 -39.5t72.5 -56t46 -80t26.5 -109t7.5 -146v-346l-49 -309h-344q-226 0 -297 -6zM264 653q36 0 63 -26t27 -64q0 -40 -26.5 -65t-63.5 -25
t-63.5 25t-26.5 65q0 39 27 64.5t63 25.5z" />
    <glyph glyph-name="u05E105BC" unicode="&#xfb41;" horiz-adv-x="1243" 
d="M274 -16q-22 114 -80 448.5t-67 382.5q-81 10 -96 14l53 312q50 -11 340 -11h381q87 0 148 -16.5t98 -44.5t57.5 -76.5t27.5 -101t7 -129.5q0 -127 -31.5 -239.5t-85 -195.5t-125.5 -147.5t-151.5 -103.5t-165.5 -56q-46 -9 -99.5 -16.5t-84.5 -10t-77.5 -6t-48.5 -3.5z
M489 309q27 2 117 19q137 29 200.5 127.5t63.5 228.5q0 72 -33 98.5t-126 26.5h-310q9 -51 42.5 -240.5t45.5 -259.5zM637 684q36 0 63 -26t27 -64q0 -40 -26.5 -65t-63.5 -25t-63.5 25t-26.5 65q0 39 27 64.5t63 25.5z" />
    <glyph glyph-name="u05E305BC" unicode="&#xfb43;" horiz-adv-x="1161" 
d="M455 283q-383 15 -383 348q0 78 27.5 161.5t77.5 193.5t71 169q60 -15 284 -43q96 -11 163 -25.5t126 -41t95.5 -65t63 -96.5t37.5 -135.5t11 -183.5v-962h-270v872q0 74 -5.5 120t-19.5 84t-43.5 59t-72.5 36t-111 25q-41 7 -77 11.5t-55 7t-26 3.5q-24 -54 -24 -86
q0 -104 190 -125zM623 508q36 0 63 -26t27 -64q0 -40 -26.5 -65t-63.5 -25t-64 25t-27 65q0 39 27.5 64.5t63.5 25.5z" />
    <glyph glyph-name="u05E405BC" unicode="&#xfb44;" horiz-adv-x="1224" 
d="M63 -6l54 313q22 4 61.5 6.5t71.5 3t89.5 1.5t80.5 1h401v228q0 68 -9 108t-38 68.5t-71.5 43t-120.5 28.5q-45 8 -117 19.5t-92 14.5q-19 -34 -19 -55q0 -75 156 -80l-47 -286q-184 7 -268 81.5t-84 208.5q0 67 24.5 143t65 168t57.5 146q36 -12 338 -47
q90 -11 153.5 -25t123.5 -38t98 -59.5t67 -88t41.5 -125t12.5 -168.5v-305q-3 -20 -20.5 -150.5t-20.5 -148.5h-670q-259 0 -318 -6zM651 614q36 0 63 -25.5t27 -64.5q0 -40 -26.5 -65t-63.5 -25t-63.5 25t-26.5 65q0 39 27 64.5t63 25.5z" />
    <glyph glyph-name="u05E605BC" unicode="&#xfb46;" horiz-adv-x="1130" 
d="M63 -6l78 315q82 10 291 10h215q-90 84 -332 379q-46 55 -175 216t-165 204l404 25q176 -261 278 -406q42 20 57 56t15 94q0 48 -18.5 115.5t-42.5 113.5l344 25q24 -74 24 -158q0 -69 -11 -124.5t-39 -110t-81 -99.5t-131 -80q220 -267 273 -305l-68 -264h-576
q-277 0 -340 -6zM236 602q36 0 63 -26t27 -64q0 -40 -26.5 -65t-63.5 -25t-64 25t-27 65q0 39 27.5 64.5t63.5 25.5z" />
    <glyph glyph-name="u05E705BC" unicode="&#xfb47;" horiz-adv-x="1210" 
d="M489 -16l54 383q301 71 301 327q0 68 -33.5 91.5t-118.5 23.5h-344q-211 0 -268 18l51 314q19 -4 44.5 -6.5t65.5 -3.5t60.5 -1h73.5h61h303q212 0 293.5 -79.5t81.5 -280.5q0 -163 -50.5 -301.5t-137.5 -235t-198 -160t-239 -89.5zM127 -397v958h270v-958h-270zM584 694
q36 0 63 -26t27 -64q0 -40 -26.5 -65t-63.5 -25t-63.5 25t-26.5 65q0 39 27 64.5t63 25.5z" />
    <glyph glyph-name="u05E805BC" unicode="&#xfb48;" horiz-adv-x="1028" 
d="M627 0v602q0 122 -31 164.5t-125 42.5h-225q-174 0 -223 18l49 314q50 -11 342 -11h106q86 0 145.5 -8t102.5 -30t67.5 -50.5t38.5 -80t18.5 -108t4.5 -144.5v-709h-270zM336 526q36 0 63 -26t27 -64q0 -41 -26.5 -65.5t-63.5 -24.5t-63.5 25t-26.5 65q0 39 27 64.5
t63 25.5z" />
    <glyph glyph-name="u05E905BC" unicode="&#xfb49;" horiz-adv-x="1394" 
d="M260 -14q-40 280 -113 641t-118 491l321 23q33 -154 74 -477q78 18 105.5 59.5t27.5 112.5q0 117 -51 282l311 25q35 -132 35 -264q0 -87 -20 -153.5t-65.5 -122t-125.5 -92t-195 -54.5q0 -5 9 -74.5t12 -81.5q133 3 248 37q155 44 223 135.5t68 271.5q0 74 -16.5 177
t-47.5 196l313 21q35 -128 35 -328q0 -116 -21 -216t-56.5 -173.5t-86.5 -135t-105.5 -103t-120 -73t-124 -49.5t-121.5 -30q-221 -41 -395 -45zM868 653q30 0 52 -21.5t22 -53.5q0 -33 -22 -53.5t-52 -20.5q-32 0 -53.5 20.5t-21.5 53.5t22 54t53 21z" />
    <glyph glyph-name="u05EA05BC" unicode="&#xfb4a;" horiz-adv-x="1300" 
d="M47 -12l55 321q48 10 127 10h21q2 86 -6.5 251t-18.5 239h-4q-26 0 -68 6t-59 14l53 310q14 -3 39 -5.5t70 -3t74 -0.5h97h93h273q86 0 146 -8t102.5 -30t67 -50t38.5 -80.5t18 -108t4 -144.5v-709h-270v602q0 122 -31.5 164.5t-126.5 42.5h-247q6 -81 13 -246.5
t7 -245.5l-43 -317h-227q-150 0 -197 -12zM696 526q36 0 63 -26t27 -64q0 -41 -26.5 -65.5t-63.5 -24.5t-63.5 25t-26.5 65q0 39 27 64.5t63 25.5z" />
    <glyph glyph-name="u05D505B9" unicode="&#xfb4b;" horiz-adv-x="747" 
d="M346 0v598q0 108 -28.5 146.5t-124.5 60.5q-119 25 -170 41l51 309q69 -20 194 -39q87 -14 144 -35t98.5 -54t63.5 -86.5t32 -124t10 -175.5v-641h-270zM319 1391q36 0 63.5 -26.5t27.5 -64.5q0 -41 -27 -65.5t-64 -24.5t-63.5 25t-26.5 65q0 39 27 65t63 26z" />
    <glyph glyph-name="u05D105BF" unicode="&#xfb4c;" horiz-adv-x="1103" 
d="M37 -6l53 315q72 10 318 10h266q0 236 -4 308q-4 58 -11.5 89.5t-27.5 54.5t-53 30.5t-89 7.5h-190q-173 0 -225 18l53 314q49 -11 297 -11h168q74 0 127 -8.5t91.5 -30.5t61.5 -52.5t37 -82.5t18.5 -111t4.5 -147v-143q0 -195 -10 -236h137l-49 -319h-676
q-240 0 -297 -6zM698 1397v-107h-454v107h454z" />
    <glyph glyph-name="u05DB05BF" unicode="&#xfb4d;" horiz-adv-x="1103" 
d="M37 -6l53 315q45 8 299 8h316q18 119 18 246q0 78 -12 126t-42 74.5t-71.5 36t-110.5 9.5h-168q-193 0 -245 18l53 314q47 -11 274 -11h158q90 0 154.5 -11t114 -37.5t80.5 -66t50.5 -102t27 -139.5t7.5 -184q0 -231 -69 -590h-588q-256 0 -299 -6zM729 1397v-107h-455
v107h455z" />
    <glyph glyph-name="u05E405BF" unicode="&#xfb4e;" horiz-adv-x="1224" 
d="M63 -6l54 313q22 4 61.5 6.5t71.5 3t89.5 1.5t80.5 1h401v228q0 68 -9 108t-38 68.5t-71.5 43t-120.5 28.5q-45 8 -117 19.5t-92 14.5q-19 -34 -19 -55q0 -75 156 -80l-47 -286q-184 7 -268 81.5t-84 208.5q0 67 24.5 143t65 168t57.5 146q36 -12 338 -47
q90 -11 153.5 -25t123.5 -38t98 -59.5t67 -88t41.5 -125t12.5 -168.5v-305q-3 -20 -20.5 -150.5t-20.5 -148.5h-670q-259 0 -318 -6zM864 1397v-107h-454v107h454z" />
    <glyph glyph-name="u05D005DC" unicode="&#xfb4f;" horiz-adv-x="1114" 
d="M637 475q112 -120 418 -422l-303 -129q-158 160 -406 453q-132 158 -204 308t-72 329q0 222 63 422l316 18q-52 -137 -75.5 -241t-23.5 -212q0 -210 139 -364q62 27 103 56.5t59.5 62.5t24.5 60t6 63q0 103 -66 239l342 25q31 -89 31 -207q0 -162 -89.5 -270t-262.5 -191
z" />
    <glyph glyph-name="u05B005C7" 
d="M41 -164v-106h-115l8 -353h-112l8 353h-119v106h330zM233 -150q36 0 63.5 -26.5t27.5 -63.5q0 -40 -27 -65t-64 -25t-63.5 25t-26.5 65q0 39 27 64.5t63 25.5zM233 -408q36 0 63.5 -26.5t27.5 -63.5q0 -40 -27 -65t-64 -25t-63.5 25t-26.5 65q0 39 27 64.5t63 25.5z" />
    <glyph glyph-name="a.superior" horiz-adv-x="774" 
d="M698 545h-192l-14 67h-5q-80 -80 -202 -77q-99 0 -158 56.5t-59 143.5q0 116 108 177t295 61v14q0 9 -4.5 20t-16 25.5t-38.5 23.5t-66 9q-109 0 -188 -51l-41 131q107 65 270 65q81 0 141 -23t94 -63.5t50 -90t16 -109.5v-219q0 -111 10 -160zM479 780v72
q-90 0 -146.5 -24.5t-56.5 -75.5q0 -34 26 -56t65 -22q32 0 61 17.5t41 43.5q10 23 10 45z" />
    <glyph glyph-name="e.superior" horiz-adv-x="727" 
d="M680 803h-434q4 -58 59.5 -89.5t130.5 -31.5q95 0 187 29l26 -140q-103 -41 -243 -41q-170 0 -265.5 89t-95.5 243t95.5 251t244.5 97q144 0 223.5 -91.5t79.5 -231.5q0 -19 -4 -51t-4 -33zM244 944h250q0 28 -10 55.5t-38.5 50.5t-70.5 23q-58 0 -92 -40.5t-39 -88.5z
" />
    <glyph glyph-name="o.superior" horiz-adv-x="790" 
d="M397 1210q156 0 249 -93t93 -238q0 -84 -29 -151t-78.5 -108t-111 -63t-129.5 -22q-146 0 -245 91t-99 240q0 153 98 248.5t252 95.5zM393 1059q-63 0 -94 -58.5t-31 -132.5q0 -77 34.5 -129.5t92.5 -52.5q59 0 92 51.5t33 136.5q0 71 -34 128t-93 57z" />
    <glyph glyph-name="eogonek.superior" horiz-adv-x="727" 
d="M244 944h250q0 28 -10 55.5t-38.5 50.5t-70.5 23q-58 0 -92 -40.5t-39 -88.5zM406 530q-170 0 -265.5 89t-95.5 243t95.5 251t244.5 97q144 0 223.5 -91.5t79.5 -231.5q0 -19 -4 -51t-4 -33h-434q4 -58 59.5 -89.5t130.5 -31.5q95 0 187 29l26 -140q-8 -4 -28.5 -10
t-28.5 -10q-37 -17 -70 -54t-33 -73q0 -45 41 -45q30 0 54 12l30 -96q-59 -47 -145 -47q-64 0 -100.5 31.5t-36.5 85.5q0 85 90 165v2q-6 -2 -16 -2z" />
    <glyph glyph-name="ampersand.heb" horiz-adv-x="1421" 
d="M90 330q0 102 60 170.5t174 124.5q-91 98 -91 219q0 55 22.5 107t67 98t121.5 74t174 28q89 0 160.5 -25.5t115.5 -68t67.5 -93.5t23.5 -104q0 -183 -225 -289q90 -87 176 -161q73 88 102 252h287q-56 -273 -215 -416q30 -31 65.5 -64t79.5 -74t72 -67l-6 -16l-360 -45
q-7 7 -44 38t-53 48q-117 -84 -317 -84q-112 0 -201 29.5t-144 79t-83.5 110.5t-28.5 129zM397 365q0 -57 47.5 -95.5t133.5 -38.5q64 0 106 23q-117 105 -225 215q-62 -45 -62 -104zM608 715q59 29 86 60t27 69q0 39 -29 66.5t-78 27.5q-45 0 -71.5 -25.5t-26.5 -64.5
q0 -67 92 -133z" />
    <glyph glyph-name="zero.heb" horiz-adv-x="1093" 
d="M365 567q0 -148 48.5 -234.5t137.5 -86.5q86 0 131 86t45 233t-48.5 233.5t-131.5 86.5q-88 0 -135 -83.5t-47 -234.5zM74 565q0 270 131.5 428t343.5 158q118 0 209.5 -47.5t147 -129.5t84 -186t28.5 -223q0 -125 -30 -231t-87.5 -185t-147.5 -124t-204 -45
q-148 0 -257 76.5t-163.5 208t-54.5 300.5z" />
    <glyph glyph-name="one.heb" horiz-adv-x="1093" 
d="M721 258h219v-258h-758v258h248v559q-117 -46 -207 -57l-2 250q138 26 299 127h201v-879z" />
    <glyph glyph-name="two.heb" horiz-adv-x="1069" 
d="M104 0v193l103 61q203 125 312.5 237.5t109.5 217.5q0 70 -41.5 119t-134.5 49q-149 0 -285 -91l-80 244q192 119 414 119q93 0 168 -24t121.5 -63t78 -90.5t44 -103.5t12.5 -106q0 -289 -340 -508q63 4 229 4h156v-258h-867z" />
    <glyph glyph-name="three.heb" horiz-adv-x="1069" 
d="M86 84l80 264q158 -112 319 -112q107 0 150 27.5t43 78.5q0 45 -42.5 74.5t-135.5 29.5h-193l-2 261h174q174 0 174 88q0 104 -176 104q-61 0 -121 -16t-92 -31.5t-88 -46.5l-67 244q4 2 29.5 14t31.5 14.5t30 13.5t34 14t34.5 11.5t39.5 11.5t40.5 8t47 7t49.5 4t57 2
q213 0 320.5 -82t107.5 -225q0 -84 -53 -149t-132 -89q97 -23 162.5 -94t65.5 -174q0 -160 -123.5 -258t-339.5 -98q-246 0 -424 104z" />
    <glyph glyph-name="four.heb" horiz-adv-x="1093" 
d="M68 256v174q435 621 505 707h297v-643h158v-238h-158v-256h-274v256h-528zM367 494h229v55q0 177 8 303h-2q-36 -48 -119.5 -175.5t-115.5 -182.5z" />
    <glyph glyph-name="five.heb" horiz-adv-x="1093" 
d="M84 78l63 274q77 -48 172.5 -79t190.5 -31q61 0 101 11.5t57 32t22.5 38.5t5.5 43q0 137 -262 137q-116 0 -291 -33v70l121 589h676l-45 -260h-442l-31 -129q6 0 34 2t48 2q241 0 364 -96t123 -264q0 -182 -129.5 -293.5t-363.5 -111.5q-123 0 -232 27t-182 71z" />
    <glyph glyph-name="six.heb" horiz-adv-x="1069" 
d="M369 430q8 -82 58.5 -135.5t135.5 -56.5q83 0 119.5 41t36.5 94q0 57 -39.5 97t-128.5 40q-114 0 -182 -80zM78 506q0 152 50 273.5t140 200.5t211.5 121t265.5 42q103 0 156 -13l-29 -260q-74 17 -153 17q-146 0 -238.5 -63.5t-118.5 -164.5q110 93 259 93
q171 0 273.5 -96t102.5 -267q0 -82 -28.5 -155t-82.5 -130t-141.5 -90.5t-197.5 -33.5q-117 0 -209 43.5t-147.5 118t-84 167t-28.5 197.5z" />
    <glyph glyph-name="seven.heb" horiz-adv-x="1093" 
d="M215 0q434 852 444 870h-542v260h866v-200q-63 -144 -208.5 -449t-235.5 -481h-324z" />
    <glyph glyph-name="eight.heb" horiz-adv-x="1069" 
d="M539 700q69 0 106 31.5t37 73.5q0 47 -39.5 80t-112.5 33q-72 0 -110.5 -33.5t-38.5 -75.5q0 -50 39 -79.5t119 -29.5zM365 340q0 -48 45.5 -82.5t128.5 -34.5q77 0 120 32.5t43 78.5q0 51 -44 86t-126 35q-84 0 -125.5 -33t-41.5 -82zM76 319q0 177 190 252
q-157 75 -157 250q0 144 112 237t322 93q111 0 194 -30t128 -79t66 -102.5t21 -110.5q0 -170 -155 -243q92 -33 144 -99t52 -157q0 -156 -121 -253t-352 -97q-212 0 -328 96.5t-116 242.5z" />
    <glyph glyph-name="nine.heb" horiz-adv-x="1093" 
d="M553 616q58 0 105 20t71 52q-4 37 -18 72t-38 65.5t-63.5 49t-89.5 18.5q-77 0 -116 -38.5t-39 -96.5q0 -56 43 -99t145 -43zM180 -2l27 258q70 -12 151 -12q139 0 233.5 53.5t129.5 155.5q-85 -82 -240 -82q-187 0 -297 97.5t-110 272.5q0 81 32 154.5t90 131t149 91
t200 33.5q210 0 339.5 -144.5t129.5 -390.5q0 -197 -86.5 -342.5t-234 -219.5t-335.5 -74q-110 0 -178 18z" />
    <glyph glyph-name="zero.pnumheb" horiz-adv-x="1148" 
d="M391 567q0 -147 50 -234t139 -87q86 0 131 86t45 233q0 146 -49 233t-132 87q-89 0 -136.5 -84t-47.5 -234zM102 565q0 270 131 428t345 158q118 0 209.5 -47.5t147 -129.5t84 -186t28.5 -223q0 -125 -30 -231t-87.5 -185t-147.5 -124t-204 -45q-148 0 -257 76.5
t-164 208t-55 300.5z" />
    <glyph glyph-name="one.pnumheb" horiz-adv-x="710" 
d="M272 0v815q-107 -42 -196 -53l-8 250q67 15 154.5 51.5t144.5 73.5h196v-1137h-291z" />
    <glyph glyph-name="two.pnumheb" horiz-adv-x="1081" 
d="M94 0v193l103 61q202 125 311.5 237.5t109.5 217.5q0 70 -42 119t-136 49q-146 0 -282 -91l-80 244q188 119 414 119q93 0 168 -24t121.5 -63t77.5 -91t43.5 -103.5t12.5 -105.5q0 -289 -340 -508q61 4 230 4h156v-258h-867z" />
    <glyph glyph-name="three.pnumheb" horiz-adv-x="1054" 
d="M57 84l80 264q155 -112 320 -112q106 0 148 27t42 79q0 45 -42.5 74.5t-133.5 29.5h-195l-2 261h175q174 0 174 88q0 104 -177 104q-60 0 -119 -16t-93 -32t-87 -46l-67 244q113 54 168 70q99 30 225 30q212 0 319 -82t107 -225q0 -85 -52.5 -149.5t-131.5 -88.5
q97 -23 162 -94t65 -174q0 -160 -123.5 -258t-339.5 -98q-248 0 -422 104z" />
    <glyph glyph-name="four.pnumheb" horiz-adv-x="1138" 
d="M94 256v174q431 615 504 707h299v-643h158v-238h-158v-256h-274v256h-529zM391 494h232v55q0 177 8 303h-2q-37 -49 -122.5 -178t-115.5 -180z" />
    <glyph glyph-name="five.pnumheb" horiz-adv-x="1083" 
d="M78 78l61 274q179 -110 365 -110q61 0 101 11.5t57 32t22.5 38.5t5.5 43q0 137 -264 137q-33 0 -66.5 -2t-56.5 -4t-54 -7t-43 -7t-39.5 -7.5t-29.5 -5.5v70l121 589h676l-45 -260h-443l-30 -129q6 0 34 2t48 2q241 0 363 -96t122 -264q0 -182 -129 -293.5t-362 -111.5
q-125 0 -233.5 27t-180.5 71z" />
    <glyph glyph-name="six.pnumheb" horiz-adv-x="1140" 
d="M395 430q8 -82 59 -135.5t136 -56.5q83 0 119 41t36 94q0 58 -39 97.5t-128 39.5q-59 0 -106.5 -23t-76.5 -57zM104 506q0 152 50.5 273.5t140 200.5t211.5 121t266 42q103 0 156 -13l-29 -260q-74 17 -154 17q-146 0 -238 -63.5t-118 -164.5q110 93 258 93
q171 0 274 -96t103 -267q0 -82 -28.5 -155t-83 -130t-142 -90.5t-197.5 -33.5q-117 0 -209 43.5t-147.5 118t-84 167t-28.5 197.5z" />
    <glyph glyph-name="seven.pnumheb" horiz-adv-x="1026" 
d="M170 0q420 825 446 870h-544v260h866v-200q-67 -153 -211 -456.5t-233 -473.5h-324z" />
    <glyph glyph-name="eight.pnumheb" horiz-adv-x="1120" 
d="M551 700q70 0 106.5 31t36.5 74q0 47 -39 80t-112 33q-72 0 -111 -33.5t-39 -75.5q0 -50 39 -79.5t119 -29.5zM379 340q0 -48 45 -82.5t129 -34.5q76 0 119 32.5t43 78.5q0 51 -43.5 86t-126.5 35q-82 0 -124 -33t-42 -82zM88 319q0 176 193 252q-83 39 -121.5 105
t-38.5 145q0 144 112 237t322 93q90 0 162.5 -20t118 -52.5t76 -75.5t43 -86t12.5 -88q0 -84 -41.5 -146t-114.5 -97q92 -33 143.5 -99t51.5 -157q0 -156 -121.5 -253t-352.5 -97q-211 0 -327.5 97t-116.5 242z" />
    <glyph glyph-name="nine.pnumheb" horiz-adv-x="1134" 
d="M571 616q58 0 104.5 20t72.5 52q-11 83 -63.5 144t-147.5 61q-76 0 -116 -38.5t-40 -96.5q0 -25 8.5 -47.5t28 -45t59 -36t94.5 -13.5zM197 -2l26 258q74 -12 154 -12q138 0 232.5 53.5t129.5 155.5q-88 -82 -241 -82q-187 0 -296.5 97.5t-109.5 272.5q0 81 31.5 154.5
t89.5 131t148.5 91t199.5 33.5q212 0 341.5 -144.5t129.5 -390.5q0 -197 -87 -342.5t-234 -219.5t-334 -74q-109 0 -180 18z" />
    <glyph glyph-name="numbersign.heb" horiz-adv-x="1150" 
d="M1063 662h-184l-48 -177h123v-249h-192l-66 -240h-192l65 240h-168l-67 -240h-195l68 240h-119v249h188l50 177h-140v241h207l64 227h192l-63 -227h168l61 227h193l-62 -227h117v-241zM639 485l47 177h-168l-49 -177h170z" />
    <glyph glyph-name="uni20AA.heb" horiz-adv-x="1488" 
d="M133 -4v1134h621q74 0 120 -14.5t72 -50.5t35.5 -86t9.5 -131v-391h-196v217q0 89 -27.5 112t-122.5 23h-254v-813h-258zM492 328l4 354h194v-250q0 -36 12.5 -59.5t37 -35t52.5 -16t68 -4.5h240v813h256v-1134h-611q-67 0 -114 15.5t-74.5 41.5t-42 70.5t-19 90.5
t-3.5 114z" />
    <glyph glyph-name="dollar.heb" horiz-adv-x="1150" 
d="M90 129l76 268q92 -63 195.5 -98t193.5 -35q74 0 112 16.5t38 43.5q0 26 -42 50t-147 52q-121 30 -202 67t-126.5 82.5t-63.5 96t-18 116.5q0 125 85.5 213.5t232.5 114.5v162h281v-158q197 -20 290 -90l-90 -252q-176 96 -364 96q-72 0 -105 -16t-33 -39q0 -18 13 -31
t60.5 -31t141.5 -42q121 -29 202.5 -67t124.5 -85.5t60 -97.5t17 -115q0 -73 -28.5 -134t-76 -101.5t-102.5 -66t-115 -36.5v-166h-278v160q-82 7 -172 41.5t-160 81.5z" />
    <glyph glyph-name="sterling.heb" horiz-adv-x="1150" 
d="M113 0v172q178 63 178 287h-166v200h158v64q0 196 117.5 311t318.5 115q81 0 155.5 -14.5t108.5 -34.5l-63 -254q-76 39 -175 39q-85 0 -122 -46.5t-37 -117.5v-62h258v-200h-256q-7 -54 -32 -113.5t-62 -87.5h526v-258h-907z" />
    <glyph glyph-name="yen.heb" horiz-adv-x="1150" 
d="M143 229v150h256v108h-256v150h199l-330 493h353l102 -210q67 -145 92 -209h2q17 42 92 209l105 208h338l-338 -491h200v-150h-264v-108h264v-150h-264v-229h-295v229h-256z" />
    <glyph glyph-name="Euro.heb" horiz-adv-x="1150" 
d="M887 373h-385q75 -125 274 -125q60 0 122.5 13.5t98.5 29.5l50 -248q-122 -61 -318 -61q-91 0 -175 22t-160.5 67.5t-134.5 122.5t-85 179h-123v145h101v41q0 22 4 72h-105v147h137q59 167 204 269t366 102q172 0 293 -53l-60 -250q-109 41 -225 41q-70 0 -133.5 -27.5
t-104.5 -81.5h250h109v-147h-420q-6 -35 -6 -72q0 -29 2 -41h424v-145z" />
    <glyph glyph-name="cent.heb" horiz-adv-x="1150" 
d="M170 543q0 177 105 309t292 172v186h221v-178q104 -3 191 -41l-51 -256q-88 45 -211 45q-115 0 -182.5 -62t-67.5 -167q0 -107 71 -168t179 -61q124 0 219 36l41 -243q-76 -39 -191 -47v-187h-219v191q-179 35 -288 159.5t-109 311.5z" />
    <glyph glyph-name="uni0192.heb" horiz-adv-x="1150" 
d="M242 518v203h186l6 41q8 40 15 71t23.5 80t36.5 85.5t54.5 78t76 68t101.5 44t131 17.5q104 0 166 -32l-51 -261q-51 19 -100 19q-72 0 -108.5 -38t-49.5 -114l-10 -59h209v-203h-234l-43 -301q-11 -82 -27 -143t-45.5 -121t-71 -98t-106.5 -61t-149 -23q-122 0 -184 32
l49 263q43 -18 100 -21q31 1 49.5 6t35 18t27 42.5t20 71.5t20.5 112l32 223h-159z" />
    <glyph glyph-name="onesuperior.heb" horiz-adv-x="686" 
d="M287 406v483l-156 -66l-45 181l229 104h217v-702h-245z" />
    <glyph glyph-name="twosuperior.heb" horiz-adv-x="786" 
d="M90 406v153q168 77 249 139t81 123q0 76 -101 76q-92 0 -180 -49l-57 194q114 78 289 78q137 0 216 -65t79 -176q0 -159 -189 -269h215v-204h-602z" />
    <glyph glyph-name="threesuperior.heb" horiz-adv-x="776" 
d="M92 449l41 182q35 -17 93 -32t102 -15q118 0 118 43q0 47 -133 47h-77v178h75q115 0 115 41q0 39 -94 39q-46 0 -98 -14.5t-84 -30.5l-44 174q44 25 118 42t153 17q141 0 215 -51t74 -137q0 -54 -33.5 -96.5t-93.5 -59.5v-2q153 -39 153 -166q0 -97 -94.5 -156
t-243.5 -59q-171 0 -262 56z" />
    <glyph glyph-name="onequarter.heb" horiz-adv-x="1802" 
d="M1018 135v172l307 393h293v-372h94v-193h-94v-135h-219v135h-381zM1239 328h160v51q0 131 2 156zM381 -18l731 1128h225l-727 -1130zM287 406v483l-154 -66l-47 181l229 104h217v-702h-245z" />
    <glyph glyph-name="onehalf.heb" horiz-adv-x="1859" 
d="M1157 0v156q168 76 249.5 137.5t80.5 122.5q0 78 -103 78q-80 0 -178 -50l-55 193q114 78 287 78q137 0 217 -65.5t80 -176.5q0 -154 -189 -268h215v-205h-604zM395 -18l731 1128h226l-727 -1130zM287 406v483l-156 -66l-45 181l229 104h217v-702h-245z" />
    <glyph glyph-name="threequarters.heb" horiz-adv-x="1900" 
d="M92 449l41 182q35 -17 93 -32t102 -15q118 0 118 43q0 47 -133 47h-77v178h75q115 0 115 41q0 39 -94 39q-46 0 -98 -14.5t-84 -30.5l-44 174q44 25 118 42t153 17q141 0 215 -51t74 -137q0 -54 -33.5 -96.5t-93.5 -59.5v-2q153 -39 153 -166q0 -97 -94.5 -156
t-243.5 -59q-171 0 -262 56zM1098 135v172l309 393h293v-372h94v-193h-94v-135h-219v135h-383zM1321 328h160v51q0 15 -0.5 47.5t-0.5 59.5t1 49zM465 -18l731 1128h227l-727 -1130z" />
    <glyph glyph-name="percent.heb" horiz-adv-x="1792" 
d="M416 0l751 1126h205l-747 -1126h-209zM416 492q-154 0 -238 90.5t-84 228.5q0 156 95.5 247t228.5 91q155 0 239 -92.5t84 -239.5q0 -61 -21 -118t-60.5 -103.5t-102.5 -75t-141 -28.5zM422 688q50 0 83.5 36t33.5 95q0 63 -33 98t-88 35q-48 0 -82.5 -36.5t-34.5 -94.5
q0 -59 32 -96t89 -37zM1053 303q0 153 95.5 243.5t227.5 90.5q155 0 238.5 -91t83.5 -237q0 -82 -35 -155t-110.5 -122.5t-176.5 -49.5q-156 0 -239.5 91t-83.5 230zM1255 309q0 -55 34.5 -93t90.5 -38q50 0 83.5 36.5t33.5 94.5q0 61 -33.5 99t-87.5 38q-51 0 -86 -39
t-35 -98z" />
    <glyph glyph-name="perthousand.heb" horiz-adv-x="2516" 
d="M1778 303q0 153 95.5 243.5t227.5 90.5q155 0 238.5 -91t83.5 -237q0 -82 -34.5 -155t-110 -122.5t-177.5 -49.5q-156 0 -239.5 91t-83.5 230zM1980 309q0 -55 34.5 -93t90.5 -38q50 0 83.5 36.5t33.5 94.5q0 61 -33.5 99t-87.5 38q-51 0 -86 -39t-35 -98zM416 0
l751 1126h205l-747 -1126h-209zM416 492q-154 0 -238 90.5t-84 228.5q0 156 95.5 247t228.5 91q155 0 239 -92.5t84 -239.5q0 -61 -21 -118t-60.5 -103.5t-102.5 -75t-141 -28.5zM422 688q50 0 83.5 36t33.5 95q0 63 -33 98t-88 35q-48 0 -82.5 -36.5t-34.5 -94.5
q0 -59 32 -96t89 -37zM1053 303q0 153 95.5 243.5t227.5 90.5q155 0 238.5 -91t83.5 -237q0 -82 -35 -155t-110.5 -122.5t-176.5 -49.5q-156 0 -239.5 91t-83.5 230zM1255 309q0 -55 34.5 -93t90.5 -38q50 0 83.5 36.5t33.5 94.5q0 61 -33.5 99t-87.5 38q-51 0 -86 -39
t-35 -98z" />
    <glyph glyph-name="ampersand.lat" horiz-adv-x="1388" 
d="M1376 0h-362q-56 60 -90 98q-156 -121 -379 -121q-120 0 -215 33.5t-152 90.5t-86 125t-29 143q0 132 69.5 231.5t193.5 163.5v8q-46 52 -75.5 123.5t-29.5 142.5q0 67 26.5 131t76.5 116.5t131 85t180 32.5q163 0 269 -88.5t106 -235.5q0 -216 -273 -354l-2 -8
q23 -26 108 -122t124 -136q87 136 116 336h279q-60 -336 -229 -525q172 -194 243 -270zM588 203q117 0 190 69q-93 93 -311 338q-109 -78 -109 -190q0 -91 63.5 -154t166.5 -63zM625 1208q-57 0 -91 -42t-34 -99q0 -94 94 -199q80 56 115.5 101t35.5 102q0 55 -31 96t-89 41
z" />
    <glyph glyph-name="zero.lat" horiz-adv-x="1136" 
d="M573 1354q104 0 188 -36t140.5 -98.5t95 -150t55.5 -186.5t17 -211q0 -209 -54.5 -363.5t-170 -243t-281.5 -88.5q-125 0 -221.5 54t-155.5 149t-89 217t-31 267q0 147 31.5 271t92.5 218t159 147.5t224 53.5zM569 1118q-89 0 -140 -114.5t-50 -339.5q-1 -224 49 -337.5
t143 -113.5q91 0 139 114.5t48 340.5q0 450 -189 450z" />
    <glyph glyph-name="one.lat" horiz-adv-x="1136" 
d="M483 0v1055h-4l-254 -121l-51 233l352 164h258v-1331h-301z" />
    <glyph glyph-name="two.lat" horiz-adv-x="1136" 
d="M1030 0h-944v188l172 156q119 106 192 177.5t132 142.5t85 129t27 116q0 87 -54.5 141t-164.5 54q-138 0 -285 -111l-88 224q80 61 194 99t243 38q220 0 343.5 -115.5t123.5 -302.5q0 -80 -27 -157.5t-79.5 -150.5t-110 -133.5t-138.5 -132.5l-123 -102v-4h502v-256z" />
    <glyph glyph-name="three.lat" horiz-adv-x="1136" 
d="M78 72l63 233q57 -30 141.5 -56t168.5 -26q117 0 180 49.5t63 128.5q0 63 -39 107.5t-98.5 64t-130.5 19.5h-127v223h121q58 1 108.5 15t89.5 50t39 89q0 62 -50.5 100.5t-145.5 38.5q-74 0 -151.5 -25t-127.5 -55l-63 225q65 42 177 71.5t234 29.5q206 0 324.5 -95
t118.5 -237q0 -108 -61.5 -187.5t-182.5 -121.5v-4q125 -23 207 -110.5t82 -213.5q0 -180 -148 -294t-397 -114q-121 0 -226 27.5t-169 67.5z" />
    <glyph glyph-name="four.lat" horiz-adv-x="1136" 
d="M932 0h-295v317h-590v203l504 811h381v-780h160v-234h-160v-317zM338 551h299v295q0 105 10 248h-8q-9 -19 -53 -109t-70 -139l-178 -291v-4z" />
    <glyph glyph-name="five.lat" horiz-adv-x="1136" 
d="M975 1331v-256h-516l-29 -205q29 4 86 4q217 0 350 -96q162 -110 162 -334q0 -93 -39.5 -177.5t-111 -149t-180.5 -102.5t-240 -38q-114 0 -212 22t-159 54l55 234q52 -25 135 -45.5t166 -20.5q68 0 126.5 20.5t99.5 68t41 114.5q0 221 -375 221q-98 0 -180 -12l88 698
h733z" />
    <glyph glyph-name="six.lat" horiz-adv-x="1136" 
d="M936 1350v-240q-72 0 -121 -4q-194 -16 -299.5 -103.5t-134.5 -216.5h6q104 107 283 107q174 0 292.5 -117t118.5 -317q0 -201 -139 -341.5t-352 -140.5q-129 0 -231.5 46t-166.5 126.5t-97.5 184.5t-33.5 225q0 183 63 336.5t173 255.5q200 182 514 197q75 5 125 2z
M586 207q82 0 131 66t49 169q0 98 -52 164t-147 66q-61 0 -110.5 -33t-73.5 -86q-12 -24 -12 -78q5 -114 60 -191t155 -77z" />
    <glyph glyph-name="seven.lat" horiz-adv-x="1136" 
d="M100 1331h940v-196l-548 -1135h-330l549 1071v4h-611v256z" />
    <glyph glyph-name="eight.lat" horiz-adv-x="1136" 
d="M559 -23q-122 0 -219 32.5t-155 86t-88.5 118t-30.5 134.5q0 117 62.5 201t174.5 133v6q-95 48 -143.5 124.5t-48.5 166.5q0 167 133.5 271t335.5 104q90 0 165 -20t125 -53.5t84.5 -78t50 -92.5t15.5 -98q0 -90 -49 -167.5t-144 -125.5v-6q106 -40 175 -125.5t69 -206.5
q0 -182 -140.5 -293t-371.5 -111zM571 193q82 0 132.5 46.5t50.5 118.5q0 84 -56 139t-153 81q-76 -22 -119 -74.5t-43 -124.5q-2 -75 50.5 -130.5t137.5 -55.5zM565 1143q-76 0 -119 -44t-43 -110q0 -121 189 -180q56 16 95.5 62.5t39.5 107.5q0 68 -40.5 116t-121.5 48z
" />
    <glyph glyph-name="nine.lat" horiz-adv-x="1136" 
d="M184 -18v243q53 -5 135 0q157 10 263 82q129 88 168 246l-7 2q-93 -96 -268 -96q-113 0 -206 49t-150.5 145t-57.5 221q0 97 37.5 184.5t103 153t160 104t201.5 38.5q125 0 222.5 -45.5t158 -125t92 -182t31.5 -221.5q0 -398 -233 -612q-192 -174 -508 -186
q-61 -5 -142 0zM555 1126q-80 0 -131.5 -65t-50.5 -168q0 -92 48.5 -152.5t139.5 -60.5q59 0 103.5 25t68.5 63q17 31 17 78q0 75 -18.5 136t-64 102.5t-112.5 41.5z" />
    <glyph glyph-name="zero.slash" horiz-adv-x="1136" 
d="M381 492l324 540q-42 86 -136 86q-97 0 -152 -117.5t-55 -332.5q0 -99 19 -176zM760 848l-328 -553q49 -82 135 -82q97 0 152 116t55 339q0 88 -14 180zM573 1354q104 0 188 -36t140.5 -98.5t95 -150t55.5 -186.5t17 -211q0 -209 -54.5 -363.5t-170 -243t-281.5 -88.5
q-125 0 -221.5 54t-155.5 149t-89 217t-31 267q0 147 31.5 271t92.5 218t159 147.5t224 53.5z" />
    <glyph glyph-name="zero.pnumlat" horiz-adv-x="1136" 
d="M573 1354q104 0 188 -36t140.5 -98.5t95 -150t55.5 -186.5t17 -211q0 -209 -54.5 -363.5t-170 -243t-281.5 -88.5q-125 0 -221.5 54t-155.5 149t-89 217t-31 267q0 147 31.5 271t92.5 218t159 147.5t224 53.5zM569 1118q-89 0 -140 -114.5t-50 -339.5q-1 -224 49 -337.5
t143 -113.5q91 0 139 114.5t48 340.5q0 450 -189 450z" />
    <glyph glyph-name="one.pnumlat" horiz-adv-x="780" 
d="M319 0v1055h-4l-254 -121l-51 233l352 164h259v-1331h-302z" />
    <glyph glyph-name="two.pnumlat" horiz-adv-x="1009" 
d="M950 0h-944v188l172 156q119 106 192 177.5t132 142.5t84 129t26 116q0 87 -53.5 141t-163.5 54q-137 0 -284 -111l-88 224q80 61 194 99t242 38q220 0 342.5 -115.5t122.5 -302.5q0 -81 -26.5 -158t-79 -150t-109.5 -133.5t-138 -132.5l-125 -102v-4h504v-256z" />
    <glyph glyph-name="three.pnumlat" horiz-adv-x="1019" 
d="M14 72l64 233q54 -29 139 -55.5t170 -26.5q117 0 180.5 50t63.5 128q0 63 -39.5 107.5t-99 64t-130.5 19.5h-126v223h120q42 1 81.5 9.5t75 25.5t57.5 48t22 71q0 63 -50 101t-145 38q-75 0 -151 -24.5t-127 -55.5l-64 225q65 42 177.5 71.5t234.5 29.5q206 0 324 -95
t118 -237q0 -107 -61.5 -187t-181.5 -122v-4q124 -23 206 -110t82 -214q0 -180 -147.5 -294t-396.5 -114q-121 0 -226.5 27.5t-169.5 67.5z" />
    <glyph glyph-name="four.pnumlat" horiz-adv-x="1118" 
d="M918 0h-293v317h-590v203l502 811h381v-780h159v-234h-159v-317zM324 551h301v295q0 76 8 248h-8q-80 -167 -123 -248l-178 -291v-4z" />
    <glyph glyph-name="five.pnumlat" horiz-adv-x="1036" 
d="M911 1331v-256h-516l-28 -205q29 4 86 4q219 0 352 -96q160 -109 160 -334q0 -93 -39.5 -177.5t-111 -149t-181 -102.5t-240.5 -38q-112 0 -209.5 22t-160.5 54l57 234q52 -25 134.5 -45.5t164.5 -20.5q109 0 188 52t78 151q0 221 -375 221q-98 0 -178 -12l86 698h733z
" />
    <glyph glyph-name="six.pnumlat" horiz-adv-x="1138" 
d="M938 1350v-240q-45 2 -123 -4q-193 -16 -298 -103t-136 -217h6q107 107 283 107q174 0 292.5 -117t118.5 -317q0 -132 -61 -241.5t-174 -175t-254 -65.5q-129 0 -231.5 46t-166.5 126.5t-97.5 184.5t-33.5 225q0 183 63 336.5t173 255.5q200 182 512 197q76 5 127 2z
M588 207q82 0 130 66t48 169q0 98 -51 164t-146 66q-61 0 -110.5 -33t-73.5 -86q-14 -28 -14 -78q5 -114 60.5 -191t156.5 -77z" />
    <glyph glyph-name="seven.pnumlat" horiz-adv-x="948" 
d="M8 1331h940v-196l-549 -1135h-329l548 1071v4h-610v256z" />
    <glyph glyph-name="eight.pnumlat" horiz-adv-x="1136" 
d="M559 -23q-122 0 -219 32.5t-155 86t-88.5 118t-30.5 134.5q0 117 62.5 201t174.5 133v6q-95 48 -143.5 124.5t-48.5 166.5q0 167 133.5 271t335.5 104q90 0 165 -20t125 -53.5t84.5 -78t50 -92.5t15.5 -98q0 -90 -49 -167.5t-144 -125.5v-6q106 -40 175 -125.5t69 -206.5
q0 -182 -140.5 -293t-371.5 -111zM571 193q82 0 132.5 46.5t50.5 118.5q0 84 -56 139t-153 81q-76 -22 -119 -74.5t-43 -124.5q-2 -75 50.5 -130.5t137.5 -55.5zM565 1143q-76 0 -119 -44t-43 -110q0 -121 189 -180q56 16 95.5 62.5t39.5 107.5q0 68 -40.5 116t-121.5 48z
" />
    <glyph glyph-name="nine.pnumlat" horiz-adv-x="1138" 
d="M184 -18v243q53 -5 135 0q157 10 263 82q129 88 168 246l-7 2q-93 -96 -266 -96q-113 0 -207 49t-151.5 145t-57.5 221q0 97 37.5 184.5t103 153t160 104t201.5 38.5q125 0 222.5 -45.5t158 -125t92 -182t31.5 -221.5q0 -398 -233 -612q-192 -174 -508 -186
q-61 -5 -142 0zM555 1126q-80 0 -131.5 -65t-50.5 -168q0 -92 48.5 -152.5t139.5 -60.5q59 0 103.5 25t68.5 63q17 31 17 78q0 75 -18.5 136t-64 102.5t-112.5 41.5z" />
    <glyph glyph-name="zero.slashpnum" horiz-adv-x="1136" 
d="M381 492l324 540q-42 86 -136 86q-97 0 -152 -117.5t-55 -332.5q0 -99 19 -176zM760 848l-328 -553q49 -82 135 -82q97 0 152 116t55 339q0 88 -14 180zM573 1354q104 0 188 -36t140.5 -98.5t95 -150t55.5 -186.5t17 -211q0 -209 -54.5 -363.5t-170 -243t-281.5 -88.5
q-125 0 -221.5 54t-155.5 149t-89 217t-31 267q0 147 31.5 271t92.5 218t159 147.5t224 53.5z" />
    <glyph glyph-name="exclam.lat" horiz-adv-x="610" 
d="M453 453h-234l-47 927h326zM336 -23q-82 0 -133 53t-51 134q0 82 51 134t133 52q81 0 130.5 -51.5t51.5 -134.5q0 -81 -50 -134t-132 -53z" />
    <glyph glyph-name="exclamdown.lat" horiz-adv-x="583" 
d="M438 -391h-325l45 926h235zM274 1012q81 0 132 -52.5t51 -134.5t-50 -134t-133 -52q-81 0 -131.5 52t-50.5 134t51 134.5t131 52.5z" />
    <glyph glyph-name="question.lat" horiz-adv-x="944" 
d="M586 449h-273l-2 53q-9 164 121 319q42 51 62 78t38.5 65.5t18.5 71.5q0 55 -37.5 87.5t-112.5 35.5q-51 0 -106.5 -16.5t-95.5 -44.5l-70 223q148 84 342 84q192 0 293.5 -91.5t101.5 -228.5q0 -45 -12.5 -89t-25.5 -73t-44 -70.5t-44 -56.5t-50 -55
q-107 -121 -104 -256v-36zM442 -23q-81 0 -131.5 53t-50.5 134q0 83 51 134.5t131 51.5q83 0 133 -51t52 -135q0 -81 -51.5 -134t-133.5 -53z" />
    <glyph glyph-name="questiondown.lat" horiz-adv-x="915" 
d="M504 1012q81 0 131.5 -52.5t50.5 -134.5q0 -83 -50 -134.5t-132 -51.5q-81 0 -131.5 52t-50.5 134t50.5 134.5t131.5 52.5zM362 543h273l2 -54q9 -164 -121 -321q-60 -71 -89.5 -119t-29.5 -96q0 -55 37 -87.5t111 -33.5q53 0 108.5 16.5t96.5 45.5l67 -226
q-145 -84 -342 -84q-191 0 -292 91.5t-101 228.5q0 43 11 85t23 70t40 67t41 54.5t47 53.5q9 11 14 16q107 121 104 256v37z" />
    <glyph glyph-name="quotesingle.lat" horiz-adv-x="419" 
d="M72 1417h276l-47 -555h-182z" />
    <glyph glyph-name="quotedbl.lat" horiz-adv-x="813" 
d="M72 1417h276l-47 -555h-182zM465 1417h276l-47 -555h-182z" />
    <glyph glyph-name="quoteleft.lat" horiz-adv-x="532" 
d="M346 866l-291 -20q98 312 246 555l188 16q-97 -267 -143 -551z" />
    <glyph glyph-name="quoteright.lat" horiz-adv-x="532" 
d="M195 1399l292 18q-96 -304 -245 -553l-189 -18q104 300 142 553z" />
    <glyph glyph-name="quotedblleft.lat" horiz-adv-x="929" 
d="M344 866l-291 -20q98 312 246 555l188 16q-97 -267 -143 -551zM743 866l-290 -20q99 316 245 555l189 16q-101 -289 -144 -551z" />
    <glyph glyph-name="quotedblright.lat" horiz-adv-x="929" 
d="M195 1399l290 18q-96 -304 -245 -553l-189 -18q103 296 144 553zM594 1399l291 18q-99 -312 -246 -553l-188 -18q101 291 143 553z" />
    <glyph glyph-name="guilsinglleft.lat" horiz-adv-x="579" 
d="M535 907l-269 -391l269 -391h-218l-264 391l264 391h218z" />
    <glyph glyph-name="guilsinglright.lat" horiz-adv-x="579" 
d="M326 516l-281 391h215l279 -391l-279 -391h-215z" />
    <glyph glyph-name="guillemotleft.lat" horiz-adv-x="978" 
d="M535 907l-269 -391l269 -391h-218l-264 391l264 391h218zM932 907l-268 -391l268 -391h-217l-264 391l264 391h217z" />
    <glyph glyph-name="guillemotright.lat" horiz-adv-x="978" 
d="M315 516l-268 391h213l266 -391l-266 -391h-213zM707 516l-269 391h215l267 -391l-267 -391h-215z" />
    <glyph glyph-name="hyphentwo.lat" horiz-adv-x="657" 
d="M61 696h551v-260h-551v260z" />
    <glyph glyph-name="endash.lat" horiz-adv-x="987" 
d="M61 616h861v-192h-861v192z" />
    <glyph glyph-name="emdash.lat" horiz-adv-x="1669" 
d="M70 616h1532v-192h-1532v192z" />
    <glyph glyph-name="periodcentered.lat" horiz-adv-x="532" 
d="M266 342q-82 0 -133 52.5t-51 135.5t52 137t132 54q81 0 132 -53t53 -138q0 -84 -51 -136t-134 -52z" />
    <glyph glyph-name="bullet.lat" horiz-adv-x="692" 
d="M346 266q-111 0 -188.5 77t-77.5 192q0 112 77.5 190t188.5 78t188.5 -77.5t77.5 -190.5q0 -114 -76.5 -191.5t-189.5 -77.5z" />
    <glyph glyph-name="parenleft.lat" horiz-adv-x="649" 
d="M373 1462h219q-101 -163 -165.5 -385.5t-64.5 -490.5q0 -479 230 -858h-219q-254 371 -254 860q1 150 24 288.5t63 247.5t80 189.5t87 148.5z" />
    <glyph glyph-name="parenright.lat" horiz-adv-x="649" 
d="M281 -272h-220q100 162 165 385t65 489q0 477 -230 860h220q254 -371 254 -860q-1 -150 -24 -289t-63 -248t-80 -189t-87 -148z" />
    <glyph glyph-name="bracketleft.lat" horiz-adv-x="643" 
d="M559 -276h-420v1726h420v-172h-194v-1382h194v-172z" />
    <glyph glyph-name="bracketright.lat" horiz-adv-x="643" 
d="M86 1450h418v-1726h-418v172h195v1384h-195v170z" />
    <glyph glyph-name="braceleft.lat" horiz-adv-x="643" 
d="M49 510v158q168 5 168 139q0 54 -12 164q-10 92 -10 205q0 140 81.5 207t229.5 67h72v-172h-37q-67 -1 -96 -38t-29 -107q0 -53 10 -160q10 -102 10 -144q1 -110 -41.5 -163.5t-132.5 -73.5v-4q90 -20 132.5 -74t41.5 -166q0 -38 -10 -145t-10 -158q0 -71 28.5 -108.5
t96.5 -38.5h37v-174h-74q-309 0 -309 280q0 111 10 203q12 110 12 164q0 24 -7 45.5t-24 43.5t-52 35.5t-85 14.5z" />
    <glyph glyph-name="braceright.lat" horiz-adv-x="643" 
d="M594 668v-158q-94 -3 -131 -44t-37 -95t12 -164q13 -119 13 -203q0 -75 -22.5 -128.5t-65 -84t-97.5 -44t-127 -13.5h-73v164h36q68 1 96.5 38.5t28.5 108.5q0 86 -10 158q-10 107 -10 145q-1 112 42 166t134 74v4q-91 20 -134 73t-42 164q0 42 10 144q10 72 10 160
q0 70 -29 107t-96 38h-36v172h71q150 0 232 -67t82 -207q0 -86 -13 -205q-12 -110 -12 -164q0 -56 37 -96t131 -43z" />
    <glyph glyph-name="asterisk.lat" horiz-adv-x="929" 
d="M582 1403l180 -103l-221 -260l2 -6l325 66v-207l-327 57l-2 -6l223 -252l-182 -106l-117 317l-4 -2l-119 -315l-176 106l219 256v4l-322 -59v207l318 -64l2 4l-217 258l182 105l115 -313h4z" />
    <glyph glyph-name="dagger.lat" horiz-adv-x="1073" 
d="M395 1380h283l-27 -411l350 24v-241l-350 24l27 -878h-283l29 878l-352 -24v241l352 -24z" />
    <glyph glyph-name="daggerdbl.lat" horiz-adv-x="1073" 
d="M397 1380h279l-23 -379l348 23v-240l-348 25v-324l348 25v-242l-348 25l23 -395h-279l21 395l-348 -25v242l348 -25v324l-348 -25v240l348 -23z" />
    <glyph glyph-name="section.lat" horiz-adv-x="1148" 
d="M334 702q0 -51 42.5 -89t135.5 -70q35 -13 90 -31.5t93 -32t59 -24.5q59 39 59 106q0 93 -141 148q-30 12 -88.5 32.5t-103.5 37.5t-72 30q-74 -40 -74 -107zM950 1339l-49 -188q-116 57 -268 57q-89 0 -136.5 -26.5t-47.5 -71.5q0 -44 51.5 -75.5t167.5 -67.5
q74 -23 126.5 -43.5t105 -51.5t85 -66.5t52.5 -85.5t20 -112q0 -155 -150 -250q35 -26 62.5 -75.5t27.5 -112.5q0 -72 -29 -130t-75 -94t-107 -60t-120.5 -34t-120.5 -10q-240 0 -383 90l59 189q55 -32 139.5 -59t169.5 -27q84 0 135.5 27.5t51.5 78.5q0 50 -48.5 83
t-168.5 71q-74 22 -127 42t-109.5 51t-91.5 65.5t-57.5 84t-22.5 109.5q0 71 44 140t126 110q-34 28 -58 79.5t-24 106.5q0 150 126 234t321 84q193 0 323 -62z" />
    <glyph glyph-name="paragraph.lat" horiz-adv-x="1110" 
d="M618 -96h-196v637h-14q-47 0 -103.5 24t-111 68.5t-92 121t-38.5 169.5q-1 70 14 132t57 125t108 107.5t175.5 72.5t252.5 28q202 0 293 -23v-1462h-199v1292h-146v-1292z" />
    <glyph glyph-name="at.lat" horiz-adv-x="1576" 
d="M907 512l29 195q-32 8 -64 8q-101 0 -171 -86t-70 -205q0 -60 26 -93.5t76 -33.5q57 0 109 63t65 152zM1081 -23l37 -116q-89 -41 -175.5 -57.5t-199.5 -16.5q-128 0 -243.5 45t-203.5 126.5t-140 204.5t-52 269q0 156 55.5 298t153.5 249t243 170t314 63
q133 0 248 -44.5t196.5 -122t128 -187.5t46.5 -237q0 -220 -110 -354t-279 -134q-75 0 -122 39.5t-54 118.5h-4q-96 -158 -265 -158q-102 0 -165.5 71t-63.5 195q0 94 34 180t94.5 152.5t152 106t198.5 39.5q67 0 136 -15t108 -37l-62 -379q-15 -91 -3 -134t55 -44
q75 -2 136.5 90t61.5 256q0 207 -129.5 340t-359.5 133q-117 0 -223.5 -45t-187.5 -125.5t-129 -201.5t-48 -264q0 -251 145 -394t379 -143q171 0 297 63z" />
    <glyph glyph-name="numbersign.lat" horiz-adv-x="1126" 
d="M457 555h186l33 229h-187zM373 0h-185l54 367h-166v188h198l33 229h-174v191h203l51 356h182l-51 -356h187l53 356h182l-53 -356h164v-191h-193l-33 -229h170v-188h-200l-52 -367h-184l51 367h-186z" />
    <glyph glyph-name="copyright.lat" horiz-adv-x="1386" 
d="M696 1327q129 0 245 -50t199 -134.5t132 -201.5t49 -245q0 -173 -82.5 -319t-226.5 -231t-316 -85q-173 0 -318 85t-228.5 231t-83.5 319q0 128 49.5 245t133.5 201.5t200.5 134.5t246.5 50zM694 1210q-101 0 -192.5 -40.5t-158 -109.5t-105.5 -164.5t-39 -201.5
t39 -201.5t105.5 -164.5t158 -109.5t192.5 -40.5q134 0 247.5 68.5t180 187.5t66.5 260t-66.5 260t-180 187.5t-247.5 68.5zM971 1008l-31 -109q-27 15 -81.5 30t-113.5 15q-119 0 -186 -67t-67 -187q0 -113 69 -184.5t182 -71.5q131 0 205 51l31 -106q-101 -66 -254 -66
q-175 0 -277 105t-102 266q0 171 117 276t282 105q72 0 138.5 -17.5t87.5 -39.5z" />
    <glyph glyph-name="trademark.lat" horiz-adv-x="1331" 
d="M55 1380h488v-137h-160v-422h-170v422h-158v137zM1309 821h-164l-10 246q-1 30 -1 102t-1 115h-11q-31 -148 -47 -217l-57 -236h-162l-51 238q-4 23 -9.5 59t-13.5 83t-12 73h-10q0 -91 -4 -217l-13 -246h-159l34 559h263l37 -137q13 -56 32 -178h2q18 89 41 178l41 137
h244z" />
    <glyph glyph-name="registered.lat" horiz-adv-x="940" 
d="M426 883h-100v325q75 13 143 13q89 0 131 -27q35 -24 35 -72q0 -24 -21 -44t-55 -29v-5q53 -14 68 -83q13 -59 22 -78h-112q-12 14 -23 69q-9 49 -55 49h-33v-118zM430 1147v-78h29q28 0 44.5 11t16.5 28q0 41 -57 41q-7 0 -18.5 -1t-14.5 -1zM471 1403
q152 0 257.5 -102.5t105.5 -249.5q0 -148 -105.5 -251.5t-257.5 -103.5t-258.5 103.5t-106.5 251.5q0 146 106.5 249t258.5 103zM469 1315q-108 0 -181 -76.5t-73 -189.5q0 -110 73.5 -187.5t182.5 -77.5t182.5 78t73.5 189t-73.5 187.5t-184.5 76.5z" />
    <glyph glyph-name="uni20AA.lat" horiz-adv-x="1251" 
d="M338 0h-240v1331h539q126 0 167.5 -60.5t41.5 -217.5v-631h-184v498q0 92 -25.5 118.5t-110.5 26.5h-188v-1065zM915 1331h238v-1331h-539q-126 0 -167 60.5t-41 218.5v630h184v-497q0 -93 25 -119.5t108 -26.5h192v1065z" />
    <glyph glyph-name="dollar.lat" horiz-adv-x="1136" 
d="M662 -178h-201v194q-100 4 -194 28.5t-154 59.5l61 240q165 -90 340 -90q90 0 143.5 33.5t53.5 93.5q0 58 -50.5 98.5t-166.5 79.5q-180 61 -274.5 148t-94.5 227q0 136 91.5 234t254.5 130v195h201v-180q172 -8 297 -68l-60 -231q-103 45 -174 58q-59 11 -121 11
q-92 0 -134 -32.5t-42 -81.5t54.5 -86.5t191.5 -89.5q182 -64 262 -154t80 -229q0 -141 -96 -245t-268 -134v-209z" />
    <glyph glyph-name="sterling.lat" horiz-adv-x="1136" 
d="M1038 0h-934v166q90 37 160 120.5t70 180.5q0 38 -6 82h-201v211h164q-17 87 -17 166q0 193 128.5 310.5t334.5 117.5q154 0 242 -49l-51 -236q-63 37 -172 37q-101 0 -146 -55t-45 -138q0 -72 19 -153h280v-211h-254q3 -84 -18 -146q-29 -83 -100 -145v-4h546v-254z" />
    <glyph glyph-name="yen.lat" horiz-adv-x="1136" 
d="M705 0h-293v328h-318v145h318v131h-318v146h244l-334 581h334l143 -327q17 -37 31 -73.5t31 -84t24 -66.5h4q6 14 36.5 96.5t51.5 129.5l146 325h328l-351 -581h244v-146h-321v-131h321v-145h-321v-328z" />
    <glyph glyph-name="Euro.lat" horiz-adv-x="1136" 
d="M1028 283l49 -228q-59 -33 -143.5 -55.5t-175.5 -22.5q-152 0 -283.5 60.5t-216.5 173.5q-90 115 -115 266h-133v146h113v34q0 10 1 31t1 31h-115v145h137q40 163 142 281q187 209 473 209q168 0 307 -62l-57 -233q-113 49 -228 49q-162 0 -252 -111q-43 -49 -65 -133
h510v-145h-541q-2 -20 -2 -64v-32h543v-146h-514q21 -91 67 -143q94 -105 265 -105q65 0 130 17t103 37z" />
    <glyph glyph-name="cent.lat" horiz-adv-x="1136" 
d="M772 -25h-201v201q-190 29 -303 158q-114 129 -114 336q0 190 110.5 331.5t306.5 180.5v196h203v-186q111 -7 195 -41l-49 -229q-70 36 -183 36q-122 0 -193 -76t-71 -200q0 -132 75.5 -203t190.5 -71q113 0 203 34l37 -223q-80 -41 -207 -47v-197z" />
    <glyph glyph-name="uni0192.lat" horiz-adv-x="1136" 
d="M233 635v217h187l12 98q5 50 17 100t44 115t78 113.5t125.5 82.5t180.5 34q103 0 167 -33l-47 -221q-49 18 -98 18q-141 0 -164 -184l-16 -123h209v-217h-234l-47 -385q-11 -81 -27 -143t-46.5 -121.5t-73 -98t-108.5 -61.5t-152 -23q-121 0 -185 33l43 219
q44 -18 97 -18q51 1 81 26t49 86t35 179l33 307h-160z" />
    <glyph glyph-name="degree.lat" horiz-adv-x="729" 
d="M367 1403q135 0 223 -87t88 -210q0 -131 -92 -217t-221 -86q-133 0 -221.5 86.5t-88.5 210.5q0 126 91 214.5t221 88.5zM367 1262q-65 0 -106.5 -48t-41.5 -114t42.5 -111t105.5 -45t104 45t41 113q0 64 -39 112t-106 48z" />
    <glyph glyph-name="onesuperior.lat" horiz-adv-x="614" 
d="M481 905h-239v604h-4l-162 -71l-33 168l229 98h209v-799z" />
    <glyph glyph-name="twosuperior.lat" horiz-adv-x="720" 
d="M31 905v115l125 115q142 124 179 167q60 69 60 128q0 44 -32.5 71t-88.5 27q-92 0 -176 -58l-61 156q122 88 297 88q149 0 231 -69.5t82 -178.5q0 -42 -13.5 -82t-32.5 -70.5t-54.5 -67t-62 -59.5t-72.5 -61l-50 -39v-4h300v-178h-631z" />
    <glyph glyph-name="threesuperior.lat" horiz-adv-x="710" 
d="M96 1501l-45 148q46 29 123 47t164 18q142 0 219.5 -57t77.5 -146q0 -64 -46.5 -110.5t-123.5 -69.5v-4q87 -9 143 -60.5t56 -127.5q0 -108 -101 -176t-268 -68q-82 0 -157 16t-120 41l48 160q38 -20 93.5 -36.5t106.5 -16.5q65 0 106 26t40 66q0 50 -51.5 76t-124.5 26
h-62v140h57q60 0 109 21.5t49 64.5q0 32 -26.5 51.5t-81.5 19.5q-89 0 -185 -49z" />
    <glyph glyph-name="fraction.lat" horiz-adv-x="256" 
d="M-166 -23h-168l756 1377h170z" />
    <glyph glyph-name="uni2215.lat" horiz-adv-x="256" 
d="M-166 -23h-168l756 1377h170z" />
    <glyph glyph-name="onehalf.lat" horiz-adv-x="1701" 
d="M485 545h-239v604h-4l-162 -72l-33 168l229 98h209v-798zM993 0v115l125 114q141 124 178 165q62 71 62 130q0 44 -32.5 71.5t-88.5 27.5q-92 0 -176 -58l-62 156q122 88 297 88q149 0 231.5 -69.5t82.5 -178.5q0 -52 -17.5 -98t-56.5 -91t-71 -74t-91 -77l-49 -39v-4
h299v-178h-631zM473 -23h-168l756 1377h170z" />
    <glyph glyph-name="onequarter.lat" horiz-adv-x="1701" 
d="M510 545h-240v604h-4l-162 -72l-32 168l229 98h209v-798zM1522 0h-224v184h-393v131l340 490h277v-467h104v-154h-104v-184zM1298 338v149q0 29 4 81t5 71h-4q-63 -119 -74 -137l-109 -162l4 -2h174zM522 -23h-168l756 1377h170z" />
    <glyph glyph-name="threequarters.lat" horiz-adv-x="1701" 
d="M131 1141l-45 147q46 29 123.5 47.5t163.5 18.5q142 0 219.5 -57t77.5 -146q0 -64 -46.5 -110.5t-123.5 -69.5v-4q86 -9 142 -60.5t56 -128.5q0 -108 -100.5 -175.5t-267.5 -67.5q-82 0 -157 16t-120 41l47 160q39 -21 94.5 -37.5t106.5 -16.5q64 0 105.5 26.5t39.5 66.5
q0 50 -51.5 76t-124.5 26h-61v139h57q60 0 109 21.5t49 64.5q0 33 -27 52.5t-82 19.5q-88 0 -184 -49zM1542 0h-223v184h-393v131l340 490h276v-467h105v-154h-105v-184zM1319 338v149q0 29 3.5 82t4.5 70h-4q-63 -119 -74 -137l-108 -162l4 -2h174zM588 -23h-168l756 1377
h170z" />
    <glyph glyph-name="percent.lat" horiz-adv-x="1802" 
d="M428 1354q168 0 263 -110.5t95 -285.5q0 -101 -30 -183.5t-81.5 -134.5t-117.5 -80t-139 -28q-156 0 -259.5 110.5t-103.5 293.5q0 181 102.5 299.5t270.5 118.5zM422 1184q-66 0 -100.5 -67.5t-34.5 -174.5q0 -108 35.5 -174t101.5 -66q65 0 98 63t33 179
q0 109 -32.5 174.5t-100.5 65.5zM600 -23h-168l766 1375h166zM1386 801q168 0 263.5 -110t95.5 -285q0 -101 -30.5 -183t-82 -134t-117.5 -79.5t-139 -27.5q-155 0 -258 109t-104 292q0 182 102 300t270 118zM1382 631q-67 0 -101 -67t-34 -173q-2 -107 33.5 -173t101.5 -66
q65 0 98 62.5t33 176.5q0 109 -31.5 174.5t-99.5 65.5z" />
    <glyph glyph-name="perthousand.lat" horiz-adv-x="2631" 
d="M428 1354q168 0 263 -110.5t95 -285.5q0 -101 -30 -183.5t-81.5 -134.5t-117.5 -80t-139 -28q-156 0 -259.5 110.5t-103.5 293.5q0 181 102.5 299.5t270.5 118.5zM422 1184q-66 0 -100.5 -67.5t-34.5 -174.5q0 -108 35.5 -174t101.5 -66q65 0 98 63t33 179
q0 109 -32.5 174.5t-100.5 65.5zM600 -23h-168l766 1375h166zM1386 801q168 0 263.5 -110t95.5 -285q0 -101 -30.5 -183t-82 -134t-117.5 -79.5t-139 -27.5q-155 0 -258 109t-104 292q0 182 102 300t270 118zM1382 631q-67 0 -101 -67t-34 -173q-2 -107 33.5 -173t101.5 -66
q65 0 98 62.5t33 176.5q0 109 -31.5 174.5t-99.5 65.5zM2214 801q168 0 263 -110t95 -285q0 -101 -30 -183t-81.5 -134t-117.5 -79.5t-139 -27.5q-156 0 -259 109t-104 292q0 181 102.5 299.5t270.5 118.5zM2210 631q-67 0 -102 -67t-35 -173q0 -108 35.5 -173.5
t101.5 -65.5q65 0 98 62.5t33 176.5q0 109 -32 174.5t-99 65.5z" />
    <glyph glyph-name="asciicircum.lat" horiz-adv-x="1220" 
d="M1135 362h-224l-299 730h-6l-301 -730h-219l430 969h189z" />
    <glyph glyph-name="slash.lat" horiz-adv-x="677" 
d="M240 -82h-207l438 1485h207z" />
    <glyph glyph-name="backslash.lat" horiz-adv-x="675" 
d="M643 -82h-205l-413 1485h206z" />
    <glyph glyph-name="gravecomb.cap" 
d="M-356 1708h342l174 -248h-269z" />
    <glyph glyph-name="acutecomb.cap" 
d="M23 1708h342l-246 -252h-269z" />
    <glyph glyph-name="uni0302.cap" 
d="M-117 1706h232l209 -250h-220l-102 127h-4l-102 -127h-218z" />
    <glyph glyph-name="uni030C.cap" 
d="M117 1456h-234l-207 250h220l102 -127h4l102 127h218z" />
    <glyph glyph-name="tildecomb.cap" 
d="M-164 1462h-166q-4 142 47.5 220.5t141.5 78.5q69 0 151 -47q7 -4 22 -12t22.5 -11.5t19 -8.5t20.5 -7t17 -2q29 0 42 20.5t17 78.5h162q8 -293 -189 -293q-46 0 -80.5 12.5t-80.5 38.5q-28 15 -37.5 19.5t-24 9t-29.5 4.5q-49 0 -55 -101z" />
    <glyph glyph-name="uni0308.cap" 
d="M-213 1462q-63 0 -105 42t-42 102q0 61 42.5 102t104.5 41q59 0 99 -40.5t40 -102.5q0 -61 -39.5 -102.5t-99.5 -41.5zM219 1462q-62 0 -102.5 41.5t-40.5 102.5q0 62 41 102.5t104 40.5q60 0 99.5 -40t39.5 -103q0 -61 -40 -102.5t-101 -41.5z" />
    <glyph glyph-name="uni0304.cap" 
d="M-295 1704h592v-197h-592v197z" />
    <glyph glyph-name="uni0306.cap" 
d="M-299 1726h174q25 -94 123 -94q105 0 131 94h170q-14 -116 -90 -187t-211 -71q-140 0 -212 70.5t-85 187.5z" />
    <glyph glyph-name="uni030A.cap" 
d="M2 1438q-116 0 -182 55.5t-66 144.5q0 86 67 143.5t183 57.5q113 0 177.5 -55.5t64.5 -143.5q0 -92 -65.5 -147t-178.5 -55zM0 1550q44 0 67 25t23 63q0 36 -23.5 63.5t-66.5 27.5q-41 0 -64.5 -27.5t-23.5 -63.5q0 -35 23 -61.5t65 -26.5z" />
    <glyph glyph-name="uni030B.cap" 
d="M-158 1708h289l-207 -238h-215zM215 1708h289l-209 -238h-213z" />
    <glyph glyph-name="uni0307.cap" 
d="M2 1460q-62 0 -103.5 42.5t-41.5 101.5q0 63 41.5 104t103.5 41t102.5 -41t40.5 -104q0 -59 -41 -101.5t-102 -42.5z" />
    <glyph glyph-name="uni05B7.s" 
d="M176 -164v-106h-352v106h352z" />
    <glyph glyph-name="uni05B8.s" 
d="M174 -164v-106h-129l18 -209h-126l18 209h-133v106h352z" />
    <glyph glyph-name="uni05C7.s" 
d="M174 -164v-106h-127l10 -353h-114l10 353h-131v106h352z" />
    <glyph glyph-name="uni05BC.s" 
d="M0 641q31 0 53.5 -22t22.5 -54q0 -34 -22 -53.5t-54 -19.5q-31 0 -52.5 19.5t-21.5 53.5q0 33 22 54.5t52 21.5z" />
    <glyph glyph-name="uni05B0.k" 
d="M0 -150q36 0 63 -26t27 -64q0 -40 -26.5 -65t-63.5 -25t-63.5 25t-26.5 65q0 39 27 64.5t63 25.5zM0 -408q36 0 63 -26t27 -64q0 -40 -26.5 -65t-63.5 -25t-63.5 25t-26.5 65q0 39 27 64.5t63 25.5z" />
    <glyph glyph-name="uni05B8.k" 
d="M174 -164v-106h-129l18 -209h-126l18 209h-133v106h352z" />
    </font>
</defs>
</svg>
